G04 #@! TF.GenerationSoftware,KiCad,Pcbnew,(5.1.4)-1*
G04 #@! TF.CreationDate,2020-01-28T22:58:31+09:00*
G04 #@! TF.ProjectId,PLCC2DIP40,504c4343-3244-4495-9034-302e6b696361,rev?*
G04 #@! TF.SameCoordinates,Original*
G04 #@! TF.FileFunction,Legend,Top*
G04 #@! TF.FilePolarity,Positive*
%FSLAX46Y46*%
G04 Gerber Fmt 4.6, Leading zero omitted, Abs format (unit mm)*
G04 Created by KiCad (PCBNEW (5.1.4)-1) date 2020-01-28 22:58:31*
%MOMM*%
%LPD*%
G04 APERTURE LIST*
%ADD10C,0.150000*%
%ADD11C,0.120000*%
G04 APERTURE END LIST*
D10*
X58635714Y-30377380D02*
X59302380Y-30377380D01*
X58635714Y-31377380D01*
X59302380Y-31377380D01*
X59826190Y-30805952D02*
X59730952Y-30758333D01*
X59683333Y-30710714D01*
X59635714Y-30615476D01*
X59635714Y-30567857D01*
X59683333Y-30472619D01*
X59730952Y-30425000D01*
X59826190Y-30377380D01*
X60016666Y-30377380D01*
X60111904Y-30425000D01*
X60159523Y-30472619D01*
X60207142Y-30567857D01*
X60207142Y-30615476D01*
X60159523Y-30710714D01*
X60111904Y-30758333D01*
X60016666Y-30805952D01*
X59826190Y-30805952D01*
X59730952Y-30853571D01*
X59683333Y-30901190D01*
X59635714Y-30996428D01*
X59635714Y-31186904D01*
X59683333Y-31282142D01*
X59730952Y-31329761D01*
X59826190Y-31377380D01*
X60016666Y-31377380D01*
X60111904Y-31329761D01*
X60159523Y-31282142D01*
X60207142Y-31186904D01*
X60207142Y-30996428D01*
X60159523Y-30901190D01*
X60111904Y-30853571D01*
X60016666Y-30805952D01*
X60826190Y-30377380D02*
X60921428Y-30377380D01*
X61016666Y-30425000D01*
X61064285Y-30472619D01*
X61111904Y-30567857D01*
X61159523Y-30758333D01*
X61159523Y-30996428D01*
X61111904Y-31186904D01*
X61064285Y-31282142D01*
X61016666Y-31329761D01*
X60921428Y-31377380D01*
X60826190Y-31377380D01*
X60730952Y-31329761D01*
X60683333Y-31282142D01*
X60635714Y-31186904D01*
X60588095Y-30996428D01*
X60588095Y-30758333D01*
X60635714Y-30567857D01*
X60683333Y-30472619D01*
X60730952Y-30425000D01*
X60826190Y-30377380D01*
X62350000Y-31377380D02*
X62350000Y-30377380D01*
X62730952Y-30377380D01*
X62826190Y-30425000D01*
X62873809Y-30472619D01*
X62921428Y-30567857D01*
X62921428Y-30710714D01*
X62873809Y-30805952D01*
X62826190Y-30853571D01*
X62730952Y-30901190D01*
X62350000Y-30901190D01*
X63826190Y-31377380D02*
X63350000Y-31377380D01*
X63350000Y-30377380D01*
X64730952Y-31282142D02*
X64683333Y-31329761D01*
X64540476Y-31377380D01*
X64445238Y-31377380D01*
X64302380Y-31329761D01*
X64207142Y-31234523D01*
X64159523Y-31139285D01*
X64111904Y-30948809D01*
X64111904Y-30805952D01*
X64159523Y-30615476D01*
X64207142Y-30520238D01*
X64302380Y-30425000D01*
X64445238Y-30377380D01*
X64540476Y-30377380D01*
X64683333Y-30425000D01*
X64730952Y-30472619D01*
X65730952Y-31282142D02*
X65683333Y-31329761D01*
X65540476Y-31377380D01*
X65445238Y-31377380D01*
X65302380Y-31329761D01*
X65207142Y-31234523D01*
X65159523Y-31139285D01*
X65111904Y-30948809D01*
X65111904Y-30805952D01*
X65159523Y-30615476D01*
X65207142Y-30520238D01*
X65302380Y-30425000D01*
X65445238Y-30377380D01*
X65540476Y-30377380D01*
X65683333Y-30425000D01*
X65730952Y-30472619D01*
X66873809Y-30329761D02*
X66016666Y-31615476D01*
X67207142Y-31377380D02*
X67207142Y-30377380D01*
X67445238Y-30377380D01*
X67588095Y-30425000D01*
X67683333Y-30520238D01*
X67730952Y-30615476D01*
X67778571Y-30805952D01*
X67778571Y-30948809D01*
X67730952Y-31139285D01*
X67683333Y-31234523D01*
X67588095Y-31329761D01*
X67445238Y-31377380D01*
X67207142Y-31377380D01*
X68207142Y-31377380D02*
X68207142Y-30377380D01*
X68683333Y-31377380D02*
X68683333Y-30377380D01*
X69064285Y-30377380D01*
X69159523Y-30425000D01*
X69207142Y-30472619D01*
X69254761Y-30567857D01*
X69254761Y-30710714D01*
X69207142Y-30805952D01*
X69159523Y-30853571D01*
X69064285Y-30901190D01*
X68683333Y-30901190D01*
X71016666Y-31282142D02*
X70969047Y-31329761D01*
X70826190Y-31377380D01*
X70730952Y-31377380D01*
X70588095Y-31329761D01*
X70492857Y-31234523D01*
X70445238Y-31139285D01*
X70397619Y-30948809D01*
X70397619Y-30805952D01*
X70445238Y-30615476D01*
X70492857Y-30520238D01*
X70588095Y-30425000D01*
X70730952Y-30377380D01*
X70826190Y-30377380D01*
X70969047Y-30425000D01*
X71016666Y-30472619D01*
X71588095Y-31377380D02*
X71492857Y-31329761D01*
X71445238Y-31282142D01*
X71397619Y-31186904D01*
X71397619Y-30901190D01*
X71445238Y-30805952D01*
X71492857Y-30758333D01*
X71588095Y-30710714D01*
X71730952Y-30710714D01*
X71826190Y-30758333D01*
X71873809Y-30805952D01*
X71921428Y-30901190D01*
X71921428Y-31186904D01*
X71873809Y-31282142D01*
X71826190Y-31329761D01*
X71730952Y-31377380D01*
X71588095Y-31377380D01*
X72350000Y-30710714D02*
X72350000Y-31377380D01*
X72350000Y-30805952D02*
X72397619Y-30758333D01*
X72492857Y-30710714D01*
X72635714Y-30710714D01*
X72730952Y-30758333D01*
X72778571Y-30853571D01*
X72778571Y-31377380D01*
X73159523Y-30710714D02*
X73397619Y-31377380D01*
X73635714Y-30710714D01*
X74397619Y-31329761D02*
X74302380Y-31377380D01*
X74111904Y-31377380D01*
X74016666Y-31329761D01*
X73969047Y-31234523D01*
X73969047Y-30853571D01*
X74016666Y-30758333D01*
X74111904Y-30710714D01*
X74302380Y-30710714D01*
X74397619Y-30758333D01*
X74445238Y-30853571D01*
X74445238Y-30948809D01*
X73969047Y-31044047D01*
X74873809Y-31377380D02*
X74873809Y-30710714D01*
X74873809Y-30901190D02*
X74921428Y-30805952D01*
X74969047Y-30758333D01*
X75064285Y-30710714D01*
X75159523Y-30710714D01*
X75350000Y-30710714D02*
X75730952Y-30710714D01*
X75492857Y-30377380D02*
X75492857Y-31234523D01*
X75540476Y-31329761D01*
X75635714Y-31377380D01*
X75730952Y-31377380D01*
X76445238Y-31329761D02*
X76350000Y-31377380D01*
X76159523Y-31377380D01*
X76064285Y-31329761D01*
X76016666Y-31234523D01*
X76016666Y-30853571D01*
X76064285Y-30758333D01*
X76159523Y-30710714D01*
X76350000Y-30710714D01*
X76445238Y-30758333D01*
X76492857Y-30853571D01*
X76492857Y-30948809D01*
X76016666Y-31044047D01*
X76921428Y-31377380D02*
X76921428Y-30710714D01*
X76921428Y-30901190D02*
X76969047Y-30805952D01*
X77016666Y-30758333D01*
X77111904Y-30710714D01*
X77207142Y-30710714D01*
X78207142Y-30710714D02*
X78445238Y-31377380D01*
X78683333Y-30710714D01*
X79588095Y-31377380D02*
X79016666Y-31377380D01*
X79302380Y-31377380D02*
X79302380Y-30377380D01*
X79207142Y-30520238D01*
X79111904Y-30615476D01*
X79016666Y-30663095D01*
X80016666Y-31282142D02*
X80064285Y-31329761D01*
X80016666Y-31377380D01*
X79969047Y-31329761D01*
X80016666Y-31282142D01*
X80016666Y-31377380D01*
X80683333Y-30377380D02*
X80778571Y-30377380D01*
X80873809Y-30425000D01*
X80921428Y-30472619D01*
X80969047Y-30567857D01*
X81016666Y-30758333D01*
X81016666Y-30996428D01*
X80969047Y-31186904D01*
X80921428Y-31282142D01*
X80873809Y-31329761D01*
X80778571Y-31377380D01*
X80683333Y-31377380D01*
X80588095Y-31329761D01*
X80540476Y-31282142D01*
X80492857Y-31186904D01*
X80445238Y-30996428D01*
X80445238Y-30758333D01*
X80492857Y-30567857D01*
X80540476Y-30472619D01*
X80588095Y-30425000D01*
X80683333Y-30377380D01*
X61207142Y-33027380D02*
X61207142Y-32027380D01*
X61207142Y-32408333D02*
X61302380Y-32360714D01*
X61492857Y-32360714D01*
X61588095Y-32408333D01*
X61635714Y-32455952D01*
X61683333Y-32551190D01*
X61683333Y-32836904D01*
X61635714Y-32932142D01*
X61588095Y-32979761D01*
X61492857Y-33027380D01*
X61302380Y-33027380D01*
X61207142Y-32979761D01*
X62016666Y-32360714D02*
X62254761Y-33027380D01*
X62492857Y-32360714D02*
X62254761Y-33027380D01*
X62159523Y-33265476D01*
X62111904Y-33313095D01*
X62016666Y-33360714D01*
X64064285Y-32979761D02*
X63969047Y-33027380D01*
X63778571Y-33027380D01*
X63683333Y-32979761D01*
X63635714Y-32932142D01*
X63588095Y-32836904D01*
X63588095Y-32551190D01*
X63635714Y-32455952D01*
X63683333Y-32408333D01*
X63778571Y-32360714D01*
X63969047Y-32360714D01*
X64064285Y-32408333D01*
X64635714Y-33027380D02*
X64540476Y-32979761D01*
X64492857Y-32884523D01*
X64492857Y-32027380D01*
X65159523Y-33027380D02*
X65064285Y-32979761D01*
X65016666Y-32932142D01*
X64969047Y-32836904D01*
X64969047Y-32551190D01*
X65016666Y-32455952D01*
X65064285Y-32408333D01*
X65159523Y-32360714D01*
X65302380Y-32360714D01*
X65397619Y-32408333D01*
X65445238Y-32455952D01*
X65492857Y-32551190D01*
X65492857Y-32836904D01*
X65445238Y-32932142D01*
X65397619Y-32979761D01*
X65302380Y-33027380D01*
X65159523Y-33027380D01*
X66350000Y-32360714D02*
X66350000Y-33027380D01*
X65921428Y-32360714D02*
X65921428Y-32884523D01*
X65969047Y-32979761D01*
X66064285Y-33027380D01*
X66207142Y-33027380D01*
X66302380Y-32979761D01*
X66350000Y-32932142D01*
X67254761Y-33027380D02*
X67254761Y-32027380D01*
X67254761Y-32979761D02*
X67159523Y-33027380D01*
X66969047Y-33027380D01*
X66873809Y-32979761D01*
X66826190Y-32932142D01*
X66778571Y-32836904D01*
X66778571Y-32551190D01*
X66826190Y-32455952D01*
X66873809Y-32408333D01*
X66969047Y-32360714D01*
X67159523Y-32360714D01*
X67254761Y-32408333D01*
X67730952Y-33027380D02*
X67730952Y-32360714D01*
X67730952Y-32551190D02*
X67778571Y-32455952D01*
X67826190Y-32408333D01*
X67921428Y-32360714D01*
X68016666Y-32360714D01*
X68730952Y-32979761D02*
X68635714Y-33027380D01*
X68445238Y-33027380D01*
X68350000Y-32979761D01*
X68302380Y-32884523D01*
X68302380Y-32503571D01*
X68350000Y-32408333D01*
X68445238Y-32360714D01*
X68635714Y-32360714D01*
X68730952Y-32408333D01*
X68778571Y-32503571D01*
X68778571Y-32598809D01*
X68302380Y-32694047D01*
X69588095Y-32979761D02*
X69492857Y-33027380D01*
X69302380Y-33027380D01*
X69207142Y-32979761D01*
X69159523Y-32884523D01*
X69159523Y-32503571D01*
X69207142Y-32408333D01*
X69302380Y-32360714D01*
X69492857Y-32360714D01*
X69588095Y-32408333D01*
X69635714Y-32503571D01*
X69635714Y-32598809D01*
X69159523Y-32694047D01*
X70683333Y-32551190D02*
X70635714Y-32503571D01*
X70540476Y-32455952D01*
X70445238Y-32455952D01*
X70350000Y-32503571D01*
X70302380Y-32551190D01*
X70254761Y-32646428D01*
X70254761Y-32741666D01*
X70302380Y-32836904D01*
X70350000Y-32884523D01*
X70445238Y-32932142D01*
X70540476Y-32932142D01*
X70635714Y-32884523D01*
X70683333Y-32836904D01*
X70683333Y-32455952D02*
X70683333Y-32836904D01*
X70730952Y-32884523D01*
X70778571Y-32884523D01*
X70873809Y-32836904D01*
X70921428Y-32741666D01*
X70921428Y-32503571D01*
X70826190Y-32360714D01*
X70683333Y-32265476D01*
X70492857Y-32217857D01*
X70302380Y-32265476D01*
X70159523Y-32360714D01*
X70064285Y-32503571D01*
X70016666Y-32694047D01*
X70064285Y-32884523D01*
X70159523Y-33027380D01*
X70302380Y-33122619D01*
X70492857Y-33170238D01*
X70683333Y-33122619D01*
X70826190Y-33027380D01*
X71350000Y-32360714D02*
X71350000Y-33027380D01*
X71350000Y-32455952D02*
X71397619Y-32408333D01*
X71492857Y-32360714D01*
X71635714Y-32360714D01*
X71730952Y-32408333D01*
X71778571Y-32503571D01*
X71778571Y-33027380D01*
X72683333Y-33027380D02*
X72683333Y-32503571D01*
X72635714Y-32408333D01*
X72540476Y-32360714D01*
X72350000Y-32360714D01*
X72254761Y-32408333D01*
X72683333Y-32979761D02*
X72588095Y-33027380D01*
X72350000Y-33027380D01*
X72254761Y-32979761D01*
X72207142Y-32884523D01*
X72207142Y-32789285D01*
X72254761Y-32694047D01*
X72350000Y-32646428D01*
X72588095Y-32646428D01*
X72683333Y-32598809D01*
X73064285Y-32360714D02*
X73302380Y-33027380D01*
X73540476Y-32360714D01*
X74302380Y-32979761D02*
X74207142Y-33027380D01*
X74016666Y-33027380D01*
X73921428Y-32979761D01*
X73873809Y-32884523D01*
X73873809Y-32503571D01*
X73921428Y-32408333D01*
X74016666Y-32360714D01*
X74207142Y-32360714D01*
X74302380Y-32408333D01*
X74350000Y-32503571D01*
X74350000Y-32598809D01*
X73873809Y-32694047D01*
X74778571Y-33027380D02*
X74778571Y-32360714D01*
X74778571Y-32551190D02*
X74826190Y-32455952D01*
X74873809Y-32408333D01*
X74969047Y-32360714D01*
X75064285Y-32360714D01*
X75397619Y-32932142D02*
X75445238Y-32979761D01*
X75397619Y-33027380D01*
X75350000Y-32979761D01*
X75397619Y-32932142D01*
X75397619Y-33027380D01*
X76302380Y-32979761D02*
X76207142Y-33027380D01*
X76016666Y-33027380D01*
X75921428Y-32979761D01*
X75873809Y-32932142D01*
X75826190Y-32836904D01*
X75826190Y-32551190D01*
X75873809Y-32455952D01*
X75921428Y-32408333D01*
X76016666Y-32360714D01*
X76207142Y-32360714D01*
X76302380Y-32408333D01*
X76873809Y-33027380D02*
X76778571Y-32979761D01*
X76730952Y-32932142D01*
X76683333Y-32836904D01*
X76683333Y-32551190D01*
X76730952Y-32455952D01*
X76778571Y-32408333D01*
X76873809Y-32360714D01*
X77016666Y-32360714D01*
X77111904Y-32408333D01*
X77159523Y-32455952D01*
X77207142Y-32551190D01*
X77207142Y-32836904D01*
X77159523Y-32932142D01*
X77111904Y-32979761D01*
X77016666Y-33027380D01*
X76873809Y-33027380D01*
X77635714Y-33027380D02*
X77635714Y-32360714D01*
X77635714Y-32455952D02*
X77683333Y-32408333D01*
X77778571Y-32360714D01*
X77921428Y-32360714D01*
X78016666Y-32408333D01*
X78064285Y-32503571D01*
X78064285Y-33027380D01*
X78064285Y-32503571D02*
X78111904Y-32408333D01*
X78207142Y-32360714D01*
X78350000Y-32360714D01*
X78445238Y-32408333D01*
X78492857Y-32503571D01*
X78492857Y-33027380D01*
D11*
X47990000Y-25340000D02*
G75*
G02X45990000Y-25340000I-1000000J0D01*
G01*
X45990000Y-25340000D02*
X40930000Y-25340000D01*
X40930000Y-25340000D02*
X40930000Y-76260000D01*
X40930000Y-76260000D02*
X53050000Y-76260000D01*
X53050000Y-76260000D02*
X53050000Y-25340000D01*
X53050000Y-25340000D02*
X47990000Y-25340000D01*
X68850000Y-37680000D02*
X59000000Y-37680000D01*
X59000000Y-37680000D02*
X58000000Y-38680000D01*
X58000000Y-38680000D02*
X58000000Y-61380000D01*
X58000000Y-61380000D02*
X81700000Y-61380000D01*
X81700000Y-61380000D02*
X81700000Y-37680000D01*
X81700000Y-37680000D02*
X70850000Y-37680000D01*
D10*
X46228095Y-23792380D02*
X46228095Y-24601904D01*
X46275714Y-24697142D01*
X46323333Y-24744761D01*
X46418571Y-24792380D01*
X46609047Y-24792380D01*
X46704285Y-24744761D01*
X46751904Y-24697142D01*
X46799523Y-24601904D01*
X46799523Y-23792380D01*
X47799523Y-24792380D02*
X47228095Y-24792380D01*
X47513809Y-24792380D02*
X47513809Y-23792380D01*
X47418571Y-23935238D01*
X47323333Y-24030476D01*
X47228095Y-24078095D01*
X69088095Y-36232380D02*
X69088095Y-37041904D01*
X69135714Y-37137142D01*
X69183333Y-37184761D01*
X69278571Y-37232380D01*
X69469047Y-37232380D01*
X69564285Y-37184761D01*
X69611904Y-37137142D01*
X69659523Y-37041904D01*
X69659523Y-36232380D01*
X70088095Y-36327619D02*
X70135714Y-36280000D01*
X70230952Y-36232380D01*
X70469047Y-36232380D01*
X70564285Y-36280000D01*
X70611904Y-36327619D01*
X70659523Y-36422857D01*
X70659523Y-36518095D01*
X70611904Y-36660952D01*
X70040476Y-37232380D01*
X70659523Y-37232380D01*
M02*
