M48
; DRILL file {KiCad (5.1.4)-1} date 2020-01-28 오후 10:58:37
; FORMAT={-:-/ absolute / metric / decimal}
; #@! TF.CreationDate,2020-01-28T22:58:37+09:00
; #@! TF.GenerationSoftware,Kicad,Pcbnew,(5.1.4)-1
; #@! TF.FileFunction,Plated,1,2,PTH
FMAT,2
METRIC
T1C0.400
T2C0.800
%
G90
G05
T1
X41.91Y-40.64
X43.18Y-54.61
X45.72Y-58.42
X50.8Y-29.21
X50.8Y-31.75
X50.8Y-34.29
X50.8Y-36.83
X50.8Y-39.37
X50.8Y-46.99
X50.8Y-49.53
X50.8Y-52.07
X50.8Y-59.69
X50.8Y-63.5
X50.8Y-63.5
X50.8Y-67.31
X50.8Y-73.66
X58.42Y-55.88
X58.42Y-63.5
X58.42Y-71.12
X59.69Y-39.37
X60.96Y-68.58
X63.5Y-60.96
X63.5Y-71.12
X64.77Y-35.56
X66.04Y-33.02
X67.31Y-30.48
X68.58Y-27.94
X69.85Y-54.61
X69.85Y-69.85
X69.85Y-72.39
X71.12Y-45.72
X71.12Y-50.8
X72.39Y-29.21
X73.66Y-31.75
X73.66Y-48.26
X74.93Y-34.29
X74.93Y-34.29
X74.93Y-62.23
X76.2Y-36.83
X76.2Y-67.31
X76.2Y-67.31
X78.74Y-38.1
X78.74Y-64.77
T2
X39.37Y-26.67
X39.37Y-29.21
X39.37Y-31.75
X39.37Y-34.29
X39.37Y-36.83
X39.37Y-39.37
X39.37Y-41.91
X39.37Y-44.45
X39.37Y-46.99
X39.37Y-49.53
X39.37Y-52.07
X39.37Y-54.61
X39.37Y-57.15
X39.37Y-59.69
X39.37Y-62.23
X39.37Y-64.77
X39.37Y-67.31
X39.37Y-69.85
X39.37Y-72.39
X39.37Y-74.93
X54.61Y-26.67
X54.61Y-29.21
X54.61Y-31.75
X54.61Y-34.29
X54.61Y-36.83
X54.61Y-39.37
X54.61Y-41.91
X54.61Y-44.45
X54.61Y-46.99
X54.61Y-49.53
X54.61Y-52.07
X54.61Y-54.61
X54.61Y-57.15
X54.61Y-59.69
X54.61Y-62.23
X54.61Y-64.77
X54.61Y-67.31
X54.61Y-69.85
X54.61Y-72.39
X54.61Y-74.93
X60.96Y-43.18
X60.96Y-45.72
X60.96Y-48.26
X60.96Y-50.8
X60.96Y-53.34
X60.96Y-55.88
X63.5Y-40.64
X63.5Y-43.18
X63.5Y-45.72
X63.5Y-48.26
X63.5Y-50.8
X63.5Y-53.34
X63.5Y-55.88
X63.5Y-58.42
X66.04Y-40.64
X66.04Y-43.18
X66.04Y-55.88
X66.04Y-58.42
X68.58Y-40.64
X68.58Y-43.18
X68.58Y-55.88
X68.58Y-58.42
X71.12Y-40.64
X71.12Y-43.18
X71.12Y-55.88
X71.12Y-58.42
X73.66Y-40.64
X73.66Y-43.18
X73.66Y-55.88
X73.66Y-58.42
X76.2Y-40.64
X76.2Y-43.18
X76.2Y-45.72
X76.2Y-48.26
X76.2Y-50.8
X76.2Y-53.34
X76.2Y-55.88
X76.2Y-58.42
X78.74Y-43.18
X78.74Y-45.72
X78.74Y-48.26
X78.74Y-50.8
X78.74Y-53.34
X78.74Y-55.88
T0
M30
