%FSLAX45Y45*%
G04 Gerber Fmt 4.5, Leading zero omitted, Abs format (unit mm)*
G04 Created by KiCad (PCBNEW (5.1.4)-1) date 2020-01-28 22:58:38*
%MOMM*%
%LPD*%
G04 APERTURE LIST*
%ADD10C,0.050000*%
%ADD11C,0.200000*%
%ADD12C,0.300000*%
G04 APERTURE END LIST*
D10*
X3683000Y-7747000D02*
X3683000Y-2413000D01*
X8382000Y-7747000D02*
X3683000Y-7747000D01*
X8382000Y-2413000D02*
X8382000Y-7747000D01*
X3683000Y-2413000D02*
X8382000Y-2413000D01*
D11*
X4171000Y-4044000D02*
X4211000Y-4084000D01*
X4211000Y-4044000D02*
X4171000Y-4084000D01*
X4298000Y-5441000D02*
X4338000Y-5481000D01*
X4338000Y-5441000D02*
X4298000Y-5481000D01*
X4552000Y-5822000D02*
X4592000Y-5862000D01*
X4592000Y-5822000D02*
X4552000Y-5862000D01*
X5060000Y-2901000D02*
X5100000Y-2941000D01*
X5100000Y-2901000D02*
X5060000Y-2941000D01*
X5060000Y-3155000D02*
X5100000Y-3195000D01*
X5100000Y-3155000D02*
X5060000Y-3195000D01*
X5060000Y-3409000D02*
X5100000Y-3449000D01*
X5100000Y-3409000D02*
X5060000Y-3449000D01*
X5060000Y-3663000D02*
X5100000Y-3703000D01*
X5100000Y-3663000D02*
X5060000Y-3703000D01*
X5060000Y-3917000D02*
X5100000Y-3957000D01*
X5100000Y-3917000D02*
X5060000Y-3957000D01*
X5060000Y-4679000D02*
X5100000Y-4719000D01*
X5100000Y-4679000D02*
X5060000Y-4719000D01*
X5060000Y-4933000D02*
X5100000Y-4973000D01*
X5100000Y-4933000D02*
X5060000Y-4973000D01*
X5060000Y-5187000D02*
X5100000Y-5227000D01*
X5100000Y-5187000D02*
X5060000Y-5227000D01*
X5060000Y-5949000D02*
X5100000Y-5989000D01*
X5100000Y-5949000D02*
X5060000Y-5989000D01*
X5060000Y-6330000D02*
X5100000Y-6370000D01*
X5100000Y-6330000D02*
X5060000Y-6370000D01*
X5060000Y-6330000D02*
X5100000Y-6370000D01*
X5100000Y-6330000D02*
X5060000Y-6370000D01*
X5060000Y-6711000D02*
X5100000Y-6751000D01*
X5100000Y-6711000D02*
X5060000Y-6751000D01*
X5060000Y-7346000D02*
X5100000Y-7386000D01*
X5100000Y-7346000D02*
X5060000Y-7386000D01*
X5822000Y-5568000D02*
X5862000Y-5608000D01*
X5862000Y-5568000D02*
X5822000Y-5608000D01*
X5822000Y-6330000D02*
X5862000Y-6370000D01*
X5862000Y-6330000D02*
X5822000Y-6370000D01*
X5822000Y-7092000D02*
X5862000Y-7132000D01*
X5862000Y-7092000D02*
X5822000Y-7132000D01*
X5949000Y-3917000D02*
X5989000Y-3957000D01*
X5989000Y-3917000D02*
X5949000Y-3957000D01*
X6076000Y-6838000D02*
X6116000Y-6878000D01*
X6116000Y-6838000D02*
X6076000Y-6878000D01*
X6330000Y-6076000D02*
X6370000Y-6116000D01*
X6370000Y-6076000D02*
X6330000Y-6116000D01*
X6330000Y-7092000D02*
X6370000Y-7132000D01*
X6370000Y-7092000D02*
X6330000Y-7132000D01*
X6457000Y-3536000D02*
X6497000Y-3576000D01*
X6497000Y-3536000D02*
X6457000Y-3576000D01*
X6584000Y-3282000D02*
X6624000Y-3322000D01*
X6624000Y-3282000D02*
X6584000Y-3322000D01*
X6711000Y-3028000D02*
X6751000Y-3068000D01*
X6751000Y-3028000D02*
X6711000Y-3068000D01*
X6838000Y-2774000D02*
X6878000Y-2814000D01*
X6878000Y-2774000D02*
X6838000Y-2814000D01*
X6965000Y-5441000D02*
X7005000Y-5481000D01*
X7005000Y-5441000D02*
X6965000Y-5481000D01*
X6965000Y-6965000D02*
X7005000Y-7005000D01*
X7005000Y-6965000D02*
X6965000Y-7005000D01*
X6965000Y-7219000D02*
X7005000Y-7259000D01*
X7005000Y-7219000D02*
X6965000Y-7259000D01*
X7092000Y-4552000D02*
X7132000Y-4592000D01*
X7132000Y-4552000D02*
X7092000Y-4592000D01*
X7092000Y-5060000D02*
X7132000Y-5100000D01*
X7132000Y-5060000D02*
X7092000Y-5100000D01*
X7219000Y-2901000D02*
X7259000Y-2941000D01*
X7259000Y-2901000D02*
X7219000Y-2941000D01*
X7346000Y-3155000D02*
X7386000Y-3195000D01*
X7386000Y-3155000D02*
X7346000Y-3195000D01*
X7346000Y-4806000D02*
X7386000Y-4846000D01*
X7386000Y-4806000D02*
X7346000Y-4846000D01*
X7473000Y-3409000D02*
X7513000Y-3449000D01*
X7513000Y-3409000D02*
X7473000Y-3449000D01*
X7473000Y-3409000D02*
X7513000Y-3449000D01*
X7513000Y-3409000D02*
X7473000Y-3449000D01*
X7473000Y-6203000D02*
X7513000Y-6243000D01*
X7513000Y-6203000D02*
X7473000Y-6243000D01*
X7600000Y-3663000D02*
X7640000Y-3703000D01*
X7640000Y-3663000D02*
X7600000Y-3703000D01*
X7600000Y-6711000D02*
X7640000Y-6751000D01*
X7640000Y-6711000D02*
X7600000Y-6751000D01*
X7600000Y-6711000D02*
X7640000Y-6751000D01*
X7640000Y-6711000D02*
X7600000Y-6751000D01*
X7854000Y-3790000D02*
X7894000Y-3830000D01*
X7894000Y-3790000D02*
X7854000Y-3830000D01*
X7854000Y-6457000D02*
X7894000Y-6497000D01*
X7894000Y-6457000D02*
X7854000Y-6497000D01*
X3977000Y-2667000D02*
G75*
G03X3977000Y-2667000I-40000J0D01*
G01*
X3977000Y-2921000D02*
G75*
G03X3977000Y-2921000I-40000J0D01*
G01*
X3977000Y-3175000D02*
G75*
G03X3977000Y-3175000I-40000J0D01*
G01*
X3977000Y-3429000D02*
G75*
G03X3977000Y-3429000I-40000J0D01*
G01*
X3977000Y-3683000D02*
G75*
G03X3977000Y-3683000I-40000J0D01*
G01*
X3977000Y-3937000D02*
G75*
G03X3977000Y-3937000I-40000J0D01*
G01*
X3977000Y-4191000D02*
G75*
G03X3977000Y-4191000I-40000J0D01*
G01*
X3977000Y-4445000D02*
G75*
G03X3977000Y-4445000I-40000J0D01*
G01*
X3977000Y-4699000D02*
G75*
G03X3977000Y-4699000I-40000J0D01*
G01*
X3977000Y-4953000D02*
G75*
G03X3977000Y-4953000I-40000J0D01*
G01*
X3977000Y-5207000D02*
G75*
G03X3977000Y-5207000I-40000J0D01*
G01*
X3977000Y-5461000D02*
G75*
G03X3977000Y-5461000I-40000J0D01*
G01*
X3977000Y-5715000D02*
G75*
G03X3977000Y-5715000I-40000J0D01*
G01*
X3977000Y-5969000D02*
G75*
G03X3977000Y-5969000I-40000J0D01*
G01*
X3977000Y-6223000D02*
G75*
G03X3977000Y-6223000I-40000J0D01*
G01*
X3977000Y-6477000D02*
G75*
G03X3977000Y-6477000I-40000J0D01*
G01*
X3977000Y-6731000D02*
G75*
G03X3977000Y-6731000I-40000J0D01*
G01*
X3977000Y-6985000D02*
G75*
G03X3977000Y-6985000I-40000J0D01*
G01*
X3977000Y-7239000D02*
G75*
G03X3977000Y-7239000I-40000J0D01*
G01*
X3977000Y-7493000D02*
G75*
G03X3977000Y-7493000I-40000J0D01*
G01*
X5501000Y-2667000D02*
G75*
G03X5501000Y-2667000I-40000J0D01*
G01*
X5501000Y-2921000D02*
G75*
G03X5501000Y-2921000I-40000J0D01*
G01*
X5501000Y-3175000D02*
G75*
G03X5501000Y-3175000I-40000J0D01*
G01*
X5501000Y-3429000D02*
G75*
G03X5501000Y-3429000I-40000J0D01*
G01*
X5501000Y-3683000D02*
G75*
G03X5501000Y-3683000I-40000J0D01*
G01*
X5501000Y-3937000D02*
G75*
G03X5501000Y-3937000I-40000J0D01*
G01*
X5501000Y-4191000D02*
G75*
G03X5501000Y-4191000I-40000J0D01*
G01*
X5501000Y-4445000D02*
G75*
G03X5501000Y-4445000I-40000J0D01*
G01*
X5501000Y-4699000D02*
G75*
G03X5501000Y-4699000I-40000J0D01*
G01*
X5501000Y-4953000D02*
G75*
G03X5501000Y-4953000I-40000J0D01*
G01*
X5501000Y-5207000D02*
G75*
G03X5501000Y-5207000I-40000J0D01*
G01*
X5501000Y-5461000D02*
G75*
G03X5501000Y-5461000I-40000J0D01*
G01*
X5501000Y-5715000D02*
G75*
G03X5501000Y-5715000I-40000J0D01*
G01*
X5501000Y-5969000D02*
G75*
G03X5501000Y-5969000I-40000J0D01*
G01*
X5501000Y-6223000D02*
G75*
G03X5501000Y-6223000I-40000J0D01*
G01*
X5501000Y-6477000D02*
G75*
G03X5501000Y-6477000I-40000J0D01*
G01*
X5501000Y-6731000D02*
G75*
G03X5501000Y-6731000I-40000J0D01*
G01*
X5501000Y-6985000D02*
G75*
G03X5501000Y-6985000I-40000J0D01*
G01*
X5501000Y-7239000D02*
G75*
G03X5501000Y-7239000I-40000J0D01*
G01*
X5501000Y-7493000D02*
G75*
G03X5501000Y-7493000I-40000J0D01*
G01*
X6136000Y-4318000D02*
G75*
G03X6136000Y-4318000I-40000J0D01*
G01*
X6136000Y-4572000D02*
G75*
G03X6136000Y-4572000I-40000J0D01*
G01*
X6136000Y-4826000D02*
G75*
G03X6136000Y-4826000I-40000J0D01*
G01*
X6136000Y-5080000D02*
G75*
G03X6136000Y-5080000I-40000J0D01*
G01*
X6136000Y-5334000D02*
G75*
G03X6136000Y-5334000I-40000J0D01*
G01*
X6136000Y-5588000D02*
G75*
G03X6136000Y-5588000I-40000J0D01*
G01*
X6390000Y-4064000D02*
G75*
G03X6390000Y-4064000I-40000J0D01*
G01*
X6390000Y-4318000D02*
G75*
G03X6390000Y-4318000I-40000J0D01*
G01*
X6390000Y-4572000D02*
G75*
G03X6390000Y-4572000I-40000J0D01*
G01*
X6390000Y-4826000D02*
G75*
G03X6390000Y-4826000I-40000J0D01*
G01*
X6390000Y-5080000D02*
G75*
G03X6390000Y-5080000I-40000J0D01*
G01*
X6390000Y-5334000D02*
G75*
G03X6390000Y-5334000I-40000J0D01*
G01*
X6390000Y-5588000D02*
G75*
G03X6390000Y-5588000I-40000J0D01*
G01*
X6390000Y-5842000D02*
G75*
G03X6390000Y-5842000I-40000J0D01*
G01*
X6644000Y-4064000D02*
G75*
G03X6644000Y-4064000I-40000J0D01*
G01*
X6644000Y-4318000D02*
G75*
G03X6644000Y-4318000I-40000J0D01*
G01*
X6644000Y-5588000D02*
G75*
G03X6644000Y-5588000I-40000J0D01*
G01*
X6644000Y-5842000D02*
G75*
G03X6644000Y-5842000I-40000J0D01*
G01*
X6898000Y-4064000D02*
G75*
G03X6898000Y-4064000I-40000J0D01*
G01*
X6898000Y-4318000D02*
G75*
G03X6898000Y-4318000I-40000J0D01*
G01*
X6898000Y-5588000D02*
G75*
G03X6898000Y-5588000I-40000J0D01*
G01*
X6898000Y-5842000D02*
G75*
G03X6898000Y-5842000I-40000J0D01*
G01*
X7152000Y-4064000D02*
G75*
G03X7152000Y-4064000I-40000J0D01*
G01*
X7152000Y-4318000D02*
G75*
G03X7152000Y-4318000I-40000J0D01*
G01*
X7152000Y-5588000D02*
G75*
G03X7152000Y-5588000I-40000J0D01*
G01*
X7152000Y-5842000D02*
G75*
G03X7152000Y-5842000I-40000J0D01*
G01*
X7406000Y-4064000D02*
G75*
G03X7406000Y-4064000I-40000J0D01*
G01*
X7406000Y-4318000D02*
G75*
G03X7406000Y-4318000I-40000J0D01*
G01*
X7406000Y-5588000D02*
G75*
G03X7406000Y-5588000I-40000J0D01*
G01*
X7406000Y-5842000D02*
G75*
G03X7406000Y-5842000I-40000J0D01*
G01*
X7660000Y-4064000D02*
G75*
G03X7660000Y-4064000I-40000J0D01*
G01*
X7660000Y-4318000D02*
G75*
G03X7660000Y-4318000I-40000J0D01*
G01*
X7660000Y-4572000D02*
G75*
G03X7660000Y-4572000I-40000J0D01*
G01*
X7660000Y-4826000D02*
G75*
G03X7660000Y-4826000I-40000J0D01*
G01*
X7660000Y-5080000D02*
G75*
G03X7660000Y-5080000I-40000J0D01*
G01*
X7660000Y-5334000D02*
G75*
G03X7660000Y-5334000I-40000J0D01*
G01*
X7660000Y-5588000D02*
G75*
G03X7660000Y-5588000I-40000J0D01*
G01*
X7660000Y-5842000D02*
G75*
G03X7660000Y-5842000I-40000J0D01*
G01*
X7914000Y-4318000D02*
G75*
G03X7914000Y-4318000I-40000J0D01*
G01*
X7914000Y-4572000D02*
G75*
G03X7914000Y-4572000I-40000J0D01*
G01*
X7914000Y-4826000D02*
G75*
G03X7914000Y-4826000I-40000J0D01*
G01*
X7914000Y-5080000D02*
G75*
G03X7914000Y-5080000I-40000J0D01*
G01*
X7914000Y-5334000D02*
G75*
G03X7914000Y-5334000I-40000J0D01*
G01*
X7914000Y-5588000D02*
G75*
G03X7914000Y-5588000I-40000J0D01*
G01*
D12*
X3966928Y-8215214D02*
X3966928Y-7915214D01*
X4038357Y-7915214D01*
X4081214Y-7929500D01*
X4109786Y-7958071D01*
X4124071Y-7986643D01*
X4138357Y-8043786D01*
X4138357Y-8086643D01*
X4124071Y-8143786D01*
X4109786Y-8172357D01*
X4081214Y-8200929D01*
X4038357Y-8215214D01*
X3966928Y-8215214D01*
X4266928Y-8215214D02*
X4266928Y-8015214D01*
X4266928Y-8072357D02*
X4281214Y-8043786D01*
X4295500Y-8029500D01*
X4324071Y-8015214D01*
X4352643Y-8015214D01*
X4452643Y-8215214D02*
X4452643Y-8015214D01*
X4452643Y-7915214D02*
X4438357Y-7929500D01*
X4452643Y-7943786D01*
X4466928Y-7929500D01*
X4452643Y-7915214D01*
X4452643Y-7943786D01*
X4638357Y-8215214D02*
X4609786Y-8200929D01*
X4595500Y-8172357D01*
X4595500Y-7915214D01*
X4795500Y-8215214D02*
X4766928Y-8200929D01*
X4752643Y-8172357D01*
X4752643Y-7915214D01*
X5138357Y-8215214D02*
X5138357Y-7915214D01*
X5238357Y-8129500D01*
X5338357Y-7915214D01*
X5338357Y-8215214D01*
X5609786Y-8215214D02*
X5609786Y-8058071D01*
X5595500Y-8029500D01*
X5566928Y-8015214D01*
X5509786Y-8015214D01*
X5481214Y-8029500D01*
X5609786Y-8200929D02*
X5581214Y-8215214D01*
X5509786Y-8215214D01*
X5481214Y-8200929D01*
X5466928Y-8172357D01*
X5466928Y-8143786D01*
X5481214Y-8115214D01*
X5509786Y-8100929D01*
X5581214Y-8100929D01*
X5609786Y-8086643D01*
X5752643Y-8015214D02*
X5752643Y-8315214D01*
X5752643Y-8029500D02*
X5781214Y-8015214D01*
X5838357Y-8015214D01*
X5866928Y-8029500D01*
X5881214Y-8043786D01*
X5895500Y-8072357D01*
X5895500Y-8158071D01*
X5881214Y-8186643D01*
X5866928Y-8200929D01*
X5838357Y-8215214D01*
X5781214Y-8215214D01*
X5752643Y-8200929D01*
X6024071Y-8186643D02*
X6038357Y-8200929D01*
X6024071Y-8215214D01*
X6009786Y-8200929D01*
X6024071Y-8186643D01*
X6024071Y-8215214D01*
X6024071Y-8029500D02*
X6038357Y-8043786D01*
X6024071Y-8058071D01*
X6009786Y-8043786D01*
X6024071Y-8029500D01*
X6024071Y-8058071D01*
X3640500Y-8689500D02*
X3680500Y-8729500D01*
X3680500Y-8689500D02*
X3640500Y-8729500D01*
X4024071Y-8545214D02*
X4052643Y-8545214D01*
X4081214Y-8559500D01*
X4095500Y-8573786D01*
X4109786Y-8602357D01*
X4124071Y-8659500D01*
X4124071Y-8730929D01*
X4109786Y-8788072D01*
X4095500Y-8816643D01*
X4081214Y-8830929D01*
X4052643Y-8845214D01*
X4024071Y-8845214D01*
X3995500Y-8830929D01*
X3981214Y-8816643D01*
X3966928Y-8788072D01*
X3952643Y-8730929D01*
X3952643Y-8659500D01*
X3966928Y-8602357D01*
X3981214Y-8573786D01*
X3995500Y-8559500D01*
X4024071Y-8545214D01*
X4252643Y-8816643D02*
X4266928Y-8830929D01*
X4252643Y-8845214D01*
X4238357Y-8830929D01*
X4252643Y-8816643D01*
X4252643Y-8845214D01*
X4524071Y-8645214D02*
X4524071Y-8845214D01*
X4452643Y-8530929D02*
X4381214Y-8745214D01*
X4566928Y-8745214D01*
X4738357Y-8545214D02*
X4766928Y-8545214D01*
X4795500Y-8559500D01*
X4809786Y-8573786D01*
X4824071Y-8602357D01*
X4838357Y-8659500D01*
X4838357Y-8730929D01*
X4824071Y-8788072D01*
X4809786Y-8816643D01*
X4795500Y-8830929D01*
X4766928Y-8845214D01*
X4738357Y-8845214D01*
X4709786Y-8830929D01*
X4695500Y-8816643D01*
X4681214Y-8788072D01*
X4666928Y-8730929D01*
X4666928Y-8659500D01*
X4681214Y-8602357D01*
X4695500Y-8573786D01*
X4709786Y-8559500D01*
X4738357Y-8545214D01*
X4966928Y-8845214D02*
X4966928Y-8645214D01*
X4966928Y-8673786D02*
X4981214Y-8659500D01*
X5009786Y-8645214D01*
X5052643Y-8645214D01*
X5081214Y-8659500D01*
X5095500Y-8688072D01*
X5095500Y-8845214D01*
X5095500Y-8688072D02*
X5109786Y-8659500D01*
X5138357Y-8645214D01*
X5181214Y-8645214D01*
X5209786Y-8659500D01*
X5224071Y-8688072D01*
X5224071Y-8845214D01*
X5366928Y-8845214D02*
X5366928Y-8645214D01*
X5366928Y-8673786D02*
X5381214Y-8659500D01*
X5409786Y-8645214D01*
X5452643Y-8645214D01*
X5481214Y-8659500D01*
X5495500Y-8688072D01*
X5495500Y-8845214D01*
X5495500Y-8688072D02*
X5509786Y-8659500D01*
X5538357Y-8645214D01*
X5581214Y-8645214D01*
X5609786Y-8659500D01*
X5624071Y-8688072D01*
X5624071Y-8845214D01*
X6209786Y-8530929D02*
X5952643Y-8916643D01*
X6595500Y-8545214D02*
X6624071Y-8545214D01*
X6652643Y-8559500D01*
X6666928Y-8573786D01*
X6681214Y-8602357D01*
X6695500Y-8659500D01*
X6695500Y-8730929D01*
X6681214Y-8788072D01*
X6666928Y-8816643D01*
X6652643Y-8830929D01*
X6624071Y-8845214D01*
X6595500Y-8845214D01*
X6566928Y-8830929D01*
X6552643Y-8816643D01*
X6538357Y-8788072D01*
X6524071Y-8730929D01*
X6524071Y-8659500D01*
X6538357Y-8602357D01*
X6552643Y-8573786D01*
X6566928Y-8559500D01*
X6595500Y-8545214D01*
X6824071Y-8816643D02*
X6838357Y-8830929D01*
X6824071Y-8845214D01*
X6809786Y-8830929D01*
X6824071Y-8816643D01*
X6824071Y-8845214D01*
X7024071Y-8545214D02*
X7052643Y-8545214D01*
X7081214Y-8559500D01*
X7095500Y-8573786D01*
X7109786Y-8602357D01*
X7124071Y-8659500D01*
X7124071Y-8730929D01*
X7109786Y-8788072D01*
X7095500Y-8816643D01*
X7081214Y-8830929D01*
X7052643Y-8845214D01*
X7024071Y-8845214D01*
X6995500Y-8830929D01*
X6981214Y-8816643D01*
X6966928Y-8788072D01*
X6952643Y-8730929D01*
X6952643Y-8659500D01*
X6966928Y-8602357D01*
X6981214Y-8573786D01*
X6995500Y-8559500D01*
X7024071Y-8545214D01*
X7409786Y-8845214D02*
X7238357Y-8845214D01*
X7324071Y-8845214D02*
X7324071Y-8545214D01*
X7295500Y-8588072D01*
X7266928Y-8616643D01*
X7238357Y-8630929D01*
X7666928Y-8545214D02*
X7609786Y-8545214D01*
X7581214Y-8559500D01*
X7566928Y-8573786D01*
X7538357Y-8616643D01*
X7524071Y-8673786D01*
X7524071Y-8788072D01*
X7538357Y-8816643D01*
X7552643Y-8830929D01*
X7581214Y-8845214D01*
X7638357Y-8845214D01*
X7666928Y-8830929D01*
X7681214Y-8816643D01*
X7695500Y-8788072D01*
X7695500Y-8716643D01*
X7681214Y-8688072D01*
X7666928Y-8673786D01*
X7638357Y-8659500D01*
X7581214Y-8659500D01*
X7552643Y-8673786D01*
X7538357Y-8688072D01*
X7524071Y-8716643D01*
X7809786Y-8545214D02*
X7809786Y-8602357D01*
X7924071Y-8545214D02*
X7924071Y-8602357D01*
X8366928Y-8959500D02*
X8352643Y-8945214D01*
X8324071Y-8902357D01*
X8309786Y-8873786D01*
X8295500Y-8830929D01*
X8281214Y-8759500D01*
X8281214Y-8702357D01*
X8295500Y-8630929D01*
X8309786Y-8588072D01*
X8324071Y-8559500D01*
X8352643Y-8516643D01*
X8366928Y-8502357D01*
X8609786Y-8645214D02*
X8609786Y-8845214D01*
X8538357Y-8530929D02*
X8466928Y-8745214D01*
X8652643Y-8745214D01*
X8738357Y-8545214D02*
X8924071Y-8545214D01*
X8824071Y-8659500D01*
X8866928Y-8659500D01*
X8895500Y-8673786D01*
X8909786Y-8688072D01*
X8924071Y-8716643D01*
X8924071Y-8788072D01*
X8909786Y-8816643D01*
X8895500Y-8830929D01*
X8866928Y-8845214D01*
X8781214Y-8845214D01*
X8752643Y-8830929D01*
X8738357Y-8816643D01*
X9281214Y-8845214D02*
X9281214Y-8545214D01*
X9409786Y-8845214D02*
X9409786Y-8688072D01*
X9395500Y-8659500D01*
X9366928Y-8645214D01*
X9324071Y-8645214D01*
X9295500Y-8659500D01*
X9281214Y-8673786D01*
X9595500Y-8845214D02*
X9566928Y-8830929D01*
X9552643Y-8816643D01*
X9538357Y-8788072D01*
X9538357Y-8702357D01*
X9552643Y-8673786D01*
X9566928Y-8659500D01*
X9595500Y-8645214D01*
X9638357Y-8645214D01*
X9666928Y-8659500D01*
X9681214Y-8673786D01*
X9695500Y-8702357D01*
X9695500Y-8788072D01*
X9681214Y-8816643D01*
X9666928Y-8830929D01*
X9638357Y-8845214D01*
X9595500Y-8845214D01*
X9866928Y-8845214D02*
X9838357Y-8830929D01*
X9824071Y-8802357D01*
X9824071Y-8545214D01*
X10095500Y-8830929D02*
X10066928Y-8845214D01*
X10009786Y-8845214D01*
X9981214Y-8830929D01*
X9966928Y-8802357D01*
X9966928Y-8688072D01*
X9981214Y-8659500D01*
X10009786Y-8645214D01*
X10066928Y-8645214D01*
X10095500Y-8659500D01*
X10109786Y-8688072D01*
X10109786Y-8716643D01*
X9966928Y-8745214D01*
X10224071Y-8830929D02*
X10252643Y-8845214D01*
X10309786Y-8845214D01*
X10338357Y-8830929D01*
X10352643Y-8802357D01*
X10352643Y-8788072D01*
X10338357Y-8759500D01*
X10309786Y-8745214D01*
X10266928Y-8745214D01*
X10238357Y-8730929D01*
X10224071Y-8702357D01*
X10224071Y-8688072D01*
X10238357Y-8659500D01*
X10266928Y-8645214D01*
X10309786Y-8645214D01*
X10338357Y-8659500D01*
X10452643Y-8959500D02*
X10466928Y-8945214D01*
X10495500Y-8902357D01*
X10509786Y-8873786D01*
X10524071Y-8830929D01*
X10538357Y-8759500D01*
X10538357Y-8702357D01*
X10524071Y-8630929D01*
X10509786Y-8588072D01*
X10495500Y-8559500D01*
X10466928Y-8516643D01*
X10452643Y-8502357D01*
X3680500Y-9105500D02*
G75*
G03X3680500Y-9105500I-40000J0D01*
G01*
X4024071Y-8941214D02*
X4052643Y-8941214D01*
X4081214Y-8955500D01*
X4095500Y-8969786D01*
X4109786Y-8998357D01*
X4124071Y-9055500D01*
X4124071Y-9126929D01*
X4109786Y-9184072D01*
X4095500Y-9212643D01*
X4081214Y-9226929D01*
X4052643Y-9241214D01*
X4024071Y-9241214D01*
X3995500Y-9226929D01*
X3981214Y-9212643D01*
X3966928Y-9184072D01*
X3952643Y-9126929D01*
X3952643Y-9055500D01*
X3966928Y-8998357D01*
X3981214Y-8969786D01*
X3995500Y-8955500D01*
X4024071Y-8941214D01*
X4252643Y-9212643D02*
X4266928Y-9226929D01*
X4252643Y-9241214D01*
X4238357Y-9226929D01*
X4252643Y-9212643D01*
X4252643Y-9241214D01*
X4438357Y-9069786D02*
X4409786Y-9055500D01*
X4395500Y-9041214D01*
X4381214Y-9012643D01*
X4381214Y-8998357D01*
X4395500Y-8969786D01*
X4409786Y-8955500D01*
X4438357Y-8941214D01*
X4495500Y-8941214D01*
X4524071Y-8955500D01*
X4538357Y-8969786D01*
X4552643Y-8998357D01*
X4552643Y-9012643D01*
X4538357Y-9041214D01*
X4524071Y-9055500D01*
X4495500Y-9069786D01*
X4438357Y-9069786D01*
X4409786Y-9084072D01*
X4395500Y-9098357D01*
X4381214Y-9126929D01*
X4381214Y-9184072D01*
X4395500Y-9212643D01*
X4409786Y-9226929D01*
X4438357Y-9241214D01*
X4495500Y-9241214D01*
X4524071Y-9226929D01*
X4538357Y-9212643D01*
X4552643Y-9184072D01*
X4552643Y-9126929D01*
X4538357Y-9098357D01*
X4524071Y-9084072D01*
X4495500Y-9069786D01*
X4738357Y-8941214D02*
X4766928Y-8941214D01*
X4795500Y-8955500D01*
X4809786Y-8969786D01*
X4824071Y-8998357D01*
X4838357Y-9055500D01*
X4838357Y-9126929D01*
X4824071Y-9184072D01*
X4809786Y-9212643D01*
X4795500Y-9226929D01*
X4766928Y-9241214D01*
X4738357Y-9241214D01*
X4709786Y-9226929D01*
X4695500Y-9212643D01*
X4681214Y-9184072D01*
X4666928Y-9126929D01*
X4666928Y-9055500D01*
X4681214Y-8998357D01*
X4695500Y-8969786D01*
X4709786Y-8955500D01*
X4738357Y-8941214D01*
X4966928Y-9241214D02*
X4966928Y-9041214D01*
X4966928Y-9069786D02*
X4981214Y-9055500D01*
X5009786Y-9041214D01*
X5052643Y-9041214D01*
X5081214Y-9055500D01*
X5095500Y-9084072D01*
X5095500Y-9241214D01*
X5095500Y-9084072D02*
X5109786Y-9055500D01*
X5138357Y-9041214D01*
X5181214Y-9041214D01*
X5209786Y-9055500D01*
X5224071Y-9084072D01*
X5224071Y-9241214D01*
X5366928Y-9241214D02*
X5366928Y-9041214D01*
X5366928Y-9069786D02*
X5381214Y-9055500D01*
X5409786Y-9041214D01*
X5452643Y-9041214D01*
X5481214Y-9055500D01*
X5495500Y-9084072D01*
X5495500Y-9241214D01*
X5495500Y-9084072D02*
X5509786Y-9055500D01*
X5538357Y-9041214D01*
X5581214Y-9041214D01*
X5609786Y-9055500D01*
X5624071Y-9084072D01*
X5624071Y-9241214D01*
X6209786Y-8926929D02*
X5952643Y-9312643D01*
X6595500Y-8941214D02*
X6624071Y-8941214D01*
X6652643Y-8955500D01*
X6666928Y-8969786D01*
X6681214Y-8998357D01*
X6695500Y-9055500D01*
X6695500Y-9126929D01*
X6681214Y-9184072D01*
X6666928Y-9212643D01*
X6652643Y-9226929D01*
X6624071Y-9241214D01*
X6595500Y-9241214D01*
X6566928Y-9226929D01*
X6552643Y-9212643D01*
X6538357Y-9184072D01*
X6524071Y-9126929D01*
X6524071Y-9055500D01*
X6538357Y-8998357D01*
X6552643Y-8969786D01*
X6566928Y-8955500D01*
X6595500Y-8941214D01*
X6824071Y-9212643D02*
X6838357Y-9226929D01*
X6824071Y-9241214D01*
X6809786Y-9226929D01*
X6824071Y-9212643D01*
X6824071Y-9241214D01*
X7024071Y-8941214D02*
X7052643Y-8941214D01*
X7081214Y-8955500D01*
X7095500Y-8969786D01*
X7109786Y-8998357D01*
X7124071Y-9055500D01*
X7124071Y-9126929D01*
X7109786Y-9184072D01*
X7095500Y-9212643D01*
X7081214Y-9226929D01*
X7052643Y-9241214D01*
X7024071Y-9241214D01*
X6995500Y-9226929D01*
X6981214Y-9212643D01*
X6966928Y-9184072D01*
X6952643Y-9126929D01*
X6952643Y-9055500D01*
X6966928Y-8998357D01*
X6981214Y-8969786D01*
X6995500Y-8955500D01*
X7024071Y-8941214D01*
X7224071Y-8941214D02*
X7409786Y-8941214D01*
X7309786Y-9055500D01*
X7352643Y-9055500D01*
X7381214Y-9069786D01*
X7395500Y-9084072D01*
X7409786Y-9112643D01*
X7409786Y-9184072D01*
X7395500Y-9212643D01*
X7381214Y-9226929D01*
X7352643Y-9241214D01*
X7266928Y-9241214D01*
X7238357Y-9226929D01*
X7224071Y-9212643D01*
X7695500Y-9241214D02*
X7524071Y-9241214D01*
X7609786Y-9241214D02*
X7609786Y-8941214D01*
X7581214Y-8984072D01*
X7552643Y-9012643D01*
X7524071Y-9026929D01*
X7809786Y-8941214D02*
X7809786Y-8998357D01*
X7924071Y-8941214D02*
X7924071Y-8998357D01*
X8366928Y-9355500D02*
X8352643Y-9341214D01*
X8324071Y-9298357D01*
X8309786Y-9269786D01*
X8295500Y-9226929D01*
X8281214Y-9155500D01*
X8281214Y-9098357D01*
X8295500Y-9026929D01*
X8309786Y-8984072D01*
X8324071Y-8955500D01*
X8352643Y-8912643D01*
X8366928Y-8898357D01*
X8524071Y-9069786D02*
X8495500Y-9055500D01*
X8481214Y-9041214D01*
X8466928Y-9012643D01*
X8466928Y-8998357D01*
X8481214Y-8969786D01*
X8495500Y-8955500D01*
X8524071Y-8941214D01*
X8581214Y-8941214D01*
X8609786Y-8955500D01*
X8624071Y-8969786D01*
X8638357Y-8998357D01*
X8638357Y-9012643D01*
X8624071Y-9041214D01*
X8609786Y-9055500D01*
X8581214Y-9069786D01*
X8524071Y-9069786D01*
X8495500Y-9084072D01*
X8481214Y-9098357D01*
X8466928Y-9126929D01*
X8466928Y-9184072D01*
X8481214Y-9212643D01*
X8495500Y-9226929D01*
X8524071Y-9241214D01*
X8581214Y-9241214D01*
X8609786Y-9226929D01*
X8624071Y-9212643D01*
X8638357Y-9184072D01*
X8638357Y-9126929D01*
X8624071Y-9098357D01*
X8609786Y-9084072D01*
X8581214Y-9069786D01*
X8895500Y-9041214D02*
X8895500Y-9241214D01*
X8824071Y-8926929D02*
X8752643Y-9141214D01*
X8938357Y-9141214D01*
X9281214Y-9241214D02*
X9281214Y-8941214D01*
X9409786Y-9241214D02*
X9409786Y-9084072D01*
X9395500Y-9055500D01*
X9366928Y-9041214D01*
X9324071Y-9041214D01*
X9295500Y-9055500D01*
X9281214Y-9069786D01*
X9595500Y-9241214D02*
X9566928Y-9226929D01*
X9552643Y-9212643D01*
X9538357Y-9184072D01*
X9538357Y-9098357D01*
X9552643Y-9069786D01*
X9566928Y-9055500D01*
X9595500Y-9041214D01*
X9638357Y-9041214D01*
X9666928Y-9055500D01*
X9681214Y-9069786D01*
X9695500Y-9098357D01*
X9695500Y-9184072D01*
X9681214Y-9212643D01*
X9666928Y-9226929D01*
X9638357Y-9241214D01*
X9595500Y-9241214D01*
X9866928Y-9241214D02*
X9838357Y-9226929D01*
X9824071Y-9198357D01*
X9824071Y-8941214D01*
X10095500Y-9226929D02*
X10066928Y-9241214D01*
X10009786Y-9241214D01*
X9981214Y-9226929D01*
X9966928Y-9198357D01*
X9966928Y-9084072D01*
X9981214Y-9055500D01*
X10009786Y-9041214D01*
X10066928Y-9041214D01*
X10095500Y-9055500D01*
X10109786Y-9084072D01*
X10109786Y-9112643D01*
X9966928Y-9141214D01*
X10224071Y-9226929D02*
X10252643Y-9241214D01*
X10309786Y-9241214D01*
X10338357Y-9226929D01*
X10352643Y-9198357D01*
X10352643Y-9184072D01*
X10338357Y-9155500D01*
X10309786Y-9141214D01*
X10266928Y-9141214D01*
X10238357Y-9126929D01*
X10224071Y-9098357D01*
X10224071Y-9084072D01*
X10238357Y-9055500D01*
X10266928Y-9041214D01*
X10309786Y-9041214D01*
X10338357Y-9055500D01*
X10452643Y-9355500D02*
X10466928Y-9341214D01*
X10495500Y-9298357D01*
X10509786Y-9269786D01*
X10524071Y-9226929D01*
X10538357Y-9155500D01*
X10538357Y-9098357D01*
X10524071Y-9026929D01*
X10509786Y-8984072D01*
X10495500Y-8955500D01*
X10466928Y-8912643D01*
X10452643Y-8898357D01*
M02*
