%FSLAX45Y45*%
G04 Gerber Fmt 4.5, Leading zero omitted, Abs format (unit mm)*
G04 Created by KiCad (PCBNEW (5.1.4)-1) date 2020-01-28 22:58:38*
%MOMM*%
%LPD*%
G04 APERTURE LIST*
%ADD10C,0.050000*%
%ADD11C,0.200000*%
%ADD12C,0.300000*%
G04 APERTURE END LIST*
D10*
X3683000Y-7747000D02*
X3683000Y-2413000D01*
X8382000Y-7747000D02*
X3683000Y-7747000D01*
X8382000Y-2413000D02*
X8382000Y-7747000D01*
X3683000Y-2413000D02*
X8382000Y-2413000D01*
D11*
D12*
X3966928Y-8215214D02*
X3966928Y-7915214D01*
X4038357Y-7915214D01*
X4081214Y-7929500D01*
X4109786Y-7958071D01*
X4124071Y-7986643D01*
X4138357Y-8043786D01*
X4138357Y-8086643D01*
X4124071Y-8143786D01*
X4109786Y-8172357D01*
X4081214Y-8200929D01*
X4038357Y-8215214D01*
X3966928Y-8215214D01*
X4266928Y-8215214D02*
X4266928Y-8015214D01*
X4266928Y-8072357D02*
X4281214Y-8043786D01*
X4295500Y-8029500D01*
X4324071Y-8015214D01*
X4352643Y-8015214D01*
X4452643Y-8215214D02*
X4452643Y-8015214D01*
X4452643Y-7915214D02*
X4438357Y-7929500D01*
X4452643Y-7943786D01*
X4466928Y-7929500D01*
X4452643Y-7915214D01*
X4452643Y-7943786D01*
X4638357Y-8215214D02*
X4609786Y-8200929D01*
X4595500Y-8172357D01*
X4595500Y-7915214D01*
X4795500Y-8215214D02*
X4766928Y-8200929D01*
X4752643Y-8172357D01*
X4752643Y-7915214D01*
X5138357Y-8215214D02*
X5138357Y-7915214D01*
X5238357Y-8129500D01*
X5338357Y-7915214D01*
X5338357Y-8215214D01*
X5609786Y-8215214D02*
X5609786Y-8058071D01*
X5595500Y-8029500D01*
X5566928Y-8015214D01*
X5509786Y-8015214D01*
X5481214Y-8029500D01*
X5609786Y-8200929D02*
X5581214Y-8215214D01*
X5509786Y-8215214D01*
X5481214Y-8200929D01*
X5466928Y-8172357D01*
X5466928Y-8143786D01*
X5481214Y-8115214D01*
X5509786Y-8100929D01*
X5581214Y-8100929D01*
X5609786Y-8086643D01*
X5752643Y-8015214D02*
X5752643Y-8315214D01*
X5752643Y-8029500D02*
X5781214Y-8015214D01*
X5838357Y-8015214D01*
X5866928Y-8029500D01*
X5881214Y-8043786D01*
X5895500Y-8072357D01*
X5895500Y-8158071D01*
X5881214Y-8186643D01*
X5866928Y-8200929D01*
X5838357Y-8215214D01*
X5781214Y-8215214D01*
X5752643Y-8200929D01*
X6024071Y-8186643D02*
X6038357Y-8200929D01*
X6024071Y-8215214D01*
X6009786Y-8200929D01*
X6024071Y-8186643D01*
X6024071Y-8215214D01*
X6024071Y-8029500D02*
X6038357Y-8043786D01*
X6024071Y-8058071D01*
X6009786Y-8043786D01*
X6024071Y-8029500D01*
X6024071Y-8058071D01*
M02*
