G04 #@! TF.GenerationSoftware,KiCad,Pcbnew,(5.1.4)-1*
G04 #@! TF.CreationDate,2020-01-28T22:58:31+09:00*
G04 #@! TF.ProjectId,PLCC2DIP40,504c4343-3244-4495-9034-302e6b696361,rev?*
G04 #@! TF.SameCoordinates,Original*
G04 #@! TF.FileFunction,Copper,L2,Bot*
G04 #@! TF.FilePolarity,Positive*
%FSLAX46Y46*%
G04 Gerber Fmt 4.6, Leading zero omitted, Abs format (unit mm)*
G04 Created by KiCad (PCBNEW (5.1.4)-1) date 2020-01-28 22:58:31*
%MOMM*%
%LPD*%
G04 APERTURE LIST*
%ADD10R,2.400000X1.600000*%
%ADD11O,2.400000X1.600000*%
%ADD12R,1.422400X1.422400*%
%ADD13C,1.422400*%
%ADD14C,0.800000*%
%ADD15C,0.250000*%
%ADD16C,0.254000*%
G04 APERTURE END LIST*
D10*
X39370000Y-26670000D03*
D11*
X54610000Y-74930000D03*
X39370000Y-29210000D03*
X54610000Y-72390000D03*
X39370000Y-31750000D03*
X54610000Y-69850000D03*
X39370000Y-34290000D03*
X54610000Y-67310000D03*
X39370000Y-36830000D03*
X54610000Y-64770000D03*
X39370000Y-39370000D03*
X54610000Y-62230000D03*
X39370000Y-41910000D03*
X54610000Y-59690000D03*
X39370000Y-44450000D03*
X54610000Y-57150000D03*
X39370000Y-46990000D03*
X54610000Y-54610000D03*
X39370000Y-49530000D03*
X54610000Y-52070000D03*
X39370000Y-52070000D03*
X54610000Y-49530000D03*
X39370000Y-54610000D03*
X54610000Y-46990000D03*
X39370000Y-57150000D03*
X54610000Y-44450000D03*
X39370000Y-59690000D03*
X54610000Y-41910000D03*
X39370000Y-62230000D03*
X54610000Y-39370000D03*
X39370000Y-64770000D03*
X54610000Y-36830000D03*
X39370000Y-67310000D03*
X54610000Y-34290000D03*
X39370000Y-69850000D03*
X54610000Y-31750000D03*
X39370000Y-72390000D03*
X54610000Y-29210000D03*
X39370000Y-74930000D03*
X54610000Y-26670000D03*
D12*
X71120000Y-43180000D03*
D13*
X68580000Y-43180000D03*
X66040000Y-43180000D03*
X73660000Y-43180000D03*
X76200000Y-43180000D03*
X68580000Y-40640000D03*
X66040000Y-40640000D03*
X63500000Y-40640000D03*
X71120000Y-40640000D03*
X73660000Y-40640000D03*
X63500000Y-43180000D03*
X63500000Y-45720000D03*
X63500000Y-48260000D03*
X63500000Y-50800000D03*
X63500000Y-53340000D03*
X60960000Y-43180000D03*
X60960000Y-45720000D03*
X60960000Y-48260000D03*
X60960000Y-50800000D03*
X60960000Y-53340000D03*
X60960000Y-55880000D03*
X63500000Y-55880000D03*
X66040000Y-55880000D03*
X68580000Y-55880000D03*
X71120000Y-55880000D03*
X73660000Y-55880000D03*
X78740000Y-55880000D03*
X63500000Y-58420000D03*
X66040000Y-58420000D03*
X68580000Y-58420000D03*
X71120000Y-58420000D03*
X73660000Y-58420000D03*
X76200000Y-58420000D03*
X76200000Y-55880000D03*
X76200000Y-53340000D03*
X76200000Y-50800000D03*
X76200000Y-48260000D03*
X76200000Y-45720000D03*
X76200000Y-40640000D03*
X78740000Y-53340000D03*
X78740000Y-50800000D03*
X78740000Y-48260000D03*
X78740000Y-45720000D03*
X78740000Y-43180000D03*
D14*
X69850000Y-72390000D03*
X69850000Y-69850000D03*
X76200000Y-67310000D03*
X76200000Y-67310000D03*
X78740000Y-64770000D03*
X74930000Y-62230000D03*
X45720000Y-58420000D03*
X69850000Y-54610000D03*
X50800000Y-59690000D03*
X58420000Y-55880000D03*
X73660000Y-48260000D03*
X71120000Y-50800000D03*
X43180000Y-54610000D03*
X50800000Y-52070000D03*
X50800000Y-49530000D03*
X50800000Y-46990000D03*
X41910000Y-40640000D03*
X50800000Y-39370000D03*
X50800000Y-36830000D03*
X50800000Y-34290000D03*
X50800000Y-31750000D03*
X50800000Y-29210000D03*
X66040000Y-33020000D03*
X67310000Y-30480000D03*
X64770000Y-35560000D03*
X59690000Y-39370000D03*
X50800000Y-63500000D03*
X50800000Y-63500000D03*
X50800000Y-67310000D03*
X50800000Y-73660000D03*
X58420000Y-63500000D03*
X58420000Y-71120000D03*
X63500000Y-60960000D03*
X68580000Y-27940000D03*
X71120000Y-45720000D03*
X63500000Y-71120000D03*
X78740000Y-38100000D03*
X76200000Y-36830000D03*
X74930000Y-34290000D03*
X74930000Y-34290000D03*
X60960000Y-68580000D03*
X73660000Y-31750000D03*
X72390000Y-29210000D03*
D15*
X69850000Y-72390000D02*
X54610000Y-72390000D01*
X69850000Y-69850000D02*
X54610000Y-69850000D01*
X76200000Y-67310000D02*
X54610000Y-67310000D01*
X54610000Y-64770000D02*
X78740000Y-64770000D01*
X74930000Y-62230000D02*
X54610000Y-62230000D01*
X63500000Y-43180000D02*
X62230000Y-44450000D01*
X62230000Y-44450000D02*
X57150000Y-44450000D01*
X57150000Y-44450000D02*
X55880000Y-43180000D01*
X55880000Y-43180000D02*
X43180000Y-43180000D01*
X41910000Y-41910000D02*
X39370000Y-41910000D01*
X43180000Y-43180000D02*
X41910000Y-41910000D01*
X54610000Y-59690000D02*
X76463578Y-59690000D01*
X76463578Y-59690000D02*
X77470000Y-58683578D01*
X77470000Y-54610000D02*
X78740000Y-53340000D01*
X77470000Y-58683578D02*
X77470000Y-54610000D01*
X76200000Y-53340000D02*
X66040000Y-53340000D01*
X66040000Y-53340000D02*
X64770000Y-54610000D01*
X64770000Y-54610000D02*
X64770000Y-57150000D01*
X64770000Y-57150000D02*
X54610000Y-57150000D01*
X63500000Y-45720000D02*
X62230000Y-46990000D01*
X62230000Y-46990000D02*
X57150000Y-46990000D01*
X57150000Y-46990000D02*
X55880000Y-45720000D01*
X55880000Y-45720000D02*
X43180000Y-45720000D01*
X43180000Y-45720000D02*
X41910000Y-46990000D01*
X41910000Y-46990000D02*
X39370000Y-46990000D01*
X78740000Y-50800000D02*
X77470000Y-49530000D01*
X77470000Y-49530000D02*
X74930000Y-49530000D01*
X74930000Y-49530000D02*
X73660000Y-48260000D01*
X73660000Y-48260000D02*
X71120000Y-50800000D01*
X73660000Y-48260000D02*
X73660000Y-48260000D01*
X71120000Y-50800000D02*
X71120000Y-50800000D01*
X55186014Y-53484990D02*
X43035010Y-53484990D01*
X56601004Y-52070000D02*
X55186014Y-53484990D01*
X63500000Y-50800000D02*
X62230000Y-52070000D01*
X62230000Y-52070000D02*
X56601004Y-52070000D01*
X41910000Y-54610000D02*
X39370000Y-54610000D01*
X43035010Y-53484990D02*
X41910000Y-54610000D01*
X63500000Y-53340000D02*
X62230000Y-54610000D01*
X62230000Y-54610000D02*
X57150000Y-54610000D01*
X55735010Y-56024990D02*
X45575010Y-56024990D01*
X57150000Y-54610000D02*
X55735010Y-56024990D01*
X41910000Y-59690000D02*
X39370000Y-59690000D01*
X45575010Y-56024990D02*
X41910000Y-59690000D01*
X54610000Y-41910000D02*
X64770000Y-41910000D01*
X64770000Y-41910000D02*
X64770000Y-44450000D01*
X76200000Y-45720000D02*
X74930000Y-44450000D01*
X74930000Y-44450000D02*
X64770000Y-44450000D01*
X78740000Y-38100000D02*
X58420000Y-38100000D01*
X58420000Y-38100000D02*
X57150000Y-39370000D01*
X57150000Y-39370000D02*
X54610000Y-39370000D01*
X63500000Y-58420000D02*
X48260000Y-58420000D01*
X41910000Y-64770000D02*
X39370000Y-64770000D01*
X48260000Y-58420000D02*
X41910000Y-64770000D01*
X76200000Y-36830000D02*
X54610000Y-36830000D01*
X54610000Y-34290000D02*
X74930000Y-34290000D01*
X60960000Y-68580000D02*
X43180000Y-68580000D01*
X41910000Y-69850000D02*
X39370000Y-69850000D01*
X43180000Y-68580000D02*
X41910000Y-69850000D01*
X73660000Y-31750000D02*
X54610000Y-31750000D01*
X72390000Y-29210000D02*
X54610000Y-29210000D01*
D16*
G36*
X83160001Y-76810000D02*
G01*
X37490000Y-76810000D01*
X37490000Y-29210000D01*
X37528057Y-29210000D01*
X37555764Y-29491309D01*
X37637818Y-29761808D01*
X37771068Y-30011101D01*
X37950392Y-30229608D01*
X38168899Y-30408932D01*
X38301858Y-30480000D01*
X38168899Y-30551068D01*
X37950392Y-30730392D01*
X37771068Y-30948899D01*
X37637818Y-31198192D01*
X37555764Y-31468691D01*
X37528057Y-31750000D01*
X37555764Y-32031309D01*
X37637818Y-32301808D01*
X37771068Y-32551101D01*
X37950392Y-32769608D01*
X38168899Y-32948932D01*
X38301858Y-33020000D01*
X38168899Y-33091068D01*
X37950392Y-33270392D01*
X37771068Y-33488899D01*
X37637818Y-33738192D01*
X37555764Y-34008691D01*
X37528057Y-34290000D01*
X37555764Y-34571309D01*
X37637818Y-34841808D01*
X37771068Y-35091101D01*
X37950392Y-35309608D01*
X38168899Y-35488932D01*
X38301858Y-35560000D01*
X38168899Y-35631068D01*
X37950392Y-35810392D01*
X37771068Y-36028899D01*
X37637818Y-36278192D01*
X37555764Y-36548691D01*
X37528057Y-36830000D01*
X37555764Y-37111309D01*
X37637818Y-37381808D01*
X37771068Y-37631101D01*
X37950392Y-37849608D01*
X38168899Y-38028932D01*
X38301858Y-38100000D01*
X38168899Y-38171068D01*
X37950392Y-38350392D01*
X37771068Y-38568899D01*
X37637818Y-38818192D01*
X37555764Y-39088691D01*
X37528057Y-39370000D01*
X37555764Y-39651309D01*
X37637818Y-39921808D01*
X37771068Y-40171101D01*
X37950392Y-40389608D01*
X38168899Y-40568932D01*
X38301858Y-40640000D01*
X38168899Y-40711068D01*
X37950392Y-40890392D01*
X37771068Y-41108899D01*
X37637818Y-41358192D01*
X37555764Y-41628691D01*
X37528057Y-41910000D01*
X37555764Y-42191309D01*
X37637818Y-42461808D01*
X37771068Y-42711101D01*
X37950392Y-42929608D01*
X38168899Y-43108932D01*
X38301858Y-43180000D01*
X38168899Y-43251068D01*
X37950392Y-43430392D01*
X37771068Y-43648899D01*
X37637818Y-43898192D01*
X37555764Y-44168691D01*
X37528057Y-44450000D01*
X37555764Y-44731309D01*
X37637818Y-45001808D01*
X37771068Y-45251101D01*
X37950392Y-45469608D01*
X38168899Y-45648932D01*
X38301858Y-45720000D01*
X38168899Y-45791068D01*
X37950392Y-45970392D01*
X37771068Y-46188899D01*
X37637818Y-46438192D01*
X37555764Y-46708691D01*
X37528057Y-46990000D01*
X37555764Y-47271309D01*
X37637818Y-47541808D01*
X37771068Y-47791101D01*
X37950392Y-48009608D01*
X38168899Y-48188932D01*
X38301858Y-48260000D01*
X38168899Y-48331068D01*
X37950392Y-48510392D01*
X37771068Y-48728899D01*
X37637818Y-48978192D01*
X37555764Y-49248691D01*
X37528057Y-49530000D01*
X37555764Y-49811309D01*
X37637818Y-50081808D01*
X37771068Y-50331101D01*
X37950392Y-50549608D01*
X38168899Y-50728932D01*
X38301858Y-50800000D01*
X38168899Y-50871068D01*
X37950392Y-51050392D01*
X37771068Y-51268899D01*
X37637818Y-51518192D01*
X37555764Y-51788691D01*
X37528057Y-52070000D01*
X37555764Y-52351309D01*
X37637818Y-52621808D01*
X37771068Y-52871101D01*
X37950392Y-53089608D01*
X38168899Y-53268932D01*
X38301858Y-53340000D01*
X38168899Y-53411068D01*
X37950392Y-53590392D01*
X37771068Y-53808899D01*
X37637818Y-54058192D01*
X37555764Y-54328691D01*
X37528057Y-54610000D01*
X37555764Y-54891309D01*
X37637818Y-55161808D01*
X37771068Y-55411101D01*
X37950392Y-55629608D01*
X38168899Y-55808932D01*
X38301858Y-55880000D01*
X38168899Y-55951068D01*
X37950392Y-56130392D01*
X37771068Y-56348899D01*
X37637818Y-56598192D01*
X37555764Y-56868691D01*
X37528057Y-57150000D01*
X37555764Y-57431309D01*
X37637818Y-57701808D01*
X37771068Y-57951101D01*
X37950392Y-58169608D01*
X38168899Y-58348932D01*
X38301858Y-58420000D01*
X38168899Y-58491068D01*
X37950392Y-58670392D01*
X37771068Y-58888899D01*
X37637818Y-59138192D01*
X37555764Y-59408691D01*
X37528057Y-59690000D01*
X37555764Y-59971309D01*
X37637818Y-60241808D01*
X37771068Y-60491101D01*
X37950392Y-60709608D01*
X38168899Y-60888932D01*
X38301858Y-60960000D01*
X38168899Y-61031068D01*
X37950392Y-61210392D01*
X37771068Y-61428899D01*
X37637818Y-61678192D01*
X37555764Y-61948691D01*
X37528057Y-62230000D01*
X37555764Y-62511309D01*
X37637818Y-62781808D01*
X37771068Y-63031101D01*
X37950392Y-63249608D01*
X38168899Y-63428932D01*
X38301858Y-63500000D01*
X38168899Y-63571068D01*
X37950392Y-63750392D01*
X37771068Y-63968899D01*
X37637818Y-64218192D01*
X37555764Y-64488691D01*
X37528057Y-64770000D01*
X37555764Y-65051309D01*
X37637818Y-65321808D01*
X37771068Y-65571101D01*
X37950392Y-65789608D01*
X38168899Y-65968932D01*
X38301858Y-66040000D01*
X38168899Y-66111068D01*
X37950392Y-66290392D01*
X37771068Y-66508899D01*
X37637818Y-66758192D01*
X37555764Y-67028691D01*
X37528057Y-67310000D01*
X37555764Y-67591309D01*
X37637818Y-67861808D01*
X37771068Y-68111101D01*
X37950392Y-68329608D01*
X38168899Y-68508932D01*
X38301858Y-68580000D01*
X38168899Y-68651068D01*
X37950392Y-68830392D01*
X37771068Y-69048899D01*
X37637818Y-69298192D01*
X37555764Y-69568691D01*
X37528057Y-69850000D01*
X37555764Y-70131309D01*
X37637818Y-70401808D01*
X37771068Y-70651101D01*
X37950392Y-70869608D01*
X38168899Y-71048932D01*
X38301858Y-71120000D01*
X38168899Y-71191068D01*
X37950392Y-71370392D01*
X37771068Y-71588899D01*
X37637818Y-71838192D01*
X37555764Y-72108691D01*
X37528057Y-72390000D01*
X37555764Y-72671309D01*
X37637818Y-72941808D01*
X37771068Y-73191101D01*
X37950392Y-73409608D01*
X38168899Y-73588932D01*
X38301858Y-73660000D01*
X38168899Y-73731068D01*
X37950392Y-73910392D01*
X37771068Y-74128899D01*
X37637818Y-74378192D01*
X37555764Y-74648691D01*
X37528057Y-74930000D01*
X37555764Y-75211309D01*
X37637818Y-75481808D01*
X37771068Y-75731101D01*
X37950392Y-75949608D01*
X38168899Y-76128932D01*
X38418192Y-76262182D01*
X38688691Y-76344236D01*
X38899508Y-76365000D01*
X39840492Y-76365000D01*
X40051309Y-76344236D01*
X40321808Y-76262182D01*
X40571101Y-76128932D01*
X40789608Y-75949608D01*
X40968932Y-75731101D01*
X41102182Y-75481808D01*
X41184236Y-75211309D01*
X41211943Y-74930000D01*
X41184236Y-74648691D01*
X41102182Y-74378192D01*
X40968932Y-74128899D01*
X40789608Y-73910392D01*
X40571101Y-73731068D01*
X40438142Y-73660000D01*
X40571101Y-73588932D01*
X40789608Y-73409608D01*
X40968932Y-73191101D01*
X41102182Y-72941808D01*
X41184236Y-72671309D01*
X41211943Y-72390000D01*
X41184236Y-72108691D01*
X41102182Y-71838192D01*
X40968932Y-71588899D01*
X40789608Y-71370392D01*
X40571101Y-71191068D01*
X40438142Y-71120000D01*
X40571101Y-71048932D01*
X40789608Y-70869608D01*
X40968932Y-70651101D01*
X40990901Y-70610000D01*
X41872678Y-70610000D01*
X41910000Y-70613676D01*
X41947322Y-70610000D01*
X41947333Y-70610000D01*
X42058986Y-70599003D01*
X42202247Y-70555546D01*
X42334276Y-70484974D01*
X42450001Y-70390001D01*
X42473804Y-70360997D01*
X43494802Y-69340000D01*
X52865136Y-69340000D01*
X52795764Y-69568691D01*
X52768057Y-69850000D01*
X52795764Y-70131309D01*
X52877818Y-70401808D01*
X53011068Y-70651101D01*
X53190392Y-70869608D01*
X53408899Y-71048932D01*
X53541858Y-71120000D01*
X53408899Y-71191068D01*
X53190392Y-71370392D01*
X53011068Y-71588899D01*
X52877818Y-71838192D01*
X52795764Y-72108691D01*
X52768057Y-72390000D01*
X52795764Y-72671309D01*
X52877818Y-72941808D01*
X53011068Y-73191101D01*
X53190392Y-73409608D01*
X53408899Y-73588932D01*
X53541858Y-73660000D01*
X53408899Y-73731068D01*
X53190392Y-73910392D01*
X53011068Y-74128899D01*
X52877818Y-74378192D01*
X52795764Y-74648691D01*
X52768057Y-74930000D01*
X52795764Y-75211309D01*
X52877818Y-75481808D01*
X53011068Y-75731101D01*
X53190392Y-75949608D01*
X53408899Y-76128932D01*
X53658192Y-76262182D01*
X53928691Y-76344236D01*
X54139508Y-76365000D01*
X55080492Y-76365000D01*
X55291309Y-76344236D01*
X55561808Y-76262182D01*
X55811101Y-76128932D01*
X56029608Y-75949608D01*
X56208932Y-75731101D01*
X56342182Y-75481808D01*
X56424236Y-75211309D01*
X56451943Y-74930000D01*
X56424236Y-74648691D01*
X56342182Y-74378192D01*
X56208932Y-74128899D01*
X56029608Y-73910392D01*
X55811101Y-73731068D01*
X55678142Y-73660000D01*
X55811101Y-73588932D01*
X56029608Y-73409608D01*
X56208932Y-73191101D01*
X56230901Y-73150000D01*
X69146289Y-73150000D01*
X69190226Y-73193937D01*
X69359744Y-73307205D01*
X69548102Y-73385226D01*
X69748061Y-73425000D01*
X69951939Y-73425000D01*
X70151898Y-73385226D01*
X70340256Y-73307205D01*
X70509774Y-73193937D01*
X70653937Y-73049774D01*
X70767205Y-72880256D01*
X70845226Y-72691898D01*
X70885000Y-72491939D01*
X70885000Y-72288061D01*
X70845226Y-72088102D01*
X70767205Y-71899744D01*
X70653937Y-71730226D01*
X70509774Y-71586063D01*
X70340256Y-71472795D01*
X70151898Y-71394774D01*
X69951939Y-71355000D01*
X69748061Y-71355000D01*
X69548102Y-71394774D01*
X69359744Y-71472795D01*
X69190226Y-71586063D01*
X69146289Y-71630000D01*
X56230901Y-71630000D01*
X56208932Y-71588899D01*
X56029608Y-71370392D01*
X55811101Y-71191068D01*
X55678142Y-71120000D01*
X55811101Y-71048932D01*
X56029608Y-70869608D01*
X56208932Y-70651101D01*
X56230901Y-70610000D01*
X69146289Y-70610000D01*
X69190226Y-70653937D01*
X69359744Y-70767205D01*
X69548102Y-70845226D01*
X69748061Y-70885000D01*
X69951939Y-70885000D01*
X70151898Y-70845226D01*
X70340256Y-70767205D01*
X70509774Y-70653937D01*
X70653937Y-70509774D01*
X70767205Y-70340256D01*
X70845226Y-70151898D01*
X70885000Y-69951939D01*
X70885000Y-69748061D01*
X70845226Y-69548102D01*
X70767205Y-69359744D01*
X70653937Y-69190226D01*
X70509774Y-69046063D01*
X70340256Y-68932795D01*
X70151898Y-68854774D01*
X69951939Y-68815000D01*
X69748061Y-68815000D01*
X69548102Y-68854774D01*
X69359744Y-68932795D01*
X69190226Y-69046063D01*
X69146289Y-69090000D01*
X61864013Y-69090000D01*
X61877205Y-69070256D01*
X61955226Y-68881898D01*
X61995000Y-68681939D01*
X61995000Y-68478061D01*
X61955226Y-68278102D01*
X61877205Y-68089744D01*
X61864013Y-68070000D01*
X75496289Y-68070000D01*
X75540226Y-68113937D01*
X75709744Y-68227205D01*
X75898102Y-68305226D01*
X76098061Y-68345000D01*
X76301939Y-68345000D01*
X76501898Y-68305226D01*
X76690256Y-68227205D01*
X76859774Y-68113937D01*
X77003937Y-67969774D01*
X77117205Y-67800256D01*
X77195226Y-67611898D01*
X77235000Y-67411939D01*
X77235000Y-67208061D01*
X77195226Y-67008102D01*
X77117205Y-66819744D01*
X77003937Y-66650226D01*
X76859774Y-66506063D01*
X76690256Y-66392795D01*
X76501898Y-66314774D01*
X76301939Y-66275000D01*
X76098061Y-66275000D01*
X75898102Y-66314774D01*
X75709744Y-66392795D01*
X75540226Y-66506063D01*
X75496289Y-66550000D01*
X56230901Y-66550000D01*
X56208932Y-66508899D01*
X56029608Y-66290392D01*
X55811101Y-66111068D01*
X55678142Y-66040000D01*
X55811101Y-65968932D01*
X56029608Y-65789608D01*
X56208932Y-65571101D01*
X56230901Y-65530000D01*
X78036289Y-65530000D01*
X78080226Y-65573937D01*
X78249744Y-65687205D01*
X78438102Y-65765226D01*
X78638061Y-65805000D01*
X78841939Y-65805000D01*
X79041898Y-65765226D01*
X79230256Y-65687205D01*
X79399774Y-65573937D01*
X79543937Y-65429774D01*
X79657205Y-65260256D01*
X79735226Y-65071898D01*
X79775000Y-64871939D01*
X79775000Y-64668061D01*
X79735226Y-64468102D01*
X79657205Y-64279744D01*
X79543937Y-64110226D01*
X79399774Y-63966063D01*
X79230256Y-63852795D01*
X79041898Y-63774774D01*
X78841939Y-63735000D01*
X78638061Y-63735000D01*
X78438102Y-63774774D01*
X78249744Y-63852795D01*
X78080226Y-63966063D01*
X78036289Y-64010000D01*
X56230901Y-64010000D01*
X56208932Y-63968899D01*
X56029608Y-63750392D01*
X55811101Y-63571068D01*
X55678142Y-63500000D01*
X55811101Y-63428932D01*
X56029608Y-63249608D01*
X56208932Y-63031101D01*
X56230901Y-62990000D01*
X74226289Y-62990000D01*
X74270226Y-63033937D01*
X74439744Y-63147205D01*
X74628102Y-63225226D01*
X74828061Y-63265000D01*
X75031939Y-63265000D01*
X75231898Y-63225226D01*
X75420256Y-63147205D01*
X75589774Y-63033937D01*
X75733937Y-62889774D01*
X75847205Y-62720256D01*
X75925226Y-62531898D01*
X75965000Y-62331939D01*
X75965000Y-62128061D01*
X75925226Y-61928102D01*
X75847205Y-61739744D01*
X75733937Y-61570226D01*
X75589774Y-61426063D01*
X75420256Y-61312795D01*
X75231898Y-61234774D01*
X75031939Y-61195000D01*
X74828061Y-61195000D01*
X74628102Y-61234774D01*
X74439744Y-61312795D01*
X74270226Y-61426063D01*
X74226289Y-61470000D01*
X56230901Y-61470000D01*
X56208932Y-61428899D01*
X56029608Y-61210392D01*
X55811101Y-61031068D01*
X55678142Y-60960000D01*
X55811101Y-60888932D01*
X56029608Y-60709608D01*
X56208932Y-60491101D01*
X56230901Y-60450000D01*
X76426256Y-60450000D01*
X76463578Y-60453676D01*
X76500900Y-60450000D01*
X76500911Y-60450000D01*
X76612564Y-60439003D01*
X76755825Y-60395546D01*
X76887854Y-60324974D01*
X77003579Y-60230001D01*
X77027382Y-60200998D01*
X77981004Y-59247376D01*
X78010001Y-59223579D01*
X78104974Y-59107854D01*
X78175546Y-58975825D01*
X78219003Y-58832564D01*
X78230000Y-58720911D01*
X78230000Y-58720903D01*
X78233676Y-58683578D01*
X78230000Y-58646253D01*
X78230000Y-57125868D01*
X78347328Y-57174467D01*
X78607411Y-57226200D01*
X78872589Y-57226200D01*
X79132672Y-57174467D01*
X79377665Y-57072987D01*
X79598153Y-56925662D01*
X79785662Y-56738153D01*
X79932987Y-56517665D01*
X80034467Y-56272672D01*
X80086200Y-56012589D01*
X80086200Y-55747411D01*
X80034467Y-55487328D01*
X79932987Y-55242335D01*
X79785662Y-55021847D01*
X79598153Y-54834338D01*
X79377665Y-54687013D01*
X79191740Y-54610000D01*
X79377665Y-54532987D01*
X79598153Y-54385662D01*
X79785662Y-54198153D01*
X79932987Y-53977665D01*
X80034467Y-53732672D01*
X80086200Y-53472589D01*
X80086200Y-53207411D01*
X80034467Y-52947328D01*
X79932987Y-52702335D01*
X79785662Y-52481847D01*
X79598153Y-52294338D01*
X79377665Y-52147013D01*
X79189400Y-52069031D01*
X79325280Y-52019542D01*
X79428848Y-51964183D01*
X79489668Y-51729273D01*
X78740000Y-50979605D01*
X77990332Y-51729273D01*
X78051152Y-51964183D01*
X78282934Y-52072206D01*
X78102335Y-52147013D01*
X77881847Y-52294338D01*
X77694338Y-52481847D01*
X77547013Y-52702335D01*
X77470000Y-52888260D01*
X77392987Y-52702335D01*
X77245662Y-52481847D01*
X77058153Y-52294338D01*
X76837665Y-52147013D01*
X76651740Y-52070000D01*
X76837665Y-51992987D01*
X77058153Y-51845662D01*
X77245662Y-51658153D01*
X77392987Y-51437665D01*
X77470969Y-51249400D01*
X77520458Y-51385280D01*
X77575817Y-51488848D01*
X77810727Y-51549668D01*
X78560395Y-50800000D01*
X78919605Y-50800000D01*
X79669273Y-51549668D01*
X79904183Y-51488848D01*
X80016202Y-51248491D01*
X80079176Y-50990898D01*
X80090687Y-50725970D01*
X80050291Y-50463887D01*
X79959542Y-50214720D01*
X79904183Y-50111152D01*
X79669273Y-50050332D01*
X78919605Y-50800000D01*
X78560395Y-50800000D01*
X77810727Y-50050332D01*
X77575817Y-50111152D01*
X77467794Y-50342934D01*
X77392987Y-50162335D01*
X77245662Y-49941847D01*
X77058153Y-49754338D01*
X76837665Y-49607013D01*
X76651740Y-49530000D01*
X76837665Y-49452987D01*
X77058153Y-49305662D01*
X77245662Y-49118153D01*
X77392987Y-48897665D01*
X77470000Y-48711740D01*
X77547013Y-48897665D01*
X77694338Y-49118153D01*
X77881847Y-49305662D01*
X78102335Y-49452987D01*
X78290600Y-49530969D01*
X78154720Y-49580458D01*
X78051152Y-49635817D01*
X77990332Y-49870727D01*
X78740000Y-50620395D01*
X79489668Y-49870727D01*
X79428848Y-49635817D01*
X79197066Y-49527794D01*
X79377665Y-49452987D01*
X79598153Y-49305662D01*
X79785662Y-49118153D01*
X79932987Y-48897665D01*
X80034467Y-48652672D01*
X80086200Y-48392589D01*
X80086200Y-48127411D01*
X80034467Y-47867328D01*
X79932987Y-47622335D01*
X79785662Y-47401847D01*
X79598153Y-47214338D01*
X79377665Y-47067013D01*
X79191740Y-46990000D01*
X79377665Y-46912987D01*
X79598153Y-46765662D01*
X79785662Y-46578153D01*
X79932987Y-46357665D01*
X80034467Y-46112672D01*
X80086200Y-45852589D01*
X80086200Y-45587411D01*
X80034467Y-45327328D01*
X79932987Y-45082335D01*
X79785662Y-44861847D01*
X79598153Y-44674338D01*
X79377665Y-44527013D01*
X79191740Y-44450000D01*
X79377665Y-44372987D01*
X79598153Y-44225662D01*
X79785662Y-44038153D01*
X79932987Y-43817665D01*
X80034467Y-43572672D01*
X80086200Y-43312589D01*
X80086200Y-43047411D01*
X80034467Y-42787328D01*
X79932987Y-42542335D01*
X79785662Y-42321847D01*
X79598153Y-42134338D01*
X79377665Y-41987013D01*
X79132672Y-41885533D01*
X78872589Y-41833800D01*
X78607411Y-41833800D01*
X78347328Y-41885533D01*
X78102335Y-41987013D01*
X77881847Y-42134338D01*
X77694338Y-42321847D01*
X77547013Y-42542335D01*
X77470000Y-42728260D01*
X77392987Y-42542335D01*
X77245662Y-42321847D01*
X77058153Y-42134338D01*
X76837665Y-41987013D01*
X76651740Y-41910000D01*
X76837665Y-41832987D01*
X77058153Y-41685662D01*
X77245662Y-41498153D01*
X77392987Y-41277665D01*
X77494467Y-41032672D01*
X77546200Y-40772589D01*
X77546200Y-40507411D01*
X77494467Y-40247328D01*
X77392987Y-40002335D01*
X77245662Y-39781847D01*
X77058153Y-39594338D01*
X76837665Y-39447013D01*
X76592672Y-39345533D01*
X76332589Y-39293800D01*
X76067411Y-39293800D01*
X75807328Y-39345533D01*
X75562335Y-39447013D01*
X75341847Y-39594338D01*
X75154338Y-39781847D01*
X75007013Y-40002335D01*
X74930000Y-40188260D01*
X74852987Y-40002335D01*
X74705662Y-39781847D01*
X74518153Y-39594338D01*
X74297665Y-39447013D01*
X74052672Y-39345533D01*
X73792589Y-39293800D01*
X73527411Y-39293800D01*
X73267328Y-39345533D01*
X73022335Y-39447013D01*
X72801847Y-39594338D01*
X72614338Y-39781847D01*
X72467013Y-40002335D01*
X72390000Y-40188260D01*
X72312987Y-40002335D01*
X72165662Y-39781847D01*
X71978153Y-39594338D01*
X71757665Y-39447013D01*
X71512672Y-39345533D01*
X71252589Y-39293800D01*
X70987411Y-39293800D01*
X70727328Y-39345533D01*
X70482335Y-39447013D01*
X70261847Y-39594338D01*
X70074338Y-39781847D01*
X69927013Y-40002335D01*
X69850000Y-40188260D01*
X69772987Y-40002335D01*
X69625662Y-39781847D01*
X69438153Y-39594338D01*
X69217665Y-39447013D01*
X68972672Y-39345533D01*
X68712589Y-39293800D01*
X68447411Y-39293800D01*
X68187328Y-39345533D01*
X67942335Y-39447013D01*
X67721847Y-39594338D01*
X67534338Y-39781847D01*
X67387013Y-40002335D01*
X67310000Y-40188260D01*
X67232987Y-40002335D01*
X67085662Y-39781847D01*
X66898153Y-39594338D01*
X66677665Y-39447013D01*
X66432672Y-39345533D01*
X66172589Y-39293800D01*
X65907411Y-39293800D01*
X65647328Y-39345533D01*
X65402335Y-39447013D01*
X65181847Y-39594338D01*
X64994338Y-39781847D01*
X64847013Y-40002335D01*
X64770000Y-40188260D01*
X64692987Y-40002335D01*
X64545662Y-39781847D01*
X64358153Y-39594338D01*
X64137665Y-39447013D01*
X63892672Y-39345533D01*
X63632589Y-39293800D01*
X63367411Y-39293800D01*
X63107328Y-39345533D01*
X62862335Y-39447013D01*
X62641847Y-39594338D01*
X62454338Y-39781847D01*
X62307013Y-40002335D01*
X62205533Y-40247328D01*
X62153800Y-40507411D01*
X62153800Y-40772589D01*
X62205533Y-41032672D01*
X62254132Y-41150000D01*
X56230901Y-41150000D01*
X56208932Y-41108899D01*
X56029608Y-40890392D01*
X55811101Y-40711068D01*
X55678142Y-40640000D01*
X55811101Y-40568932D01*
X56029608Y-40389608D01*
X56208932Y-40171101D01*
X56230901Y-40130000D01*
X57112678Y-40130000D01*
X57150000Y-40133676D01*
X57187322Y-40130000D01*
X57187333Y-40130000D01*
X57298986Y-40119003D01*
X57442247Y-40075546D01*
X57574276Y-40004974D01*
X57690001Y-39910001D01*
X57713804Y-39880997D01*
X58734802Y-38860000D01*
X78036289Y-38860000D01*
X78080226Y-38903937D01*
X78249744Y-39017205D01*
X78438102Y-39095226D01*
X78638061Y-39135000D01*
X78841939Y-39135000D01*
X79041898Y-39095226D01*
X79230256Y-39017205D01*
X79399774Y-38903937D01*
X79543937Y-38759774D01*
X79657205Y-38590256D01*
X79735226Y-38401898D01*
X79775000Y-38201939D01*
X79775000Y-37998061D01*
X79735226Y-37798102D01*
X79657205Y-37609744D01*
X79543937Y-37440226D01*
X79399774Y-37296063D01*
X79230256Y-37182795D01*
X79041898Y-37104774D01*
X78841939Y-37065000D01*
X78638061Y-37065000D01*
X78438102Y-37104774D01*
X78249744Y-37182795D01*
X78080226Y-37296063D01*
X78036289Y-37340000D01*
X77104013Y-37340000D01*
X77117205Y-37320256D01*
X77195226Y-37131898D01*
X77235000Y-36931939D01*
X77235000Y-36728061D01*
X77195226Y-36528102D01*
X77117205Y-36339744D01*
X77003937Y-36170226D01*
X76859774Y-36026063D01*
X76690256Y-35912795D01*
X76501898Y-35834774D01*
X76301939Y-35795000D01*
X76098061Y-35795000D01*
X75898102Y-35834774D01*
X75709744Y-35912795D01*
X75540226Y-36026063D01*
X75496289Y-36070000D01*
X56230901Y-36070000D01*
X56208932Y-36028899D01*
X56029608Y-35810392D01*
X55811101Y-35631068D01*
X55678142Y-35560000D01*
X55811101Y-35488932D01*
X56029608Y-35309608D01*
X56208932Y-35091101D01*
X56230901Y-35050000D01*
X74226289Y-35050000D01*
X74270226Y-35093937D01*
X74439744Y-35207205D01*
X74628102Y-35285226D01*
X74828061Y-35325000D01*
X75031939Y-35325000D01*
X75231898Y-35285226D01*
X75420256Y-35207205D01*
X75589774Y-35093937D01*
X75733937Y-34949774D01*
X75847205Y-34780256D01*
X75925226Y-34591898D01*
X75965000Y-34391939D01*
X75965000Y-34188061D01*
X75925226Y-33988102D01*
X75847205Y-33799744D01*
X75733937Y-33630226D01*
X75589774Y-33486063D01*
X75420256Y-33372795D01*
X75231898Y-33294774D01*
X75031939Y-33255000D01*
X74828061Y-33255000D01*
X74628102Y-33294774D01*
X74439744Y-33372795D01*
X74270226Y-33486063D01*
X74226289Y-33530000D01*
X56230901Y-33530000D01*
X56208932Y-33488899D01*
X56029608Y-33270392D01*
X55811101Y-33091068D01*
X55678142Y-33020000D01*
X55811101Y-32948932D01*
X56029608Y-32769608D01*
X56208932Y-32551101D01*
X56230901Y-32510000D01*
X72956289Y-32510000D01*
X73000226Y-32553937D01*
X73169744Y-32667205D01*
X73358102Y-32745226D01*
X73558061Y-32785000D01*
X73761939Y-32785000D01*
X73961898Y-32745226D01*
X74150256Y-32667205D01*
X74319774Y-32553937D01*
X74463937Y-32409774D01*
X74577205Y-32240256D01*
X74655226Y-32051898D01*
X74695000Y-31851939D01*
X74695000Y-31648061D01*
X74655226Y-31448102D01*
X74577205Y-31259744D01*
X74463937Y-31090226D01*
X74319774Y-30946063D01*
X74150256Y-30832795D01*
X73961898Y-30754774D01*
X73761939Y-30715000D01*
X73558061Y-30715000D01*
X73358102Y-30754774D01*
X73169744Y-30832795D01*
X73000226Y-30946063D01*
X72956289Y-30990000D01*
X56230901Y-30990000D01*
X56208932Y-30948899D01*
X56029608Y-30730392D01*
X55811101Y-30551068D01*
X55678142Y-30480000D01*
X55811101Y-30408932D01*
X56029608Y-30229608D01*
X56208932Y-30011101D01*
X56230901Y-29970000D01*
X71686289Y-29970000D01*
X71730226Y-30013937D01*
X71899744Y-30127205D01*
X72088102Y-30205226D01*
X72288061Y-30245000D01*
X72491939Y-30245000D01*
X72691898Y-30205226D01*
X72880256Y-30127205D01*
X73049774Y-30013937D01*
X73193937Y-29869774D01*
X73307205Y-29700256D01*
X73385226Y-29511898D01*
X73425000Y-29311939D01*
X73425000Y-29108061D01*
X73385226Y-28908102D01*
X73307205Y-28719744D01*
X73193937Y-28550226D01*
X73049774Y-28406063D01*
X72880256Y-28292795D01*
X72691898Y-28214774D01*
X72491939Y-28175000D01*
X72288061Y-28175000D01*
X72088102Y-28214774D01*
X71899744Y-28292795D01*
X71730226Y-28406063D01*
X71686289Y-28450000D01*
X56230901Y-28450000D01*
X56208932Y-28408899D01*
X56029608Y-28190392D01*
X55811101Y-28011068D01*
X55678142Y-27940000D01*
X55811101Y-27868932D01*
X56029608Y-27689608D01*
X56208932Y-27471101D01*
X56342182Y-27221808D01*
X56424236Y-26951309D01*
X56451943Y-26670000D01*
X56424236Y-26388691D01*
X56342182Y-26118192D01*
X56208932Y-25868899D01*
X56029608Y-25650392D01*
X55811101Y-25471068D01*
X55561808Y-25337818D01*
X55291309Y-25255764D01*
X55080492Y-25235000D01*
X54139508Y-25235000D01*
X53928691Y-25255764D01*
X53658192Y-25337818D01*
X53408899Y-25471068D01*
X53190392Y-25650392D01*
X53011068Y-25868899D01*
X52877818Y-26118192D01*
X52795764Y-26388691D01*
X52768057Y-26670000D01*
X52795764Y-26951309D01*
X52877818Y-27221808D01*
X53011068Y-27471101D01*
X53190392Y-27689608D01*
X53408899Y-27868932D01*
X53541858Y-27940000D01*
X53408899Y-28011068D01*
X53190392Y-28190392D01*
X53011068Y-28408899D01*
X52877818Y-28658192D01*
X52795764Y-28928691D01*
X52768057Y-29210000D01*
X52795764Y-29491309D01*
X52877818Y-29761808D01*
X53011068Y-30011101D01*
X53190392Y-30229608D01*
X53408899Y-30408932D01*
X53541858Y-30480000D01*
X53408899Y-30551068D01*
X53190392Y-30730392D01*
X53011068Y-30948899D01*
X52877818Y-31198192D01*
X52795764Y-31468691D01*
X52768057Y-31750000D01*
X52795764Y-32031309D01*
X52877818Y-32301808D01*
X53011068Y-32551101D01*
X53190392Y-32769608D01*
X53408899Y-32948932D01*
X53541858Y-33020000D01*
X53408899Y-33091068D01*
X53190392Y-33270392D01*
X53011068Y-33488899D01*
X52877818Y-33738192D01*
X52795764Y-34008691D01*
X52768057Y-34290000D01*
X52795764Y-34571309D01*
X52877818Y-34841808D01*
X53011068Y-35091101D01*
X53190392Y-35309608D01*
X53408899Y-35488932D01*
X53541858Y-35560000D01*
X53408899Y-35631068D01*
X53190392Y-35810392D01*
X53011068Y-36028899D01*
X52877818Y-36278192D01*
X52795764Y-36548691D01*
X52768057Y-36830000D01*
X52795764Y-37111309D01*
X52877818Y-37381808D01*
X53011068Y-37631101D01*
X53190392Y-37849608D01*
X53408899Y-38028932D01*
X53541858Y-38100000D01*
X53408899Y-38171068D01*
X53190392Y-38350392D01*
X53011068Y-38568899D01*
X52877818Y-38818192D01*
X52795764Y-39088691D01*
X52768057Y-39370000D01*
X52795764Y-39651309D01*
X52877818Y-39921808D01*
X53011068Y-40171101D01*
X53190392Y-40389608D01*
X53408899Y-40568932D01*
X53541858Y-40640000D01*
X53408899Y-40711068D01*
X53190392Y-40890392D01*
X53011068Y-41108899D01*
X52877818Y-41358192D01*
X52795764Y-41628691D01*
X52768057Y-41910000D01*
X52795764Y-42191309D01*
X52865136Y-42420000D01*
X43494802Y-42420000D01*
X42473804Y-41399003D01*
X42450001Y-41369999D01*
X42334276Y-41275026D01*
X42202247Y-41204454D01*
X42058986Y-41160997D01*
X41947333Y-41150000D01*
X41947322Y-41150000D01*
X41910000Y-41146324D01*
X41872678Y-41150000D01*
X40990901Y-41150000D01*
X40968932Y-41108899D01*
X40789608Y-40890392D01*
X40571101Y-40711068D01*
X40438142Y-40640000D01*
X40571101Y-40568932D01*
X40789608Y-40389608D01*
X40968932Y-40171101D01*
X41102182Y-39921808D01*
X41184236Y-39651309D01*
X41211943Y-39370000D01*
X41184236Y-39088691D01*
X41102182Y-38818192D01*
X40968932Y-38568899D01*
X40789608Y-38350392D01*
X40571101Y-38171068D01*
X40438142Y-38100000D01*
X40571101Y-38028932D01*
X40789608Y-37849608D01*
X40968932Y-37631101D01*
X41102182Y-37381808D01*
X41184236Y-37111309D01*
X41211943Y-36830000D01*
X41184236Y-36548691D01*
X41102182Y-36278192D01*
X40968932Y-36028899D01*
X40789608Y-35810392D01*
X40571101Y-35631068D01*
X40438142Y-35560000D01*
X40571101Y-35488932D01*
X40789608Y-35309608D01*
X40968932Y-35091101D01*
X41102182Y-34841808D01*
X41184236Y-34571309D01*
X41211943Y-34290000D01*
X41184236Y-34008691D01*
X41102182Y-33738192D01*
X40968932Y-33488899D01*
X40789608Y-33270392D01*
X40571101Y-33091068D01*
X40438142Y-33020000D01*
X40571101Y-32948932D01*
X40789608Y-32769608D01*
X40968932Y-32551101D01*
X41102182Y-32301808D01*
X41184236Y-32031309D01*
X41211943Y-31750000D01*
X41184236Y-31468691D01*
X41102182Y-31198192D01*
X40968932Y-30948899D01*
X40789608Y-30730392D01*
X40571101Y-30551068D01*
X40438142Y-30480000D01*
X40571101Y-30408932D01*
X40789608Y-30229608D01*
X40968932Y-30011101D01*
X41102182Y-29761808D01*
X41184236Y-29491309D01*
X41211943Y-29210000D01*
X41184236Y-28928691D01*
X41102182Y-28658192D01*
X40968932Y-28408899D01*
X40789608Y-28190392D01*
X40676518Y-28097581D01*
X40694482Y-28095812D01*
X40814180Y-28059502D01*
X40924494Y-28000537D01*
X41021185Y-27921185D01*
X41100537Y-27824494D01*
X41159502Y-27714180D01*
X41195812Y-27594482D01*
X41208072Y-27470000D01*
X41208072Y-25870000D01*
X41195812Y-25745518D01*
X41159502Y-25625820D01*
X41100537Y-25515506D01*
X41021185Y-25418815D01*
X40924494Y-25339463D01*
X40814180Y-25280498D01*
X40694482Y-25244188D01*
X40570000Y-25231928D01*
X38170000Y-25231928D01*
X38045518Y-25244188D01*
X37925820Y-25280498D01*
X37815506Y-25339463D01*
X37718815Y-25418815D01*
X37639463Y-25515506D01*
X37580498Y-25625820D01*
X37544188Y-25745518D01*
X37531928Y-25870000D01*
X37531928Y-27470000D01*
X37544188Y-27594482D01*
X37580498Y-27714180D01*
X37639463Y-27824494D01*
X37718815Y-27921185D01*
X37815506Y-28000537D01*
X37925820Y-28059502D01*
X38045518Y-28095812D01*
X38063482Y-28097581D01*
X37950392Y-28190392D01*
X37771068Y-28408899D01*
X37637818Y-28658192D01*
X37555764Y-28928691D01*
X37528057Y-29210000D01*
X37490000Y-29210000D01*
X37490000Y-24790000D01*
X83160000Y-24790000D01*
X83160001Y-76810000D01*
X83160001Y-76810000D01*
G37*
X83160001Y-76810000D02*
X37490000Y-76810000D01*
X37490000Y-29210000D01*
X37528057Y-29210000D01*
X37555764Y-29491309D01*
X37637818Y-29761808D01*
X37771068Y-30011101D01*
X37950392Y-30229608D01*
X38168899Y-30408932D01*
X38301858Y-30480000D01*
X38168899Y-30551068D01*
X37950392Y-30730392D01*
X37771068Y-30948899D01*
X37637818Y-31198192D01*
X37555764Y-31468691D01*
X37528057Y-31750000D01*
X37555764Y-32031309D01*
X37637818Y-32301808D01*
X37771068Y-32551101D01*
X37950392Y-32769608D01*
X38168899Y-32948932D01*
X38301858Y-33020000D01*
X38168899Y-33091068D01*
X37950392Y-33270392D01*
X37771068Y-33488899D01*
X37637818Y-33738192D01*
X37555764Y-34008691D01*
X37528057Y-34290000D01*
X37555764Y-34571309D01*
X37637818Y-34841808D01*
X37771068Y-35091101D01*
X37950392Y-35309608D01*
X38168899Y-35488932D01*
X38301858Y-35560000D01*
X38168899Y-35631068D01*
X37950392Y-35810392D01*
X37771068Y-36028899D01*
X37637818Y-36278192D01*
X37555764Y-36548691D01*
X37528057Y-36830000D01*
X37555764Y-37111309D01*
X37637818Y-37381808D01*
X37771068Y-37631101D01*
X37950392Y-37849608D01*
X38168899Y-38028932D01*
X38301858Y-38100000D01*
X38168899Y-38171068D01*
X37950392Y-38350392D01*
X37771068Y-38568899D01*
X37637818Y-38818192D01*
X37555764Y-39088691D01*
X37528057Y-39370000D01*
X37555764Y-39651309D01*
X37637818Y-39921808D01*
X37771068Y-40171101D01*
X37950392Y-40389608D01*
X38168899Y-40568932D01*
X38301858Y-40640000D01*
X38168899Y-40711068D01*
X37950392Y-40890392D01*
X37771068Y-41108899D01*
X37637818Y-41358192D01*
X37555764Y-41628691D01*
X37528057Y-41910000D01*
X37555764Y-42191309D01*
X37637818Y-42461808D01*
X37771068Y-42711101D01*
X37950392Y-42929608D01*
X38168899Y-43108932D01*
X38301858Y-43180000D01*
X38168899Y-43251068D01*
X37950392Y-43430392D01*
X37771068Y-43648899D01*
X37637818Y-43898192D01*
X37555764Y-44168691D01*
X37528057Y-44450000D01*
X37555764Y-44731309D01*
X37637818Y-45001808D01*
X37771068Y-45251101D01*
X37950392Y-45469608D01*
X38168899Y-45648932D01*
X38301858Y-45720000D01*
X38168899Y-45791068D01*
X37950392Y-45970392D01*
X37771068Y-46188899D01*
X37637818Y-46438192D01*
X37555764Y-46708691D01*
X37528057Y-46990000D01*
X37555764Y-47271309D01*
X37637818Y-47541808D01*
X37771068Y-47791101D01*
X37950392Y-48009608D01*
X38168899Y-48188932D01*
X38301858Y-48260000D01*
X38168899Y-48331068D01*
X37950392Y-48510392D01*
X37771068Y-48728899D01*
X37637818Y-48978192D01*
X37555764Y-49248691D01*
X37528057Y-49530000D01*
X37555764Y-49811309D01*
X37637818Y-50081808D01*
X37771068Y-50331101D01*
X37950392Y-50549608D01*
X38168899Y-50728932D01*
X38301858Y-50800000D01*
X38168899Y-50871068D01*
X37950392Y-51050392D01*
X37771068Y-51268899D01*
X37637818Y-51518192D01*
X37555764Y-51788691D01*
X37528057Y-52070000D01*
X37555764Y-52351309D01*
X37637818Y-52621808D01*
X37771068Y-52871101D01*
X37950392Y-53089608D01*
X38168899Y-53268932D01*
X38301858Y-53340000D01*
X38168899Y-53411068D01*
X37950392Y-53590392D01*
X37771068Y-53808899D01*
X37637818Y-54058192D01*
X37555764Y-54328691D01*
X37528057Y-54610000D01*
X37555764Y-54891309D01*
X37637818Y-55161808D01*
X37771068Y-55411101D01*
X37950392Y-55629608D01*
X38168899Y-55808932D01*
X38301858Y-55880000D01*
X38168899Y-55951068D01*
X37950392Y-56130392D01*
X37771068Y-56348899D01*
X37637818Y-56598192D01*
X37555764Y-56868691D01*
X37528057Y-57150000D01*
X37555764Y-57431309D01*
X37637818Y-57701808D01*
X37771068Y-57951101D01*
X37950392Y-58169608D01*
X38168899Y-58348932D01*
X38301858Y-58420000D01*
X38168899Y-58491068D01*
X37950392Y-58670392D01*
X37771068Y-58888899D01*
X37637818Y-59138192D01*
X37555764Y-59408691D01*
X37528057Y-59690000D01*
X37555764Y-59971309D01*
X37637818Y-60241808D01*
X37771068Y-60491101D01*
X37950392Y-60709608D01*
X38168899Y-60888932D01*
X38301858Y-60960000D01*
X38168899Y-61031068D01*
X37950392Y-61210392D01*
X37771068Y-61428899D01*
X37637818Y-61678192D01*
X37555764Y-61948691D01*
X37528057Y-62230000D01*
X37555764Y-62511309D01*
X37637818Y-62781808D01*
X37771068Y-63031101D01*
X37950392Y-63249608D01*
X38168899Y-63428932D01*
X38301858Y-63500000D01*
X38168899Y-63571068D01*
X37950392Y-63750392D01*
X37771068Y-63968899D01*
X37637818Y-64218192D01*
X37555764Y-64488691D01*
X37528057Y-64770000D01*
X37555764Y-65051309D01*
X37637818Y-65321808D01*
X37771068Y-65571101D01*
X37950392Y-65789608D01*
X38168899Y-65968932D01*
X38301858Y-66040000D01*
X38168899Y-66111068D01*
X37950392Y-66290392D01*
X37771068Y-66508899D01*
X37637818Y-66758192D01*
X37555764Y-67028691D01*
X37528057Y-67310000D01*
X37555764Y-67591309D01*
X37637818Y-67861808D01*
X37771068Y-68111101D01*
X37950392Y-68329608D01*
X38168899Y-68508932D01*
X38301858Y-68580000D01*
X38168899Y-68651068D01*
X37950392Y-68830392D01*
X37771068Y-69048899D01*
X37637818Y-69298192D01*
X37555764Y-69568691D01*
X37528057Y-69850000D01*
X37555764Y-70131309D01*
X37637818Y-70401808D01*
X37771068Y-70651101D01*
X37950392Y-70869608D01*
X38168899Y-71048932D01*
X38301858Y-71120000D01*
X38168899Y-71191068D01*
X37950392Y-71370392D01*
X37771068Y-71588899D01*
X37637818Y-71838192D01*
X37555764Y-72108691D01*
X37528057Y-72390000D01*
X37555764Y-72671309D01*
X37637818Y-72941808D01*
X37771068Y-73191101D01*
X37950392Y-73409608D01*
X38168899Y-73588932D01*
X38301858Y-73660000D01*
X38168899Y-73731068D01*
X37950392Y-73910392D01*
X37771068Y-74128899D01*
X37637818Y-74378192D01*
X37555764Y-74648691D01*
X37528057Y-74930000D01*
X37555764Y-75211309D01*
X37637818Y-75481808D01*
X37771068Y-75731101D01*
X37950392Y-75949608D01*
X38168899Y-76128932D01*
X38418192Y-76262182D01*
X38688691Y-76344236D01*
X38899508Y-76365000D01*
X39840492Y-76365000D01*
X40051309Y-76344236D01*
X40321808Y-76262182D01*
X40571101Y-76128932D01*
X40789608Y-75949608D01*
X40968932Y-75731101D01*
X41102182Y-75481808D01*
X41184236Y-75211309D01*
X41211943Y-74930000D01*
X41184236Y-74648691D01*
X41102182Y-74378192D01*
X40968932Y-74128899D01*
X40789608Y-73910392D01*
X40571101Y-73731068D01*
X40438142Y-73660000D01*
X40571101Y-73588932D01*
X40789608Y-73409608D01*
X40968932Y-73191101D01*
X41102182Y-72941808D01*
X41184236Y-72671309D01*
X41211943Y-72390000D01*
X41184236Y-72108691D01*
X41102182Y-71838192D01*
X40968932Y-71588899D01*
X40789608Y-71370392D01*
X40571101Y-71191068D01*
X40438142Y-71120000D01*
X40571101Y-71048932D01*
X40789608Y-70869608D01*
X40968932Y-70651101D01*
X40990901Y-70610000D01*
X41872678Y-70610000D01*
X41910000Y-70613676D01*
X41947322Y-70610000D01*
X41947333Y-70610000D01*
X42058986Y-70599003D01*
X42202247Y-70555546D01*
X42334276Y-70484974D01*
X42450001Y-70390001D01*
X42473804Y-70360997D01*
X43494802Y-69340000D01*
X52865136Y-69340000D01*
X52795764Y-69568691D01*
X52768057Y-69850000D01*
X52795764Y-70131309D01*
X52877818Y-70401808D01*
X53011068Y-70651101D01*
X53190392Y-70869608D01*
X53408899Y-71048932D01*
X53541858Y-71120000D01*
X53408899Y-71191068D01*
X53190392Y-71370392D01*
X53011068Y-71588899D01*
X52877818Y-71838192D01*
X52795764Y-72108691D01*
X52768057Y-72390000D01*
X52795764Y-72671309D01*
X52877818Y-72941808D01*
X53011068Y-73191101D01*
X53190392Y-73409608D01*
X53408899Y-73588932D01*
X53541858Y-73660000D01*
X53408899Y-73731068D01*
X53190392Y-73910392D01*
X53011068Y-74128899D01*
X52877818Y-74378192D01*
X52795764Y-74648691D01*
X52768057Y-74930000D01*
X52795764Y-75211309D01*
X52877818Y-75481808D01*
X53011068Y-75731101D01*
X53190392Y-75949608D01*
X53408899Y-76128932D01*
X53658192Y-76262182D01*
X53928691Y-76344236D01*
X54139508Y-76365000D01*
X55080492Y-76365000D01*
X55291309Y-76344236D01*
X55561808Y-76262182D01*
X55811101Y-76128932D01*
X56029608Y-75949608D01*
X56208932Y-75731101D01*
X56342182Y-75481808D01*
X56424236Y-75211309D01*
X56451943Y-74930000D01*
X56424236Y-74648691D01*
X56342182Y-74378192D01*
X56208932Y-74128899D01*
X56029608Y-73910392D01*
X55811101Y-73731068D01*
X55678142Y-73660000D01*
X55811101Y-73588932D01*
X56029608Y-73409608D01*
X56208932Y-73191101D01*
X56230901Y-73150000D01*
X69146289Y-73150000D01*
X69190226Y-73193937D01*
X69359744Y-73307205D01*
X69548102Y-73385226D01*
X69748061Y-73425000D01*
X69951939Y-73425000D01*
X70151898Y-73385226D01*
X70340256Y-73307205D01*
X70509774Y-73193937D01*
X70653937Y-73049774D01*
X70767205Y-72880256D01*
X70845226Y-72691898D01*
X70885000Y-72491939D01*
X70885000Y-72288061D01*
X70845226Y-72088102D01*
X70767205Y-71899744D01*
X70653937Y-71730226D01*
X70509774Y-71586063D01*
X70340256Y-71472795D01*
X70151898Y-71394774D01*
X69951939Y-71355000D01*
X69748061Y-71355000D01*
X69548102Y-71394774D01*
X69359744Y-71472795D01*
X69190226Y-71586063D01*
X69146289Y-71630000D01*
X56230901Y-71630000D01*
X56208932Y-71588899D01*
X56029608Y-71370392D01*
X55811101Y-71191068D01*
X55678142Y-71120000D01*
X55811101Y-71048932D01*
X56029608Y-70869608D01*
X56208932Y-70651101D01*
X56230901Y-70610000D01*
X69146289Y-70610000D01*
X69190226Y-70653937D01*
X69359744Y-70767205D01*
X69548102Y-70845226D01*
X69748061Y-70885000D01*
X69951939Y-70885000D01*
X70151898Y-70845226D01*
X70340256Y-70767205D01*
X70509774Y-70653937D01*
X70653937Y-70509774D01*
X70767205Y-70340256D01*
X70845226Y-70151898D01*
X70885000Y-69951939D01*
X70885000Y-69748061D01*
X70845226Y-69548102D01*
X70767205Y-69359744D01*
X70653937Y-69190226D01*
X70509774Y-69046063D01*
X70340256Y-68932795D01*
X70151898Y-68854774D01*
X69951939Y-68815000D01*
X69748061Y-68815000D01*
X69548102Y-68854774D01*
X69359744Y-68932795D01*
X69190226Y-69046063D01*
X69146289Y-69090000D01*
X61864013Y-69090000D01*
X61877205Y-69070256D01*
X61955226Y-68881898D01*
X61995000Y-68681939D01*
X61995000Y-68478061D01*
X61955226Y-68278102D01*
X61877205Y-68089744D01*
X61864013Y-68070000D01*
X75496289Y-68070000D01*
X75540226Y-68113937D01*
X75709744Y-68227205D01*
X75898102Y-68305226D01*
X76098061Y-68345000D01*
X76301939Y-68345000D01*
X76501898Y-68305226D01*
X76690256Y-68227205D01*
X76859774Y-68113937D01*
X77003937Y-67969774D01*
X77117205Y-67800256D01*
X77195226Y-67611898D01*
X77235000Y-67411939D01*
X77235000Y-67208061D01*
X77195226Y-67008102D01*
X77117205Y-66819744D01*
X77003937Y-66650226D01*
X76859774Y-66506063D01*
X76690256Y-66392795D01*
X76501898Y-66314774D01*
X76301939Y-66275000D01*
X76098061Y-66275000D01*
X75898102Y-66314774D01*
X75709744Y-66392795D01*
X75540226Y-66506063D01*
X75496289Y-66550000D01*
X56230901Y-66550000D01*
X56208932Y-66508899D01*
X56029608Y-66290392D01*
X55811101Y-66111068D01*
X55678142Y-66040000D01*
X55811101Y-65968932D01*
X56029608Y-65789608D01*
X56208932Y-65571101D01*
X56230901Y-65530000D01*
X78036289Y-65530000D01*
X78080226Y-65573937D01*
X78249744Y-65687205D01*
X78438102Y-65765226D01*
X78638061Y-65805000D01*
X78841939Y-65805000D01*
X79041898Y-65765226D01*
X79230256Y-65687205D01*
X79399774Y-65573937D01*
X79543937Y-65429774D01*
X79657205Y-65260256D01*
X79735226Y-65071898D01*
X79775000Y-64871939D01*
X79775000Y-64668061D01*
X79735226Y-64468102D01*
X79657205Y-64279744D01*
X79543937Y-64110226D01*
X79399774Y-63966063D01*
X79230256Y-63852795D01*
X79041898Y-63774774D01*
X78841939Y-63735000D01*
X78638061Y-63735000D01*
X78438102Y-63774774D01*
X78249744Y-63852795D01*
X78080226Y-63966063D01*
X78036289Y-64010000D01*
X56230901Y-64010000D01*
X56208932Y-63968899D01*
X56029608Y-63750392D01*
X55811101Y-63571068D01*
X55678142Y-63500000D01*
X55811101Y-63428932D01*
X56029608Y-63249608D01*
X56208932Y-63031101D01*
X56230901Y-62990000D01*
X74226289Y-62990000D01*
X74270226Y-63033937D01*
X74439744Y-63147205D01*
X74628102Y-63225226D01*
X74828061Y-63265000D01*
X75031939Y-63265000D01*
X75231898Y-63225226D01*
X75420256Y-63147205D01*
X75589774Y-63033937D01*
X75733937Y-62889774D01*
X75847205Y-62720256D01*
X75925226Y-62531898D01*
X75965000Y-62331939D01*
X75965000Y-62128061D01*
X75925226Y-61928102D01*
X75847205Y-61739744D01*
X75733937Y-61570226D01*
X75589774Y-61426063D01*
X75420256Y-61312795D01*
X75231898Y-61234774D01*
X75031939Y-61195000D01*
X74828061Y-61195000D01*
X74628102Y-61234774D01*
X74439744Y-61312795D01*
X74270226Y-61426063D01*
X74226289Y-61470000D01*
X56230901Y-61470000D01*
X56208932Y-61428899D01*
X56029608Y-61210392D01*
X55811101Y-61031068D01*
X55678142Y-60960000D01*
X55811101Y-60888932D01*
X56029608Y-60709608D01*
X56208932Y-60491101D01*
X56230901Y-60450000D01*
X76426256Y-60450000D01*
X76463578Y-60453676D01*
X76500900Y-60450000D01*
X76500911Y-60450000D01*
X76612564Y-60439003D01*
X76755825Y-60395546D01*
X76887854Y-60324974D01*
X77003579Y-60230001D01*
X77027382Y-60200998D01*
X77981004Y-59247376D01*
X78010001Y-59223579D01*
X78104974Y-59107854D01*
X78175546Y-58975825D01*
X78219003Y-58832564D01*
X78230000Y-58720911D01*
X78230000Y-58720903D01*
X78233676Y-58683578D01*
X78230000Y-58646253D01*
X78230000Y-57125868D01*
X78347328Y-57174467D01*
X78607411Y-57226200D01*
X78872589Y-57226200D01*
X79132672Y-57174467D01*
X79377665Y-57072987D01*
X79598153Y-56925662D01*
X79785662Y-56738153D01*
X79932987Y-56517665D01*
X80034467Y-56272672D01*
X80086200Y-56012589D01*
X80086200Y-55747411D01*
X80034467Y-55487328D01*
X79932987Y-55242335D01*
X79785662Y-55021847D01*
X79598153Y-54834338D01*
X79377665Y-54687013D01*
X79191740Y-54610000D01*
X79377665Y-54532987D01*
X79598153Y-54385662D01*
X79785662Y-54198153D01*
X79932987Y-53977665D01*
X80034467Y-53732672D01*
X80086200Y-53472589D01*
X80086200Y-53207411D01*
X80034467Y-52947328D01*
X79932987Y-52702335D01*
X79785662Y-52481847D01*
X79598153Y-52294338D01*
X79377665Y-52147013D01*
X79189400Y-52069031D01*
X79325280Y-52019542D01*
X79428848Y-51964183D01*
X79489668Y-51729273D01*
X78740000Y-50979605D01*
X77990332Y-51729273D01*
X78051152Y-51964183D01*
X78282934Y-52072206D01*
X78102335Y-52147013D01*
X77881847Y-52294338D01*
X77694338Y-52481847D01*
X77547013Y-52702335D01*
X77470000Y-52888260D01*
X77392987Y-52702335D01*
X77245662Y-52481847D01*
X77058153Y-52294338D01*
X76837665Y-52147013D01*
X76651740Y-52070000D01*
X76837665Y-51992987D01*
X77058153Y-51845662D01*
X77245662Y-51658153D01*
X77392987Y-51437665D01*
X77470969Y-51249400D01*
X77520458Y-51385280D01*
X77575817Y-51488848D01*
X77810727Y-51549668D01*
X78560395Y-50800000D01*
X78919605Y-50800000D01*
X79669273Y-51549668D01*
X79904183Y-51488848D01*
X80016202Y-51248491D01*
X80079176Y-50990898D01*
X80090687Y-50725970D01*
X80050291Y-50463887D01*
X79959542Y-50214720D01*
X79904183Y-50111152D01*
X79669273Y-50050332D01*
X78919605Y-50800000D01*
X78560395Y-50800000D01*
X77810727Y-50050332D01*
X77575817Y-50111152D01*
X77467794Y-50342934D01*
X77392987Y-50162335D01*
X77245662Y-49941847D01*
X77058153Y-49754338D01*
X76837665Y-49607013D01*
X76651740Y-49530000D01*
X76837665Y-49452987D01*
X77058153Y-49305662D01*
X77245662Y-49118153D01*
X77392987Y-48897665D01*
X77470000Y-48711740D01*
X77547013Y-48897665D01*
X77694338Y-49118153D01*
X77881847Y-49305662D01*
X78102335Y-49452987D01*
X78290600Y-49530969D01*
X78154720Y-49580458D01*
X78051152Y-49635817D01*
X77990332Y-49870727D01*
X78740000Y-50620395D01*
X79489668Y-49870727D01*
X79428848Y-49635817D01*
X79197066Y-49527794D01*
X79377665Y-49452987D01*
X79598153Y-49305662D01*
X79785662Y-49118153D01*
X79932987Y-48897665D01*
X80034467Y-48652672D01*
X80086200Y-48392589D01*
X80086200Y-48127411D01*
X80034467Y-47867328D01*
X79932987Y-47622335D01*
X79785662Y-47401847D01*
X79598153Y-47214338D01*
X79377665Y-47067013D01*
X79191740Y-46990000D01*
X79377665Y-46912987D01*
X79598153Y-46765662D01*
X79785662Y-46578153D01*
X79932987Y-46357665D01*
X80034467Y-46112672D01*
X80086200Y-45852589D01*
X80086200Y-45587411D01*
X80034467Y-45327328D01*
X79932987Y-45082335D01*
X79785662Y-44861847D01*
X79598153Y-44674338D01*
X79377665Y-44527013D01*
X79191740Y-44450000D01*
X79377665Y-44372987D01*
X79598153Y-44225662D01*
X79785662Y-44038153D01*
X79932987Y-43817665D01*
X80034467Y-43572672D01*
X80086200Y-43312589D01*
X80086200Y-43047411D01*
X80034467Y-42787328D01*
X79932987Y-42542335D01*
X79785662Y-42321847D01*
X79598153Y-42134338D01*
X79377665Y-41987013D01*
X79132672Y-41885533D01*
X78872589Y-41833800D01*
X78607411Y-41833800D01*
X78347328Y-41885533D01*
X78102335Y-41987013D01*
X77881847Y-42134338D01*
X77694338Y-42321847D01*
X77547013Y-42542335D01*
X77470000Y-42728260D01*
X77392987Y-42542335D01*
X77245662Y-42321847D01*
X77058153Y-42134338D01*
X76837665Y-41987013D01*
X76651740Y-41910000D01*
X76837665Y-41832987D01*
X77058153Y-41685662D01*
X77245662Y-41498153D01*
X77392987Y-41277665D01*
X77494467Y-41032672D01*
X77546200Y-40772589D01*
X77546200Y-40507411D01*
X77494467Y-40247328D01*
X77392987Y-40002335D01*
X77245662Y-39781847D01*
X77058153Y-39594338D01*
X76837665Y-39447013D01*
X76592672Y-39345533D01*
X76332589Y-39293800D01*
X76067411Y-39293800D01*
X75807328Y-39345533D01*
X75562335Y-39447013D01*
X75341847Y-39594338D01*
X75154338Y-39781847D01*
X75007013Y-40002335D01*
X74930000Y-40188260D01*
X74852987Y-40002335D01*
X74705662Y-39781847D01*
X74518153Y-39594338D01*
X74297665Y-39447013D01*
X74052672Y-39345533D01*
X73792589Y-39293800D01*
X73527411Y-39293800D01*
X73267328Y-39345533D01*
X73022335Y-39447013D01*
X72801847Y-39594338D01*
X72614338Y-39781847D01*
X72467013Y-40002335D01*
X72390000Y-40188260D01*
X72312987Y-40002335D01*
X72165662Y-39781847D01*
X71978153Y-39594338D01*
X71757665Y-39447013D01*
X71512672Y-39345533D01*
X71252589Y-39293800D01*
X70987411Y-39293800D01*
X70727328Y-39345533D01*
X70482335Y-39447013D01*
X70261847Y-39594338D01*
X70074338Y-39781847D01*
X69927013Y-40002335D01*
X69850000Y-40188260D01*
X69772987Y-40002335D01*
X69625662Y-39781847D01*
X69438153Y-39594338D01*
X69217665Y-39447013D01*
X68972672Y-39345533D01*
X68712589Y-39293800D01*
X68447411Y-39293800D01*
X68187328Y-39345533D01*
X67942335Y-39447013D01*
X67721847Y-39594338D01*
X67534338Y-39781847D01*
X67387013Y-40002335D01*
X67310000Y-40188260D01*
X67232987Y-40002335D01*
X67085662Y-39781847D01*
X66898153Y-39594338D01*
X66677665Y-39447013D01*
X66432672Y-39345533D01*
X66172589Y-39293800D01*
X65907411Y-39293800D01*
X65647328Y-39345533D01*
X65402335Y-39447013D01*
X65181847Y-39594338D01*
X64994338Y-39781847D01*
X64847013Y-40002335D01*
X64770000Y-40188260D01*
X64692987Y-40002335D01*
X64545662Y-39781847D01*
X64358153Y-39594338D01*
X64137665Y-39447013D01*
X63892672Y-39345533D01*
X63632589Y-39293800D01*
X63367411Y-39293800D01*
X63107328Y-39345533D01*
X62862335Y-39447013D01*
X62641847Y-39594338D01*
X62454338Y-39781847D01*
X62307013Y-40002335D01*
X62205533Y-40247328D01*
X62153800Y-40507411D01*
X62153800Y-40772589D01*
X62205533Y-41032672D01*
X62254132Y-41150000D01*
X56230901Y-41150000D01*
X56208932Y-41108899D01*
X56029608Y-40890392D01*
X55811101Y-40711068D01*
X55678142Y-40640000D01*
X55811101Y-40568932D01*
X56029608Y-40389608D01*
X56208932Y-40171101D01*
X56230901Y-40130000D01*
X57112678Y-40130000D01*
X57150000Y-40133676D01*
X57187322Y-40130000D01*
X57187333Y-40130000D01*
X57298986Y-40119003D01*
X57442247Y-40075546D01*
X57574276Y-40004974D01*
X57690001Y-39910001D01*
X57713804Y-39880997D01*
X58734802Y-38860000D01*
X78036289Y-38860000D01*
X78080226Y-38903937D01*
X78249744Y-39017205D01*
X78438102Y-39095226D01*
X78638061Y-39135000D01*
X78841939Y-39135000D01*
X79041898Y-39095226D01*
X79230256Y-39017205D01*
X79399774Y-38903937D01*
X79543937Y-38759774D01*
X79657205Y-38590256D01*
X79735226Y-38401898D01*
X79775000Y-38201939D01*
X79775000Y-37998061D01*
X79735226Y-37798102D01*
X79657205Y-37609744D01*
X79543937Y-37440226D01*
X79399774Y-37296063D01*
X79230256Y-37182795D01*
X79041898Y-37104774D01*
X78841939Y-37065000D01*
X78638061Y-37065000D01*
X78438102Y-37104774D01*
X78249744Y-37182795D01*
X78080226Y-37296063D01*
X78036289Y-37340000D01*
X77104013Y-37340000D01*
X77117205Y-37320256D01*
X77195226Y-37131898D01*
X77235000Y-36931939D01*
X77235000Y-36728061D01*
X77195226Y-36528102D01*
X77117205Y-36339744D01*
X77003937Y-36170226D01*
X76859774Y-36026063D01*
X76690256Y-35912795D01*
X76501898Y-35834774D01*
X76301939Y-35795000D01*
X76098061Y-35795000D01*
X75898102Y-35834774D01*
X75709744Y-35912795D01*
X75540226Y-36026063D01*
X75496289Y-36070000D01*
X56230901Y-36070000D01*
X56208932Y-36028899D01*
X56029608Y-35810392D01*
X55811101Y-35631068D01*
X55678142Y-35560000D01*
X55811101Y-35488932D01*
X56029608Y-35309608D01*
X56208932Y-35091101D01*
X56230901Y-35050000D01*
X74226289Y-35050000D01*
X74270226Y-35093937D01*
X74439744Y-35207205D01*
X74628102Y-35285226D01*
X74828061Y-35325000D01*
X75031939Y-35325000D01*
X75231898Y-35285226D01*
X75420256Y-35207205D01*
X75589774Y-35093937D01*
X75733937Y-34949774D01*
X75847205Y-34780256D01*
X75925226Y-34591898D01*
X75965000Y-34391939D01*
X75965000Y-34188061D01*
X75925226Y-33988102D01*
X75847205Y-33799744D01*
X75733937Y-33630226D01*
X75589774Y-33486063D01*
X75420256Y-33372795D01*
X75231898Y-33294774D01*
X75031939Y-33255000D01*
X74828061Y-33255000D01*
X74628102Y-33294774D01*
X74439744Y-33372795D01*
X74270226Y-33486063D01*
X74226289Y-33530000D01*
X56230901Y-33530000D01*
X56208932Y-33488899D01*
X56029608Y-33270392D01*
X55811101Y-33091068D01*
X55678142Y-33020000D01*
X55811101Y-32948932D01*
X56029608Y-32769608D01*
X56208932Y-32551101D01*
X56230901Y-32510000D01*
X72956289Y-32510000D01*
X73000226Y-32553937D01*
X73169744Y-32667205D01*
X73358102Y-32745226D01*
X73558061Y-32785000D01*
X73761939Y-32785000D01*
X73961898Y-32745226D01*
X74150256Y-32667205D01*
X74319774Y-32553937D01*
X74463937Y-32409774D01*
X74577205Y-32240256D01*
X74655226Y-32051898D01*
X74695000Y-31851939D01*
X74695000Y-31648061D01*
X74655226Y-31448102D01*
X74577205Y-31259744D01*
X74463937Y-31090226D01*
X74319774Y-30946063D01*
X74150256Y-30832795D01*
X73961898Y-30754774D01*
X73761939Y-30715000D01*
X73558061Y-30715000D01*
X73358102Y-30754774D01*
X73169744Y-30832795D01*
X73000226Y-30946063D01*
X72956289Y-30990000D01*
X56230901Y-30990000D01*
X56208932Y-30948899D01*
X56029608Y-30730392D01*
X55811101Y-30551068D01*
X55678142Y-30480000D01*
X55811101Y-30408932D01*
X56029608Y-30229608D01*
X56208932Y-30011101D01*
X56230901Y-29970000D01*
X71686289Y-29970000D01*
X71730226Y-30013937D01*
X71899744Y-30127205D01*
X72088102Y-30205226D01*
X72288061Y-30245000D01*
X72491939Y-30245000D01*
X72691898Y-30205226D01*
X72880256Y-30127205D01*
X73049774Y-30013937D01*
X73193937Y-29869774D01*
X73307205Y-29700256D01*
X73385226Y-29511898D01*
X73425000Y-29311939D01*
X73425000Y-29108061D01*
X73385226Y-28908102D01*
X73307205Y-28719744D01*
X73193937Y-28550226D01*
X73049774Y-28406063D01*
X72880256Y-28292795D01*
X72691898Y-28214774D01*
X72491939Y-28175000D01*
X72288061Y-28175000D01*
X72088102Y-28214774D01*
X71899744Y-28292795D01*
X71730226Y-28406063D01*
X71686289Y-28450000D01*
X56230901Y-28450000D01*
X56208932Y-28408899D01*
X56029608Y-28190392D01*
X55811101Y-28011068D01*
X55678142Y-27940000D01*
X55811101Y-27868932D01*
X56029608Y-27689608D01*
X56208932Y-27471101D01*
X56342182Y-27221808D01*
X56424236Y-26951309D01*
X56451943Y-26670000D01*
X56424236Y-26388691D01*
X56342182Y-26118192D01*
X56208932Y-25868899D01*
X56029608Y-25650392D01*
X55811101Y-25471068D01*
X55561808Y-25337818D01*
X55291309Y-25255764D01*
X55080492Y-25235000D01*
X54139508Y-25235000D01*
X53928691Y-25255764D01*
X53658192Y-25337818D01*
X53408899Y-25471068D01*
X53190392Y-25650392D01*
X53011068Y-25868899D01*
X52877818Y-26118192D01*
X52795764Y-26388691D01*
X52768057Y-26670000D01*
X52795764Y-26951309D01*
X52877818Y-27221808D01*
X53011068Y-27471101D01*
X53190392Y-27689608D01*
X53408899Y-27868932D01*
X53541858Y-27940000D01*
X53408899Y-28011068D01*
X53190392Y-28190392D01*
X53011068Y-28408899D01*
X52877818Y-28658192D01*
X52795764Y-28928691D01*
X52768057Y-29210000D01*
X52795764Y-29491309D01*
X52877818Y-29761808D01*
X53011068Y-30011101D01*
X53190392Y-30229608D01*
X53408899Y-30408932D01*
X53541858Y-30480000D01*
X53408899Y-30551068D01*
X53190392Y-30730392D01*
X53011068Y-30948899D01*
X52877818Y-31198192D01*
X52795764Y-31468691D01*
X52768057Y-31750000D01*
X52795764Y-32031309D01*
X52877818Y-32301808D01*
X53011068Y-32551101D01*
X53190392Y-32769608D01*
X53408899Y-32948932D01*
X53541858Y-33020000D01*
X53408899Y-33091068D01*
X53190392Y-33270392D01*
X53011068Y-33488899D01*
X52877818Y-33738192D01*
X52795764Y-34008691D01*
X52768057Y-34290000D01*
X52795764Y-34571309D01*
X52877818Y-34841808D01*
X53011068Y-35091101D01*
X53190392Y-35309608D01*
X53408899Y-35488932D01*
X53541858Y-35560000D01*
X53408899Y-35631068D01*
X53190392Y-35810392D01*
X53011068Y-36028899D01*
X52877818Y-36278192D01*
X52795764Y-36548691D01*
X52768057Y-36830000D01*
X52795764Y-37111309D01*
X52877818Y-37381808D01*
X53011068Y-37631101D01*
X53190392Y-37849608D01*
X53408899Y-38028932D01*
X53541858Y-38100000D01*
X53408899Y-38171068D01*
X53190392Y-38350392D01*
X53011068Y-38568899D01*
X52877818Y-38818192D01*
X52795764Y-39088691D01*
X52768057Y-39370000D01*
X52795764Y-39651309D01*
X52877818Y-39921808D01*
X53011068Y-40171101D01*
X53190392Y-40389608D01*
X53408899Y-40568932D01*
X53541858Y-40640000D01*
X53408899Y-40711068D01*
X53190392Y-40890392D01*
X53011068Y-41108899D01*
X52877818Y-41358192D01*
X52795764Y-41628691D01*
X52768057Y-41910000D01*
X52795764Y-42191309D01*
X52865136Y-42420000D01*
X43494802Y-42420000D01*
X42473804Y-41399003D01*
X42450001Y-41369999D01*
X42334276Y-41275026D01*
X42202247Y-41204454D01*
X42058986Y-41160997D01*
X41947333Y-41150000D01*
X41947322Y-41150000D01*
X41910000Y-41146324D01*
X41872678Y-41150000D01*
X40990901Y-41150000D01*
X40968932Y-41108899D01*
X40789608Y-40890392D01*
X40571101Y-40711068D01*
X40438142Y-40640000D01*
X40571101Y-40568932D01*
X40789608Y-40389608D01*
X40968932Y-40171101D01*
X41102182Y-39921808D01*
X41184236Y-39651309D01*
X41211943Y-39370000D01*
X41184236Y-39088691D01*
X41102182Y-38818192D01*
X40968932Y-38568899D01*
X40789608Y-38350392D01*
X40571101Y-38171068D01*
X40438142Y-38100000D01*
X40571101Y-38028932D01*
X40789608Y-37849608D01*
X40968932Y-37631101D01*
X41102182Y-37381808D01*
X41184236Y-37111309D01*
X41211943Y-36830000D01*
X41184236Y-36548691D01*
X41102182Y-36278192D01*
X40968932Y-36028899D01*
X40789608Y-35810392D01*
X40571101Y-35631068D01*
X40438142Y-35560000D01*
X40571101Y-35488932D01*
X40789608Y-35309608D01*
X40968932Y-35091101D01*
X41102182Y-34841808D01*
X41184236Y-34571309D01*
X41211943Y-34290000D01*
X41184236Y-34008691D01*
X41102182Y-33738192D01*
X40968932Y-33488899D01*
X40789608Y-33270392D01*
X40571101Y-33091068D01*
X40438142Y-33020000D01*
X40571101Y-32948932D01*
X40789608Y-32769608D01*
X40968932Y-32551101D01*
X41102182Y-32301808D01*
X41184236Y-32031309D01*
X41211943Y-31750000D01*
X41184236Y-31468691D01*
X41102182Y-31198192D01*
X40968932Y-30948899D01*
X40789608Y-30730392D01*
X40571101Y-30551068D01*
X40438142Y-30480000D01*
X40571101Y-30408932D01*
X40789608Y-30229608D01*
X40968932Y-30011101D01*
X41102182Y-29761808D01*
X41184236Y-29491309D01*
X41211943Y-29210000D01*
X41184236Y-28928691D01*
X41102182Y-28658192D01*
X40968932Y-28408899D01*
X40789608Y-28190392D01*
X40676518Y-28097581D01*
X40694482Y-28095812D01*
X40814180Y-28059502D01*
X40924494Y-28000537D01*
X41021185Y-27921185D01*
X41100537Y-27824494D01*
X41159502Y-27714180D01*
X41195812Y-27594482D01*
X41208072Y-27470000D01*
X41208072Y-25870000D01*
X41195812Y-25745518D01*
X41159502Y-25625820D01*
X41100537Y-25515506D01*
X41021185Y-25418815D01*
X40924494Y-25339463D01*
X40814180Y-25280498D01*
X40694482Y-25244188D01*
X40570000Y-25231928D01*
X38170000Y-25231928D01*
X38045518Y-25244188D01*
X37925820Y-25280498D01*
X37815506Y-25339463D01*
X37718815Y-25418815D01*
X37639463Y-25515506D01*
X37580498Y-25625820D01*
X37544188Y-25745518D01*
X37531928Y-25870000D01*
X37531928Y-27470000D01*
X37544188Y-27594482D01*
X37580498Y-27714180D01*
X37639463Y-27824494D01*
X37718815Y-27921185D01*
X37815506Y-28000537D01*
X37925820Y-28059502D01*
X38045518Y-28095812D01*
X38063482Y-28097581D01*
X37950392Y-28190392D01*
X37771068Y-28408899D01*
X37637818Y-28658192D01*
X37555764Y-28928691D01*
X37528057Y-29210000D01*
X37490000Y-29210000D01*
X37490000Y-24790000D01*
X83160000Y-24790000D01*
X83160001Y-76810000D01*
G36*
X52795764Y-59408691D02*
G01*
X52768057Y-59690000D01*
X52795764Y-59971309D01*
X52877818Y-60241808D01*
X53011068Y-60491101D01*
X53190392Y-60709608D01*
X53408899Y-60888932D01*
X53541858Y-60960000D01*
X53408899Y-61031068D01*
X53190392Y-61210392D01*
X53011068Y-61428899D01*
X52877818Y-61678192D01*
X52795764Y-61948691D01*
X52768057Y-62230000D01*
X52795764Y-62511309D01*
X52877818Y-62781808D01*
X53011068Y-63031101D01*
X53190392Y-63249608D01*
X53408899Y-63428932D01*
X53541858Y-63500000D01*
X53408899Y-63571068D01*
X53190392Y-63750392D01*
X53011068Y-63968899D01*
X52877818Y-64218192D01*
X52795764Y-64488691D01*
X52768057Y-64770000D01*
X52795764Y-65051309D01*
X52877818Y-65321808D01*
X53011068Y-65571101D01*
X53190392Y-65789608D01*
X53408899Y-65968932D01*
X53541858Y-66040000D01*
X53408899Y-66111068D01*
X53190392Y-66290392D01*
X53011068Y-66508899D01*
X52877818Y-66758192D01*
X52795764Y-67028691D01*
X52768057Y-67310000D01*
X52795764Y-67591309D01*
X52865136Y-67820000D01*
X43217322Y-67820000D01*
X43179999Y-67816324D01*
X43142676Y-67820000D01*
X43142667Y-67820000D01*
X43031014Y-67830997D01*
X42887753Y-67874454D01*
X42755724Y-67945026D01*
X42639999Y-68039999D01*
X42616201Y-68068997D01*
X41595199Y-69090000D01*
X40990901Y-69090000D01*
X40968932Y-69048899D01*
X40789608Y-68830392D01*
X40571101Y-68651068D01*
X40438142Y-68580000D01*
X40571101Y-68508932D01*
X40789608Y-68329608D01*
X40968932Y-68111101D01*
X41102182Y-67861808D01*
X41184236Y-67591309D01*
X41211943Y-67310000D01*
X41184236Y-67028691D01*
X41102182Y-66758192D01*
X40968932Y-66508899D01*
X40789608Y-66290392D01*
X40571101Y-66111068D01*
X40438142Y-66040000D01*
X40571101Y-65968932D01*
X40789608Y-65789608D01*
X40968932Y-65571101D01*
X40990901Y-65530000D01*
X41872678Y-65530000D01*
X41910000Y-65533676D01*
X41947322Y-65530000D01*
X41947333Y-65530000D01*
X42058986Y-65519003D01*
X42202247Y-65475546D01*
X42334276Y-65404974D01*
X42450001Y-65310001D01*
X42473804Y-65280997D01*
X48574802Y-59180000D01*
X52865136Y-59180000D01*
X52795764Y-59408691D01*
X52795764Y-59408691D01*
G37*
X52795764Y-59408691D02*
X52768057Y-59690000D01*
X52795764Y-59971309D01*
X52877818Y-60241808D01*
X53011068Y-60491101D01*
X53190392Y-60709608D01*
X53408899Y-60888932D01*
X53541858Y-60960000D01*
X53408899Y-61031068D01*
X53190392Y-61210392D01*
X53011068Y-61428899D01*
X52877818Y-61678192D01*
X52795764Y-61948691D01*
X52768057Y-62230000D01*
X52795764Y-62511309D01*
X52877818Y-62781808D01*
X53011068Y-63031101D01*
X53190392Y-63249608D01*
X53408899Y-63428932D01*
X53541858Y-63500000D01*
X53408899Y-63571068D01*
X53190392Y-63750392D01*
X53011068Y-63968899D01*
X52877818Y-64218192D01*
X52795764Y-64488691D01*
X52768057Y-64770000D01*
X52795764Y-65051309D01*
X52877818Y-65321808D01*
X53011068Y-65571101D01*
X53190392Y-65789608D01*
X53408899Y-65968932D01*
X53541858Y-66040000D01*
X53408899Y-66111068D01*
X53190392Y-66290392D01*
X53011068Y-66508899D01*
X52877818Y-66758192D01*
X52795764Y-67028691D01*
X52768057Y-67310000D01*
X52795764Y-67591309D01*
X52865136Y-67820000D01*
X43217322Y-67820000D01*
X43179999Y-67816324D01*
X43142676Y-67820000D01*
X43142667Y-67820000D01*
X43031014Y-67830997D01*
X42887753Y-67874454D01*
X42755724Y-67945026D01*
X42639999Y-68039999D01*
X42616201Y-68068997D01*
X41595199Y-69090000D01*
X40990901Y-69090000D01*
X40968932Y-69048899D01*
X40789608Y-68830392D01*
X40571101Y-68651068D01*
X40438142Y-68580000D01*
X40571101Y-68508932D01*
X40789608Y-68329608D01*
X40968932Y-68111101D01*
X41102182Y-67861808D01*
X41184236Y-67591309D01*
X41211943Y-67310000D01*
X41184236Y-67028691D01*
X41102182Y-66758192D01*
X40968932Y-66508899D01*
X40789608Y-66290392D01*
X40571101Y-66111068D01*
X40438142Y-66040000D01*
X40571101Y-65968932D01*
X40789608Y-65789608D01*
X40968932Y-65571101D01*
X40990901Y-65530000D01*
X41872678Y-65530000D01*
X41910000Y-65533676D01*
X41947322Y-65530000D01*
X41947333Y-65530000D01*
X42058986Y-65519003D01*
X42202247Y-65475546D01*
X42334276Y-65404974D01*
X42450001Y-65310001D01*
X42473804Y-65280997D01*
X48574802Y-59180000D01*
X52865136Y-59180000D01*
X52795764Y-59408691D01*
G36*
X52795764Y-56868691D02*
G01*
X52768057Y-57150000D01*
X52795764Y-57431309D01*
X52865136Y-57660000D01*
X48297322Y-57660000D01*
X48259999Y-57656324D01*
X48222676Y-57660000D01*
X48222667Y-57660000D01*
X48111014Y-57670997D01*
X47967753Y-57714454D01*
X47835723Y-57785026D01*
X47752083Y-57853668D01*
X47719999Y-57879999D01*
X47696201Y-57908997D01*
X41595199Y-64010000D01*
X40990901Y-64010000D01*
X40968932Y-63968899D01*
X40789608Y-63750392D01*
X40571101Y-63571068D01*
X40438142Y-63500000D01*
X40571101Y-63428932D01*
X40789608Y-63249608D01*
X40968932Y-63031101D01*
X41102182Y-62781808D01*
X41184236Y-62511309D01*
X41211943Y-62230000D01*
X41184236Y-61948691D01*
X41102182Y-61678192D01*
X40968932Y-61428899D01*
X40789608Y-61210392D01*
X40571101Y-61031068D01*
X40438142Y-60960000D01*
X40571101Y-60888932D01*
X40789608Y-60709608D01*
X40968932Y-60491101D01*
X40990901Y-60450000D01*
X41872678Y-60450000D01*
X41910000Y-60453676D01*
X41947322Y-60450000D01*
X41947333Y-60450000D01*
X42058986Y-60439003D01*
X42202247Y-60395546D01*
X42334276Y-60324974D01*
X42450001Y-60230001D01*
X42473804Y-60200997D01*
X45889812Y-56784990D01*
X52821154Y-56784990D01*
X52795764Y-56868691D01*
X52795764Y-56868691D01*
G37*
X52795764Y-56868691D02*
X52768057Y-57150000D01*
X52795764Y-57431309D01*
X52865136Y-57660000D01*
X48297322Y-57660000D01*
X48259999Y-57656324D01*
X48222676Y-57660000D01*
X48222667Y-57660000D01*
X48111014Y-57670997D01*
X47967753Y-57714454D01*
X47835723Y-57785026D01*
X47752083Y-57853668D01*
X47719999Y-57879999D01*
X47696201Y-57908997D01*
X41595199Y-64010000D01*
X40990901Y-64010000D01*
X40968932Y-63968899D01*
X40789608Y-63750392D01*
X40571101Y-63571068D01*
X40438142Y-63500000D01*
X40571101Y-63428932D01*
X40789608Y-63249608D01*
X40968932Y-63031101D01*
X41102182Y-62781808D01*
X41184236Y-62511309D01*
X41211943Y-62230000D01*
X41184236Y-61948691D01*
X41102182Y-61678192D01*
X40968932Y-61428899D01*
X40789608Y-61210392D01*
X40571101Y-61031068D01*
X40438142Y-60960000D01*
X40571101Y-60888932D01*
X40789608Y-60709608D01*
X40968932Y-60491101D01*
X40990901Y-60450000D01*
X41872678Y-60450000D01*
X41910000Y-60453676D01*
X41947322Y-60450000D01*
X41947333Y-60450000D01*
X42058986Y-60439003D01*
X42202247Y-60395546D01*
X42334276Y-60324974D01*
X42450001Y-60230001D01*
X42473804Y-60200997D01*
X45889812Y-56784990D01*
X52821154Y-56784990D01*
X52795764Y-56868691D01*
G36*
X52818096Y-54260961D02*
G01*
X52940085Y-54483000D01*
X54483000Y-54483000D01*
X54483000Y-54463000D01*
X54737000Y-54463000D01*
X54737000Y-54483000D01*
X54757000Y-54483000D01*
X54757000Y-54737000D01*
X54737000Y-54737000D01*
X54737000Y-54757000D01*
X54483000Y-54757000D01*
X54483000Y-54737000D01*
X52940085Y-54737000D01*
X52818096Y-54959039D01*
X52835633Y-55041818D01*
X52930674Y-55264990D01*
X45612333Y-55264990D01*
X45575010Y-55261314D01*
X45537687Y-55264990D01*
X45537677Y-55264990D01*
X45426024Y-55275987D01*
X45282763Y-55319444D01*
X45150734Y-55390016D01*
X45035009Y-55484989D01*
X45011211Y-55513987D01*
X41595199Y-58930000D01*
X40990901Y-58930000D01*
X40968932Y-58888899D01*
X40789608Y-58670392D01*
X40571101Y-58491068D01*
X40438142Y-58420000D01*
X40571101Y-58348932D01*
X40789608Y-58169608D01*
X40968932Y-57951101D01*
X41102182Y-57701808D01*
X41184236Y-57431309D01*
X41211943Y-57150000D01*
X41184236Y-56868691D01*
X41102182Y-56598192D01*
X40968932Y-56348899D01*
X40789608Y-56130392D01*
X40571101Y-55951068D01*
X40438142Y-55880000D01*
X40571101Y-55808932D01*
X40789608Y-55629608D01*
X40968932Y-55411101D01*
X40990901Y-55370000D01*
X41872678Y-55370000D01*
X41910000Y-55373676D01*
X41947322Y-55370000D01*
X41947333Y-55370000D01*
X42058986Y-55359003D01*
X42202247Y-55315546D01*
X42334276Y-55244974D01*
X42450001Y-55150001D01*
X42473803Y-55120998D01*
X43349813Y-54244990D01*
X52821480Y-54244990D01*
X52818096Y-54260961D01*
X52818096Y-54260961D01*
G37*
X52818096Y-54260961D02*
X52940085Y-54483000D01*
X54483000Y-54483000D01*
X54483000Y-54463000D01*
X54737000Y-54463000D01*
X54737000Y-54483000D01*
X54757000Y-54483000D01*
X54757000Y-54737000D01*
X54737000Y-54737000D01*
X54737000Y-54757000D01*
X54483000Y-54757000D01*
X54483000Y-54737000D01*
X52940085Y-54737000D01*
X52818096Y-54959039D01*
X52835633Y-55041818D01*
X52930674Y-55264990D01*
X45612333Y-55264990D01*
X45575010Y-55261314D01*
X45537687Y-55264990D01*
X45537677Y-55264990D01*
X45426024Y-55275987D01*
X45282763Y-55319444D01*
X45150734Y-55390016D01*
X45035009Y-55484989D01*
X45011211Y-55513987D01*
X41595199Y-58930000D01*
X40990901Y-58930000D01*
X40968932Y-58888899D01*
X40789608Y-58670392D01*
X40571101Y-58491068D01*
X40438142Y-58420000D01*
X40571101Y-58348932D01*
X40789608Y-58169608D01*
X40968932Y-57951101D01*
X41102182Y-57701808D01*
X41184236Y-57431309D01*
X41211943Y-57150000D01*
X41184236Y-56868691D01*
X41102182Y-56598192D01*
X40968932Y-56348899D01*
X40789608Y-56130392D01*
X40571101Y-55951068D01*
X40438142Y-55880000D01*
X40571101Y-55808932D01*
X40789608Y-55629608D01*
X40968932Y-55411101D01*
X40990901Y-55370000D01*
X41872678Y-55370000D01*
X41910000Y-55373676D01*
X41947322Y-55370000D01*
X41947333Y-55370000D01*
X42058986Y-55359003D01*
X42202247Y-55315546D01*
X42334276Y-55244974D01*
X42450001Y-55150001D01*
X42473803Y-55120998D01*
X43349813Y-54244990D01*
X52821480Y-54244990D01*
X52818096Y-54260961D01*
G36*
X59665533Y-55487328D02*
G01*
X59613800Y-55747411D01*
X59613800Y-56012589D01*
X59665533Y-56272672D01*
X59714132Y-56390000D01*
X56444801Y-56390000D01*
X57464802Y-55370000D01*
X59714132Y-55370000D01*
X59665533Y-55487328D01*
X59665533Y-55487328D01*
G37*
X59665533Y-55487328D02*
X59613800Y-55747411D01*
X59613800Y-56012589D01*
X59665533Y-56272672D01*
X59714132Y-56390000D01*
X56444801Y-56390000D01*
X57464802Y-55370000D01*
X59714132Y-55370000D01*
X59665533Y-55487328D01*
G36*
X75154338Y-54198153D02*
G01*
X75341847Y-54385662D01*
X75562335Y-54532987D01*
X75748260Y-54610000D01*
X75562335Y-54687013D01*
X75341847Y-54834338D01*
X75154338Y-55021847D01*
X75007013Y-55242335D01*
X74930000Y-55428260D01*
X74852987Y-55242335D01*
X74705662Y-55021847D01*
X74518153Y-54834338D01*
X74297665Y-54687013D01*
X74052672Y-54585533D01*
X73792589Y-54533800D01*
X73527411Y-54533800D01*
X73267328Y-54585533D01*
X73022335Y-54687013D01*
X72801847Y-54834338D01*
X72614338Y-55021847D01*
X72467013Y-55242335D01*
X72390000Y-55428260D01*
X72312987Y-55242335D01*
X72165662Y-55021847D01*
X71978153Y-54834338D01*
X71757665Y-54687013D01*
X71512672Y-54585533D01*
X71252589Y-54533800D01*
X70987411Y-54533800D01*
X70727328Y-54585533D01*
X70482335Y-54687013D01*
X70261847Y-54834338D01*
X70074338Y-55021847D01*
X69927013Y-55242335D01*
X69850000Y-55428260D01*
X69772987Y-55242335D01*
X69625662Y-55021847D01*
X69438153Y-54834338D01*
X69217665Y-54687013D01*
X68972672Y-54585533D01*
X68712589Y-54533800D01*
X68447411Y-54533800D01*
X68187328Y-54585533D01*
X67942335Y-54687013D01*
X67721847Y-54834338D01*
X67534338Y-55021847D01*
X67387013Y-55242335D01*
X67310000Y-55428260D01*
X67232987Y-55242335D01*
X67085662Y-55021847D01*
X66898153Y-54834338D01*
X66677665Y-54687013D01*
X66432672Y-54585533D01*
X66172589Y-54533800D01*
X65921001Y-54533800D01*
X66354802Y-54100000D01*
X75088754Y-54100000D01*
X75154338Y-54198153D01*
X75154338Y-54198153D01*
G37*
X75154338Y-54198153D02*
X75341847Y-54385662D01*
X75562335Y-54532987D01*
X75748260Y-54610000D01*
X75562335Y-54687013D01*
X75341847Y-54834338D01*
X75154338Y-55021847D01*
X75007013Y-55242335D01*
X74930000Y-55428260D01*
X74852987Y-55242335D01*
X74705662Y-55021847D01*
X74518153Y-54834338D01*
X74297665Y-54687013D01*
X74052672Y-54585533D01*
X73792589Y-54533800D01*
X73527411Y-54533800D01*
X73267328Y-54585533D01*
X73022335Y-54687013D01*
X72801847Y-54834338D01*
X72614338Y-55021847D01*
X72467013Y-55242335D01*
X72390000Y-55428260D01*
X72312987Y-55242335D01*
X72165662Y-55021847D01*
X71978153Y-54834338D01*
X71757665Y-54687013D01*
X71512672Y-54585533D01*
X71252589Y-54533800D01*
X70987411Y-54533800D01*
X70727328Y-54585533D01*
X70482335Y-54687013D01*
X70261847Y-54834338D01*
X70074338Y-55021847D01*
X69927013Y-55242335D01*
X69850000Y-55428260D01*
X69772987Y-55242335D01*
X69625662Y-55021847D01*
X69438153Y-54834338D01*
X69217665Y-54687013D01*
X68972672Y-54585533D01*
X68712589Y-54533800D01*
X68447411Y-54533800D01*
X68187328Y-54585533D01*
X67942335Y-54687013D01*
X67721847Y-54834338D01*
X67534338Y-55021847D01*
X67387013Y-55242335D01*
X67310000Y-55428260D01*
X67232987Y-55242335D01*
X67085662Y-55021847D01*
X66898153Y-54834338D01*
X66677665Y-54687013D01*
X66432672Y-54585533D01*
X66172589Y-54533800D01*
X65921001Y-54533800D01*
X66354802Y-54100000D01*
X75088754Y-54100000D01*
X75154338Y-54198153D01*
G36*
X52795764Y-46708691D02*
G01*
X52768057Y-46990000D01*
X52795764Y-47271309D01*
X52877818Y-47541808D01*
X53011068Y-47791101D01*
X53190392Y-48009608D01*
X53408899Y-48188932D01*
X53541858Y-48260000D01*
X53408899Y-48331068D01*
X53190392Y-48510392D01*
X53011068Y-48728899D01*
X52877818Y-48978192D01*
X52795764Y-49248691D01*
X52768057Y-49530000D01*
X52795764Y-49811309D01*
X52877818Y-50081808D01*
X53011068Y-50331101D01*
X53190392Y-50549608D01*
X53408899Y-50728932D01*
X53541858Y-50800000D01*
X53408899Y-50871068D01*
X53190392Y-51050392D01*
X53011068Y-51268899D01*
X52877818Y-51518192D01*
X52795764Y-51788691D01*
X52768057Y-52070000D01*
X52795764Y-52351309D01*
X52877818Y-52621808D01*
X52932970Y-52724990D01*
X43072332Y-52724990D01*
X43035009Y-52721314D01*
X42997686Y-52724990D01*
X42997677Y-52724990D01*
X42886024Y-52735987D01*
X42742763Y-52779444D01*
X42610734Y-52850016D01*
X42610732Y-52850017D01*
X42610733Y-52850017D01*
X42524006Y-52921191D01*
X42524002Y-52921195D01*
X42495009Y-52944989D01*
X42471215Y-52973982D01*
X41595199Y-53850000D01*
X40990901Y-53850000D01*
X40968932Y-53808899D01*
X40789608Y-53590392D01*
X40571101Y-53411068D01*
X40438142Y-53340000D01*
X40571101Y-53268932D01*
X40789608Y-53089608D01*
X40968932Y-52871101D01*
X41102182Y-52621808D01*
X41184236Y-52351309D01*
X41211943Y-52070000D01*
X41184236Y-51788691D01*
X41102182Y-51518192D01*
X40968932Y-51268899D01*
X40789608Y-51050392D01*
X40571101Y-50871068D01*
X40438142Y-50800000D01*
X40571101Y-50728932D01*
X40789608Y-50549608D01*
X40968932Y-50331101D01*
X41102182Y-50081808D01*
X41184236Y-49811309D01*
X41211943Y-49530000D01*
X41184236Y-49248691D01*
X41102182Y-48978192D01*
X40968932Y-48728899D01*
X40789608Y-48510392D01*
X40571101Y-48331068D01*
X40438142Y-48260000D01*
X40571101Y-48188932D01*
X40789608Y-48009608D01*
X40968932Y-47791101D01*
X40990901Y-47750000D01*
X41872678Y-47750000D01*
X41910000Y-47753676D01*
X41947322Y-47750000D01*
X41947333Y-47750000D01*
X42058986Y-47739003D01*
X42202247Y-47695546D01*
X42334276Y-47624974D01*
X42450001Y-47530001D01*
X42473804Y-47500997D01*
X43494802Y-46480000D01*
X52865136Y-46480000D01*
X52795764Y-46708691D01*
X52795764Y-46708691D01*
G37*
X52795764Y-46708691D02*
X52768057Y-46990000D01*
X52795764Y-47271309D01*
X52877818Y-47541808D01*
X53011068Y-47791101D01*
X53190392Y-48009608D01*
X53408899Y-48188932D01*
X53541858Y-48260000D01*
X53408899Y-48331068D01*
X53190392Y-48510392D01*
X53011068Y-48728899D01*
X52877818Y-48978192D01*
X52795764Y-49248691D01*
X52768057Y-49530000D01*
X52795764Y-49811309D01*
X52877818Y-50081808D01*
X53011068Y-50331101D01*
X53190392Y-50549608D01*
X53408899Y-50728932D01*
X53541858Y-50800000D01*
X53408899Y-50871068D01*
X53190392Y-51050392D01*
X53011068Y-51268899D01*
X52877818Y-51518192D01*
X52795764Y-51788691D01*
X52768057Y-52070000D01*
X52795764Y-52351309D01*
X52877818Y-52621808D01*
X52932970Y-52724990D01*
X43072332Y-52724990D01*
X43035009Y-52721314D01*
X42997686Y-52724990D01*
X42997677Y-52724990D01*
X42886024Y-52735987D01*
X42742763Y-52779444D01*
X42610734Y-52850016D01*
X42610732Y-52850017D01*
X42610733Y-52850017D01*
X42524006Y-52921191D01*
X42524002Y-52921195D01*
X42495009Y-52944989D01*
X42471215Y-52973982D01*
X41595199Y-53850000D01*
X40990901Y-53850000D01*
X40968932Y-53808899D01*
X40789608Y-53590392D01*
X40571101Y-53411068D01*
X40438142Y-53340000D01*
X40571101Y-53268932D01*
X40789608Y-53089608D01*
X40968932Y-52871101D01*
X41102182Y-52621808D01*
X41184236Y-52351309D01*
X41211943Y-52070000D01*
X41184236Y-51788691D01*
X41102182Y-51518192D01*
X40968932Y-51268899D01*
X40789608Y-51050392D01*
X40571101Y-50871068D01*
X40438142Y-50800000D01*
X40571101Y-50728932D01*
X40789608Y-50549608D01*
X40968932Y-50331101D01*
X41102182Y-50081808D01*
X41184236Y-49811309D01*
X41211943Y-49530000D01*
X41184236Y-49248691D01*
X41102182Y-48978192D01*
X40968932Y-48728899D01*
X40789608Y-48510392D01*
X40571101Y-48331068D01*
X40438142Y-48260000D01*
X40571101Y-48188932D01*
X40789608Y-48009608D01*
X40968932Y-47791101D01*
X40990901Y-47750000D01*
X41872678Y-47750000D01*
X41910000Y-47753676D01*
X41947322Y-47750000D01*
X41947333Y-47750000D01*
X42058986Y-47739003D01*
X42202247Y-47695546D01*
X42334276Y-47624974D01*
X42450001Y-47530001D01*
X42473804Y-47500997D01*
X43494802Y-46480000D01*
X52865136Y-46480000D01*
X52795764Y-46708691D01*
G36*
X74876830Y-45471631D02*
G01*
X74853800Y-45587411D01*
X74853800Y-45852589D01*
X74905533Y-46112672D01*
X75007013Y-46357665D01*
X75154338Y-46578153D01*
X75341847Y-46765662D01*
X75562335Y-46912987D01*
X75748260Y-46990000D01*
X75562335Y-47067013D01*
X75341847Y-47214338D01*
X75154338Y-47401847D01*
X75007013Y-47622335D01*
X74905533Y-47867328D01*
X74853800Y-48127411D01*
X74853800Y-48392589D01*
X74905533Y-48652672D01*
X75007013Y-48897665D01*
X75154338Y-49118153D01*
X75341847Y-49305662D01*
X75562335Y-49452987D01*
X75748260Y-49530000D01*
X75562335Y-49607013D01*
X75341847Y-49754338D01*
X75154338Y-49941847D01*
X75007013Y-50162335D01*
X74905533Y-50407328D01*
X74853800Y-50667411D01*
X74853800Y-50932589D01*
X74905533Y-51192672D01*
X75007013Y-51437665D01*
X75154338Y-51658153D01*
X75341847Y-51845662D01*
X75562335Y-51992987D01*
X75748260Y-52070000D01*
X75562335Y-52147013D01*
X75341847Y-52294338D01*
X75154338Y-52481847D01*
X75088754Y-52580000D01*
X66077322Y-52580000D01*
X66039999Y-52576324D01*
X66002676Y-52580000D01*
X66002667Y-52580000D01*
X65891014Y-52590997D01*
X65747753Y-52634454D01*
X65615724Y-52705026D01*
X65499999Y-52799999D01*
X65476201Y-52828997D01*
X64846200Y-53458999D01*
X64846200Y-53207411D01*
X64794467Y-52947328D01*
X64692987Y-52702335D01*
X64545662Y-52481847D01*
X64358153Y-52294338D01*
X64137665Y-52147013D01*
X63951740Y-52070000D01*
X64137665Y-51992987D01*
X64358153Y-51845662D01*
X64545662Y-51658153D01*
X64692987Y-51437665D01*
X64794467Y-51192672D01*
X64846200Y-50932589D01*
X64846200Y-50667411D01*
X64794467Y-50407328D01*
X64692987Y-50162335D01*
X64545662Y-49941847D01*
X64358153Y-49754338D01*
X64137665Y-49607013D01*
X63951740Y-49530000D01*
X64137665Y-49452987D01*
X64358153Y-49305662D01*
X64545662Y-49118153D01*
X64692987Y-48897665D01*
X64794467Y-48652672D01*
X64846200Y-48392589D01*
X64846200Y-48127411D01*
X64794467Y-47867328D01*
X64692987Y-47622335D01*
X64545662Y-47401847D01*
X64358153Y-47214338D01*
X64137665Y-47067013D01*
X63951740Y-46990000D01*
X64137665Y-46912987D01*
X64358153Y-46765662D01*
X64545662Y-46578153D01*
X64692987Y-46357665D01*
X64794467Y-46112672D01*
X64846200Y-45852589D01*
X64846200Y-45587411D01*
X64794467Y-45327328D01*
X64746429Y-45211355D01*
X64770000Y-45213677D01*
X64807333Y-45210000D01*
X74615199Y-45210000D01*
X74876830Y-45471631D01*
X74876830Y-45471631D01*
G37*
X74876830Y-45471631D02*
X74853800Y-45587411D01*
X74853800Y-45852589D01*
X74905533Y-46112672D01*
X75007013Y-46357665D01*
X75154338Y-46578153D01*
X75341847Y-46765662D01*
X75562335Y-46912987D01*
X75748260Y-46990000D01*
X75562335Y-47067013D01*
X75341847Y-47214338D01*
X75154338Y-47401847D01*
X75007013Y-47622335D01*
X74905533Y-47867328D01*
X74853800Y-48127411D01*
X74853800Y-48392589D01*
X74905533Y-48652672D01*
X75007013Y-48897665D01*
X75154338Y-49118153D01*
X75341847Y-49305662D01*
X75562335Y-49452987D01*
X75748260Y-49530000D01*
X75562335Y-49607013D01*
X75341847Y-49754338D01*
X75154338Y-49941847D01*
X75007013Y-50162335D01*
X74905533Y-50407328D01*
X74853800Y-50667411D01*
X74853800Y-50932589D01*
X74905533Y-51192672D01*
X75007013Y-51437665D01*
X75154338Y-51658153D01*
X75341847Y-51845662D01*
X75562335Y-51992987D01*
X75748260Y-52070000D01*
X75562335Y-52147013D01*
X75341847Y-52294338D01*
X75154338Y-52481847D01*
X75088754Y-52580000D01*
X66077322Y-52580000D01*
X66039999Y-52576324D01*
X66002676Y-52580000D01*
X66002667Y-52580000D01*
X65891014Y-52590997D01*
X65747753Y-52634454D01*
X65615724Y-52705026D01*
X65499999Y-52799999D01*
X65476201Y-52828997D01*
X64846200Y-53458999D01*
X64846200Y-53207411D01*
X64794467Y-52947328D01*
X64692987Y-52702335D01*
X64545662Y-52481847D01*
X64358153Y-52294338D01*
X64137665Y-52147013D01*
X63951740Y-52070000D01*
X64137665Y-51992987D01*
X64358153Y-51845662D01*
X64545662Y-51658153D01*
X64692987Y-51437665D01*
X64794467Y-51192672D01*
X64846200Y-50932589D01*
X64846200Y-50667411D01*
X64794467Y-50407328D01*
X64692987Y-50162335D01*
X64545662Y-49941847D01*
X64358153Y-49754338D01*
X64137665Y-49607013D01*
X63951740Y-49530000D01*
X64137665Y-49452987D01*
X64358153Y-49305662D01*
X64545662Y-49118153D01*
X64692987Y-48897665D01*
X64794467Y-48652672D01*
X64846200Y-48392589D01*
X64846200Y-48127411D01*
X64794467Y-47867328D01*
X64692987Y-47622335D01*
X64545662Y-47401847D01*
X64358153Y-47214338D01*
X64137665Y-47067013D01*
X63951740Y-46990000D01*
X64137665Y-46912987D01*
X64358153Y-46765662D01*
X64545662Y-46578153D01*
X64692987Y-46357665D01*
X64794467Y-46112672D01*
X64846200Y-45852589D01*
X64846200Y-45587411D01*
X64794467Y-45327328D01*
X64746429Y-45211355D01*
X64770000Y-45213677D01*
X64807333Y-45210000D01*
X74615199Y-45210000D01*
X74876830Y-45471631D01*
M02*
