G04 #@! TF.GenerationSoftware,KiCad,Pcbnew,(5.1.4)-1*
G04 #@! TF.CreationDate,2020-01-28T22:58:31+09:00*
G04 #@! TF.ProjectId,PLCC2DIP40,504c4343-3244-4495-9034-302e6b696361,rev?*
G04 #@! TF.SameCoordinates,Original*
G04 #@! TF.FileFunction,Soldermask,Bot*
G04 #@! TF.FilePolarity,Negative*
%FSLAX46Y46*%
G04 Gerber Fmt 4.6, Leading zero omitted, Abs format (unit mm)*
G04 Created by KiCad (PCBNEW (5.1.4)-1) date 2020-01-28 22:58:31*
%MOMM*%
%LPD*%
G04 APERTURE LIST*
%ADD10C,0.100000*%
G04 APERTURE END LIST*
D10*
G36*
X55176823Y-74091313D02*
G01*
X55337242Y-74139976D01*
X55469906Y-74210886D01*
X55485078Y-74218996D01*
X55614659Y-74325341D01*
X55721004Y-74454922D01*
X55721005Y-74454924D01*
X55800024Y-74602758D01*
X55848687Y-74763177D01*
X55865117Y-74930000D01*
X55848687Y-75096823D01*
X55800024Y-75257242D01*
X55729114Y-75389906D01*
X55721004Y-75405078D01*
X55614659Y-75534659D01*
X55485078Y-75641004D01*
X55485076Y-75641005D01*
X55337242Y-75720024D01*
X55176823Y-75768687D01*
X55051804Y-75781000D01*
X54168196Y-75781000D01*
X54043177Y-75768687D01*
X53882758Y-75720024D01*
X53734924Y-75641005D01*
X53734922Y-75641004D01*
X53605341Y-75534659D01*
X53498996Y-75405078D01*
X53490886Y-75389906D01*
X53419976Y-75257242D01*
X53371313Y-75096823D01*
X53354883Y-74930000D01*
X53371313Y-74763177D01*
X53419976Y-74602758D01*
X53498995Y-74454924D01*
X53498996Y-74454922D01*
X53605341Y-74325341D01*
X53734922Y-74218996D01*
X53750094Y-74210886D01*
X53882758Y-74139976D01*
X54043177Y-74091313D01*
X54168196Y-74079000D01*
X55051804Y-74079000D01*
X55176823Y-74091313D01*
X55176823Y-74091313D01*
G37*
G36*
X39936823Y-74091313D02*
G01*
X40097242Y-74139976D01*
X40229906Y-74210886D01*
X40245078Y-74218996D01*
X40374659Y-74325341D01*
X40481004Y-74454922D01*
X40481005Y-74454924D01*
X40560024Y-74602758D01*
X40608687Y-74763177D01*
X40625117Y-74930000D01*
X40608687Y-75096823D01*
X40560024Y-75257242D01*
X40489114Y-75389906D01*
X40481004Y-75405078D01*
X40374659Y-75534659D01*
X40245078Y-75641004D01*
X40245076Y-75641005D01*
X40097242Y-75720024D01*
X39936823Y-75768687D01*
X39811804Y-75781000D01*
X38928196Y-75781000D01*
X38803177Y-75768687D01*
X38642758Y-75720024D01*
X38494924Y-75641005D01*
X38494922Y-75641004D01*
X38365341Y-75534659D01*
X38258996Y-75405078D01*
X38250886Y-75389906D01*
X38179976Y-75257242D01*
X38131313Y-75096823D01*
X38114883Y-74930000D01*
X38131313Y-74763177D01*
X38179976Y-74602758D01*
X38258995Y-74454924D01*
X38258996Y-74454922D01*
X38365341Y-74325341D01*
X38494922Y-74218996D01*
X38510094Y-74210886D01*
X38642758Y-74139976D01*
X38803177Y-74091313D01*
X38928196Y-74079000D01*
X39811804Y-74079000D01*
X39936823Y-74091313D01*
X39936823Y-74091313D01*
G37*
G36*
X55176823Y-71551313D02*
G01*
X55337242Y-71599976D01*
X55469906Y-71670886D01*
X55485078Y-71678996D01*
X55614659Y-71785341D01*
X55721004Y-71914922D01*
X55721005Y-71914924D01*
X55800024Y-72062758D01*
X55848687Y-72223177D01*
X55865117Y-72390000D01*
X55848687Y-72556823D01*
X55800024Y-72717242D01*
X55729114Y-72849906D01*
X55721004Y-72865078D01*
X55614659Y-72994659D01*
X55485078Y-73101004D01*
X55485076Y-73101005D01*
X55337242Y-73180024D01*
X55176823Y-73228687D01*
X55051804Y-73241000D01*
X54168196Y-73241000D01*
X54043177Y-73228687D01*
X53882758Y-73180024D01*
X53734924Y-73101005D01*
X53734922Y-73101004D01*
X53605341Y-72994659D01*
X53498996Y-72865078D01*
X53490886Y-72849906D01*
X53419976Y-72717242D01*
X53371313Y-72556823D01*
X53354883Y-72390000D01*
X53371313Y-72223177D01*
X53419976Y-72062758D01*
X53498995Y-71914924D01*
X53498996Y-71914922D01*
X53605341Y-71785341D01*
X53734922Y-71678996D01*
X53750094Y-71670886D01*
X53882758Y-71599976D01*
X54043177Y-71551313D01*
X54168196Y-71539000D01*
X55051804Y-71539000D01*
X55176823Y-71551313D01*
X55176823Y-71551313D01*
G37*
G36*
X39936823Y-71551313D02*
G01*
X40097242Y-71599976D01*
X40229906Y-71670886D01*
X40245078Y-71678996D01*
X40374659Y-71785341D01*
X40481004Y-71914922D01*
X40481005Y-71914924D01*
X40560024Y-72062758D01*
X40608687Y-72223177D01*
X40625117Y-72390000D01*
X40608687Y-72556823D01*
X40560024Y-72717242D01*
X40489114Y-72849906D01*
X40481004Y-72865078D01*
X40374659Y-72994659D01*
X40245078Y-73101004D01*
X40245076Y-73101005D01*
X40097242Y-73180024D01*
X39936823Y-73228687D01*
X39811804Y-73241000D01*
X38928196Y-73241000D01*
X38803177Y-73228687D01*
X38642758Y-73180024D01*
X38494924Y-73101005D01*
X38494922Y-73101004D01*
X38365341Y-72994659D01*
X38258996Y-72865078D01*
X38250886Y-72849906D01*
X38179976Y-72717242D01*
X38131313Y-72556823D01*
X38114883Y-72390000D01*
X38131313Y-72223177D01*
X38179976Y-72062758D01*
X38258995Y-71914924D01*
X38258996Y-71914922D01*
X38365341Y-71785341D01*
X38494922Y-71678996D01*
X38510094Y-71670886D01*
X38642758Y-71599976D01*
X38803177Y-71551313D01*
X38928196Y-71539000D01*
X39811804Y-71539000D01*
X39936823Y-71551313D01*
X39936823Y-71551313D01*
G37*
G36*
X55176823Y-69011313D02*
G01*
X55337242Y-69059976D01*
X55469906Y-69130886D01*
X55485078Y-69138996D01*
X55614659Y-69245341D01*
X55721004Y-69374922D01*
X55721005Y-69374924D01*
X55800024Y-69522758D01*
X55848687Y-69683177D01*
X55865117Y-69850000D01*
X55848687Y-70016823D01*
X55800024Y-70177242D01*
X55729114Y-70309906D01*
X55721004Y-70325078D01*
X55614659Y-70454659D01*
X55485078Y-70561004D01*
X55485076Y-70561005D01*
X55337242Y-70640024D01*
X55176823Y-70688687D01*
X55051804Y-70701000D01*
X54168196Y-70701000D01*
X54043177Y-70688687D01*
X53882758Y-70640024D01*
X53734924Y-70561005D01*
X53734922Y-70561004D01*
X53605341Y-70454659D01*
X53498996Y-70325078D01*
X53490886Y-70309906D01*
X53419976Y-70177242D01*
X53371313Y-70016823D01*
X53354883Y-69850000D01*
X53371313Y-69683177D01*
X53419976Y-69522758D01*
X53498995Y-69374924D01*
X53498996Y-69374922D01*
X53605341Y-69245341D01*
X53734922Y-69138996D01*
X53750094Y-69130886D01*
X53882758Y-69059976D01*
X54043177Y-69011313D01*
X54168196Y-68999000D01*
X55051804Y-68999000D01*
X55176823Y-69011313D01*
X55176823Y-69011313D01*
G37*
G36*
X39936823Y-69011313D02*
G01*
X40097242Y-69059976D01*
X40229906Y-69130886D01*
X40245078Y-69138996D01*
X40374659Y-69245341D01*
X40481004Y-69374922D01*
X40481005Y-69374924D01*
X40560024Y-69522758D01*
X40608687Y-69683177D01*
X40625117Y-69850000D01*
X40608687Y-70016823D01*
X40560024Y-70177242D01*
X40489114Y-70309906D01*
X40481004Y-70325078D01*
X40374659Y-70454659D01*
X40245078Y-70561004D01*
X40245076Y-70561005D01*
X40097242Y-70640024D01*
X39936823Y-70688687D01*
X39811804Y-70701000D01*
X38928196Y-70701000D01*
X38803177Y-70688687D01*
X38642758Y-70640024D01*
X38494924Y-70561005D01*
X38494922Y-70561004D01*
X38365341Y-70454659D01*
X38258996Y-70325078D01*
X38250886Y-70309906D01*
X38179976Y-70177242D01*
X38131313Y-70016823D01*
X38114883Y-69850000D01*
X38131313Y-69683177D01*
X38179976Y-69522758D01*
X38258995Y-69374924D01*
X38258996Y-69374922D01*
X38365341Y-69245341D01*
X38494922Y-69138996D01*
X38510094Y-69130886D01*
X38642758Y-69059976D01*
X38803177Y-69011313D01*
X38928196Y-68999000D01*
X39811804Y-68999000D01*
X39936823Y-69011313D01*
X39936823Y-69011313D01*
G37*
G36*
X39936823Y-66471313D02*
G01*
X40097242Y-66519976D01*
X40229906Y-66590886D01*
X40245078Y-66598996D01*
X40374659Y-66705341D01*
X40481004Y-66834922D01*
X40481005Y-66834924D01*
X40560024Y-66982758D01*
X40608687Y-67143177D01*
X40625117Y-67310000D01*
X40608687Y-67476823D01*
X40560024Y-67637242D01*
X40489114Y-67769906D01*
X40481004Y-67785078D01*
X40374659Y-67914659D01*
X40245078Y-68021004D01*
X40245076Y-68021005D01*
X40097242Y-68100024D01*
X39936823Y-68148687D01*
X39811804Y-68161000D01*
X38928196Y-68161000D01*
X38803177Y-68148687D01*
X38642758Y-68100024D01*
X38494924Y-68021005D01*
X38494922Y-68021004D01*
X38365341Y-67914659D01*
X38258996Y-67785078D01*
X38250886Y-67769906D01*
X38179976Y-67637242D01*
X38131313Y-67476823D01*
X38114883Y-67310000D01*
X38131313Y-67143177D01*
X38179976Y-66982758D01*
X38258995Y-66834924D01*
X38258996Y-66834922D01*
X38365341Y-66705341D01*
X38494922Y-66598996D01*
X38510094Y-66590886D01*
X38642758Y-66519976D01*
X38803177Y-66471313D01*
X38928196Y-66459000D01*
X39811804Y-66459000D01*
X39936823Y-66471313D01*
X39936823Y-66471313D01*
G37*
G36*
X55176823Y-66471313D02*
G01*
X55337242Y-66519976D01*
X55469906Y-66590886D01*
X55485078Y-66598996D01*
X55614659Y-66705341D01*
X55721004Y-66834922D01*
X55721005Y-66834924D01*
X55800024Y-66982758D01*
X55848687Y-67143177D01*
X55865117Y-67310000D01*
X55848687Y-67476823D01*
X55800024Y-67637242D01*
X55729114Y-67769906D01*
X55721004Y-67785078D01*
X55614659Y-67914659D01*
X55485078Y-68021004D01*
X55485076Y-68021005D01*
X55337242Y-68100024D01*
X55176823Y-68148687D01*
X55051804Y-68161000D01*
X54168196Y-68161000D01*
X54043177Y-68148687D01*
X53882758Y-68100024D01*
X53734924Y-68021005D01*
X53734922Y-68021004D01*
X53605341Y-67914659D01*
X53498996Y-67785078D01*
X53490886Y-67769906D01*
X53419976Y-67637242D01*
X53371313Y-67476823D01*
X53354883Y-67310000D01*
X53371313Y-67143177D01*
X53419976Y-66982758D01*
X53498995Y-66834924D01*
X53498996Y-66834922D01*
X53605341Y-66705341D01*
X53734922Y-66598996D01*
X53750094Y-66590886D01*
X53882758Y-66519976D01*
X54043177Y-66471313D01*
X54168196Y-66459000D01*
X55051804Y-66459000D01*
X55176823Y-66471313D01*
X55176823Y-66471313D01*
G37*
G36*
X55176823Y-63931313D02*
G01*
X55337242Y-63979976D01*
X55469906Y-64050886D01*
X55485078Y-64058996D01*
X55614659Y-64165341D01*
X55721004Y-64294922D01*
X55721005Y-64294924D01*
X55800024Y-64442758D01*
X55848687Y-64603177D01*
X55865117Y-64770000D01*
X55848687Y-64936823D01*
X55800024Y-65097242D01*
X55729114Y-65229906D01*
X55721004Y-65245078D01*
X55614659Y-65374659D01*
X55485078Y-65481004D01*
X55485076Y-65481005D01*
X55337242Y-65560024D01*
X55176823Y-65608687D01*
X55051804Y-65621000D01*
X54168196Y-65621000D01*
X54043177Y-65608687D01*
X53882758Y-65560024D01*
X53734924Y-65481005D01*
X53734922Y-65481004D01*
X53605341Y-65374659D01*
X53498996Y-65245078D01*
X53490886Y-65229906D01*
X53419976Y-65097242D01*
X53371313Y-64936823D01*
X53354883Y-64770000D01*
X53371313Y-64603177D01*
X53419976Y-64442758D01*
X53498995Y-64294924D01*
X53498996Y-64294922D01*
X53605341Y-64165341D01*
X53734922Y-64058996D01*
X53750094Y-64050886D01*
X53882758Y-63979976D01*
X54043177Y-63931313D01*
X54168196Y-63919000D01*
X55051804Y-63919000D01*
X55176823Y-63931313D01*
X55176823Y-63931313D01*
G37*
G36*
X39936823Y-63931313D02*
G01*
X40097242Y-63979976D01*
X40229906Y-64050886D01*
X40245078Y-64058996D01*
X40374659Y-64165341D01*
X40481004Y-64294922D01*
X40481005Y-64294924D01*
X40560024Y-64442758D01*
X40608687Y-64603177D01*
X40625117Y-64770000D01*
X40608687Y-64936823D01*
X40560024Y-65097242D01*
X40489114Y-65229906D01*
X40481004Y-65245078D01*
X40374659Y-65374659D01*
X40245078Y-65481004D01*
X40245076Y-65481005D01*
X40097242Y-65560024D01*
X39936823Y-65608687D01*
X39811804Y-65621000D01*
X38928196Y-65621000D01*
X38803177Y-65608687D01*
X38642758Y-65560024D01*
X38494924Y-65481005D01*
X38494922Y-65481004D01*
X38365341Y-65374659D01*
X38258996Y-65245078D01*
X38250886Y-65229906D01*
X38179976Y-65097242D01*
X38131313Y-64936823D01*
X38114883Y-64770000D01*
X38131313Y-64603177D01*
X38179976Y-64442758D01*
X38258995Y-64294924D01*
X38258996Y-64294922D01*
X38365341Y-64165341D01*
X38494922Y-64058996D01*
X38510094Y-64050886D01*
X38642758Y-63979976D01*
X38803177Y-63931313D01*
X38928196Y-63919000D01*
X39811804Y-63919000D01*
X39936823Y-63931313D01*
X39936823Y-63931313D01*
G37*
G36*
X39936823Y-61391313D02*
G01*
X40097242Y-61439976D01*
X40229906Y-61510886D01*
X40245078Y-61518996D01*
X40374659Y-61625341D01*
X40481004Y-61754922D01*
X40481005Y-61754924D01*
X40560024Y-61902758D01*
X40608687Y-62063177D01*
X40625117Y-62230000D01*
X40608687Y-62396823D01*
X40560024Y-62557242D01*
X40489114Y-62689906D01*
X40481004Y-62705078D01*
X40374659Y-62834659D01*
X40245078Y-62941004D01*
X40245076Y-62941005D01*
X40097242Y-63020024D01*
X39936823Y-63068687D01*
X39811804Y-63081000D01*
X38928196Y-63081000D01*
X38803177Y-63068687D01*
X38642758Y-63020024D01*
X38494924Y-62941005D01*
X38494922Y-62941004D01*
X38365341Y-62834659D01*
X38258996Y-62705078D01*
X38250886Y-62689906D01*
X38179976Y-62557242D01*
X38131313Y-62396823D01*
X38114883Y-62230000D01*
X38131313Y-62063177D01*
X38179976Y-61902758D01*
X38258995Y-61754924D01*
X38258996Y-61754922D01*
X38365341Y-61625341D01*
X38494922Y-61518996D01*
X38510094Y-61510886D01*
X38642758Y-61439976D01*
X38803177Y-61391313D01*
X38928196Y-61379000D01*
X39811804Y-61379000D01*
X39936823Y-61391313D01*
X39936823Y-61391313D01*
G37*
G36*
X55176823Y-61391313D02*
G01*
X55337242Y-61439976D01*
X55469906Y-61510886D01*
X55485078Y-61518996D01*
X55614659Y-61625341D01*
X55721004Y-61754922D01*
X55721005Y-61754924D01*
X55800024Y-61902758D01*
X55848687Y-62063177D01*
X55865117Y-62230000D01*
X55848687Y-62396823D01*
X55800024Y-62557242D01*
X55729114Y-62689906D01*
X55721004Y-62705078D01*
X55614659Y-62834659D01*
X55485078Y-62941004D01*
X55485076Y-62941005D01*
X55337242Y-63020024D01*
X55176823Y-63068687D01*
X55051804Y-63081000D01*
X54168196Y-63081000D01*
X54043177Y-63068687D01*
X53882758Y-63020024D01*
X53734924Y-62941005D01*
X53734922Y-62941004D01*
X53605341Y-62834659D01*
X53498996Y-62705078D01*
X53490886Y-62689906D01*
X53419976Y-62557242D01*
X53371313Y-62396823D01*
X53354883Y-62230000D01*
X53371313Y-62063177D01*
X53419976Y-61902758D01*
X53498995Y-61754924D01*
X53498996Y-61754922D01*
X53605341Y-61625341D01*
X53734922Y-61518996D01*
X53750094Y-61510886D01*
X53882758Y-61439976D01*
X54043177Y-61391313D01*
X54168196Y-61379000D01*
X55051804Y-61379000D01*
X55176823Y-61391313D01*
X55176823Y-61391313D01*
G37*
G36*
X55176823Y-58851313D02*
G01*
X55337242Y-58899976D01*
X55469906Y-58970886D01*
X55485078Y-58978996D01*
X55614659Y-59085341D01*
X55721004Y-59214922D01*
X55721005Y-59214924D01*
X55800024Y-59362758D01*
X55848687Y-59523177D01*
X55865117Y-59690000D01*
X55848687Y-59856823D01*
X55800024Y-60017242D01*
X55729114Y-60149906D01*
X55721004Y-60165078D01*
X55614659Y-60294659D01*
X55485078Y-60401004D01*
X55485076Y-60401005D01*
X55337242Y-60480024D01*
X55176823Y-60528687D01*
X55051804Y-60541000D01*
X54168196Y-60541000D01*
X54043177Y-60528687D01*
X53882758Y-60480024D01*
X53734924Y-60401005D01*
X53734922Y-60401004D01*
X53605341Y-60294659D01*
X53498996Y-60165078D01*
X53490886Y-60149906D01*
X53419976Y-60017242D01*
X53371313Y-59856823D01*
X53354883Y-59690000D01*
X53371313Y-59523177D01*
X53419976Y-59362758D01*
X53498995Y-59214924D01*
X53498996Y-59214922D01*
X53605341Y-59085341D01*
X53734922Y-58978996D01*
X53750094Y-58970886D01*
X53882758Y-58899976D01*
X54043177Y-58851313D01*
X54168196Y-58839000D01*
X55051804Y-58839000D01*
X55176823Y-58851313D01*
X55176823Y-58851313D01*
G37*
G36*
X39936823Y-58851313D02*
G01*
X40097242Y-58899976D01*
X40229906Y-58970886D01*
X40245078Y-58978996D01*
X40374659Y-59085341D01*
X40481004Y-59214922D01*
X40481005Y-59214924D01*
X40560024Y-59362758D01*
X40608687Y-59523177D01*
X40625117Y-59690000D01*
X40608687Y-59856823D01*
X40560024Y-60017242D01*
X40489114Y-60149906D01*
X40481004Y-60165078D01*
X40374659Y-60294659D01*
X40245078Y-60401004D01*
X40245076Y-60401005D01*
X40097242Y-60480024D01*
X39936823Y-60528687D01*
X39811804Y-60541000D01*
X38928196Y-60541000D01*
X38803177Y-60528687D01*
X38642758Y-60480024D01*
X38494924Y-60401005D01*
X38494922Y-60401004D01*
X38365341Y-60294659D01*
X38258996Y-60165078D01*
X38250886Y-60149906D01*
X38179976Y-60017242D01*
X38131313Y-59856823D01*
X38114883Y-59690000D01*
X38131313Y-59523177D01*
X38179976Y-59362758D01*
X38258995Y-59214924D01*
X38258996Y-59214922D01*
X38365341Y-59085341D01*
X38494922Y-58978996D01*
X38510094Y-58970886D01*
X38642758Y-58899976D01*
X38803177Y-58851313D01*
X38928196Y-58839000D01*
X39811804Y-58839000D01*
X39936823Y-58851313D01*
X39936823Y-58851313D01*
G37*
G36*
X71342325Y-57687090D02*
G01*
X71481038Y-57744547D01*
X71605872Y-57827958D01*
X71712042Y-57934128D01*
X71795453Y-58058962D01*
X71852910Y-58197675D01*
X71882200Y-58344929D01*
X71882200Y-58495071D01*
X71852910Y-58642325D01*
X71795453Y-58781038D01*
X71712042Y-58905872D01*
X71605872Y-59012042D01*
X71481038Y-59095453D01*
X71342325Y-59152910D01*
X71195071Y-59182200D01*
X71044929Y-59182200D01*
X70897675Y-59152910D01*
X70758962Y-59095453D01*
X70634128Y-59012042D01*
X70527958Y-58905872D01*
X70444547Y-58781038D01*
X70387090Y-58642325D01*
X70357800Y-58495071D01*
X70357800Y-58344929D01*
X70387090Y-58197675D01*
X70444547Y-58058962D01*
X70527958Y-57934128D01*
X70634128Y-57827958D01*
X70758962Y-57744547D01*
X70897675Y-57687090D01*
X71044929Y-57657800D01*
X71195071Y-57657800D01*
X71342325Y-57687090D01*
X71342325Y-57687090D01*
G37*
G36*
X63722325Y-57687090D02*
G01*
X63861038Y-57744547D01*
X63985872Y-57827958D01*
X64092042Y-57934128D01*
X64175453Y-58058962D01*
X64232910Y-58197675D01*
X64262200Y-58344929D01*
X64262200Y-58495071D01*
X64232910Y-58642325D01*
X64175453Y-58781038D01*
X64092042Y-58905872D01*
X63985872Y-59012042D01*
X63861038Y-59095453D01*
X63722325Y-59152910D01*
X63575071Y-59182200D01*
X63424929Y-59182200D01*
X63277675Y-59152910D01*
X63138962Y-59095453D01*
X63014128Y-59012042D01*
X62907958Y-58905872D01*
X62824547Y-58781038D01*
X62767090Y-58642325D01*
X62737800Y-58495071D01*
X62737800Y-58344929D01*
X62767090Y-58197675D01*
X62824547Y-58058962D01*
X62907958Y-57934128D01*
X63014128Y-57827958D01*
X63138962Y-57744547D01*
X63277675Y-57687090D01*
X63424929Y-57657800D01*
X63575071Y-57657800D01*
X63722325Y-57687090D01*
X63722325Y-57687090D01*
G37*
G36*
X66262325Y-57687090D02*
G01*
X66401038Y-57744547D01*
X66525872Y-57827958D01*
X66632042Y-57934128D01*
X66715453Y-58058962D01*
X66772910Y-58197675D01*
X66802200Y-58344929D01*
X66802200Y-58495071D01*
X66772910Y-58642325D01*
X66715453Y-58781038D01*
X66632042Y-58905872D01*
X66525872Y-59012042D01*
X66401038Y-59095453D01*
X66262325Y-59152910D01*
X66115071Y-59182200D01*
X65964929Y-59182200D01*
X65817675Y-59152910D01*
X65678962Y-59095453D01*
X65554128Y-59012042D01*
X65447958Y-58905872D01*
X65364547Y-58781038D01*
X65307090Y-58642325D01*
X65277800Y-58495071D01*
X65277800Y-58344929D01*
X65307090Y-58197675D01*
X65364547Y-58058962D01*
X65447958Y-57934128D01*
X65554128Y-57827958D01*
X65678962Y-57744547D01*
X65817675Y-57687090D01*
X65964929Y-57657800D01*
X66115071Y-57657800D01*
X66262325Y-57687090D01*
X66262325Y-57687090D01*
G37*
G36*
X76422325Y-57687090D02*
G01*
X76561038Y-57744547D01*
X76685872Y-57827958D01*
X76792042Y-57934128D01*
X76875453Y-58058962D01*
X76932910Y-58197675D01*
X76962200Y-58344929D01*
X76962200Y-58495071D01*
X76932910Y-58642325D01*
X76875453Y-58781038D01*
X76792042Y-58905872D01*
X76685872Y-59012042D01*
X76561038Y-59095453D01*
X76422325Y-59152910D01*
X76275071Y-59182200D01*
X76124929Y-59182200D01*
X75977675Y-59152910D01*
X75838962Y-59095453D01*
X75714128Y-59012042D01*
X75607958Y-58905872D01*
X75524547Y-58781038D01*
X75467090Y-58642325D01*
X75437800Y-58495071D01*
X75437800Y-58344929D01*
X75467090Y-58197675D01*
X75524547Y-58058962D01*
X75607958Y-57934128D01*
X75714128Y-57827958D01*
X75838962Y-57744547D01*
X75977675Y-57687090D01*
X76124929Y-57657800D01*
X76275071Y-57657800D01*
X76422325Y-57687090D01*
X76422325Y-57687090D01*
G37*
G36*
X73882325Y-57687090D02*
G01*
X74021038Y-57744547D01*
X74145872Y-57827958D01*
X74252042Y-57934128D01*
X74335453Y-58058962D01*
X74392910Y-58197675D01*
X74422200Y-58344929D01*
X74422200Y-58495071D01*
X74392910Y-58642325D01*
X74335453Y-58781038D01*
X74252042Y-58905872D01*
X74145872Y-59012042D01*
X74021038Y-59095453D01*
X73882325Y-59152910D01*
X73735071Y-59182200D01*
X73584929Y-59182200D01*
X73437675Y-59152910D01*
X73298962Y-59095453D01*
X73174128Y-59012042D01*
X73067958Y-58905872D01*
X72984547Y-58781038D01*
X72927090Y-58642325D01*
X72897800Y-58495071D01*
X72897800Y-58344929D01*
X72927090Y-58197675D01*
X72984547Y-58058962D01*
X73067958Y-57934128D01*
X73174128Y-57827958D01*
X73298962Y-57744547D01*
X73437675Y-57687090D01*
X73584929Y-57657800D01*
X73735071Y-57657800D01*
X73882325Y-57687090D01*
X73882325Y-57687090D01*
G37*
G36*
X68802325Y-57687090D02*
G01*
X68941038Y-57744547D01*
X69065872Y-57827958D01*
X69172042Y-57934128D01*
X69255453Y-58058962D01*
X69312910Y-58197675D01*
X69342200Y-58344929D01*
X69342200Y-58495071D01*
X69312910Y-58642325D01*
X69255453Y-58781038D01*
X69172042Y-58905872D01*
X69065872Y-59012042D01*
X68941038Y-59095453D01*
X68802325Y-59152910D01*
X68655071Y-59182200D01*
X68504929Y-59182200D01*
X68357675Y-59152910D01*
X68218962Y-59095453D01*
X68094128Y-59012042D01*
X67987958Y-58905872D01*
X67904547Y-58781038D01*
X67847090Y-58642325D01*
X67817800Y-58495071D01*
X67817800Y-58344929D01*
X67847090Y-58197675D01*
X67904547Y-58058962D01*
X67987958Y-57934128D01*
X68094128Y-57827958D01*
X68218962Y-57744547D01*
X68357675Y-57687090D01*
X68504929Y-57657800D01*
X68655071Y-57657800D01*
X68802325Y-57687090D01*
X68802325Y-57687090D01*
G37*
G36*
X39936823Y-56311313D02*
G01*
X40097242Y-56359976D01*
X40229906Y-56430886D01*
X40245078Y-56438996D01*
X40374659Y-56545341D01*
X40481004Y-56674922D01*
X40481005Y-56674924D01*
X40560024Y-56822758D01*
X40608687Y-56983177D01*
X40625117Y-57150000D01*
X40608687Y-57316823D01*
X40560024Y-57477242D01*
X40489114Y-57609906D01*
X40481004Y-57625078D01*
X40374659Y-57754659D01*
X40245078Y-57861004D01*
X40245076Y-57861005D01*
X40097242Y-57940024D01*
X39936823Y-57988687D01*
X39811804Y-58001000D01*
X38928196Y-58001000D01*
X38803177Y-57988687D01*
X38642758Y-57940024D01*
X38494924Y-57861005D01*
X38494922Y-57861004D01*
X38365341Y-57754659D01*
X38258996Y-57625078D01*
X38250886Y-57609906D01*
X38179976Y-57477242D01*
X38131313Y-57316823D01*
X38114883Y-57150000D01*
X38131313Y-56983177D01*
X38179976Y-56822758D01*
X38258995Y-56674924D01*
X38258996Y-56674922D01*
X38365341Y-56545341D01*
X38494922Y-56438996D01*
X38510094Y-56430886D01*
X38642758Y-56359976D01*
X38803177Y-56311313D01*
X38928196Y-56299000D01*
X39811804Y-56299000D01*
X39936823Y-56311313D01*
X39936823Y-56311313D01*
G37*
G36*
X55176823Y-56311313D02*
G01*
X55337242Y-56359976D01*
X55469906Y-56430886D01*
X55485078Y-56438996D01*
X55614659Y-56545341D01*
X55721004Y-56674922D01*
X55721005Y-56674924D01*
X55800024Y-56822758D01*
X55848687Y-56983177D01*
X55865117Y-57150000D01*
X55848687Y-57316823D01*
X55800024Y-57477242D01*
X55729114Y-57609906D01*
X55721004Y-57625078D01*
X55614659Y-57754659D01*
X55485078Y-57861004D01*
X55485076Y-57861005D01*
X55337242Y-57940024D01*
X55176823Y-57988687D01*
X55051804Y-58001000D01*
X54168196Y-58001000D01*
X54043177Y-57988687D01*
X53882758Y-57940024D01*
X53734924Y-57861005D01*
X53734922Y-57861004D01*
X53605341Y-57754659D01*
X53498996Y-57625078D01*
X53490886Y-57609906D01*
X53419976Y-57477242D01*
X53371313Y-57316823D01*
X53354883Y-57150000D01*
X53371313Y-56983177D01*
X53419976Y-56822758D01*
X53498995Y-56674924D01*
X53498996Y-56674922D01*
X53605341Y-56545341D01*
X53734922Y-56438996D01*
X53750094Y-56430886D01*
X53882758Y-56359976D01*
X54043177Y-56311313D01*
X54168196Y-56299000D01*
X55051804Y-56299000D01*
X55176823Y-56311313D01*
X55176823Y-56311313D01*
G37*
G36*
X61182325Y-55147090D02*
G01*
X61321038Y-55204547D01*
X61445872Y-55287958D01*
X61552042Y-55394128D01*
X61635453Y-55518962D01*
X61692910Y-55657675D01*
X61722200Y-55804929D01*
X61722200Y-55955071D01*
X61692910Y-56102325D01*
X61635453Y-56241038D01*
X61552042Y-56365872D01*
X61445872Y-56472042D01*
X61321038Y-56555453D01*
X61182325Y-56612910D01*
X61035071Y-56642200D01*
X60884929Y-56642200D01*
X60737675Y-56612910D01*
X60598962Y-56555453D01*
X60474128Y-56472042D01*
X60367958Y-56365872D01*
X60284547Y-56241038D01*
X60227090Y-56102325D01*
X60197800Y-55955071D01*
X60197800Y-55804929D01*
X60227090Y-55657675D01*
X60284547Y-55518962D01*
X60367958Y-55394128D01*
X60474128Y-55287958D01*
X60598962Y-55204547D01*
X60737675Y-55147090D01*
X60884929Y-55117800D01*
X61035071Y-55117800D01*
X61182325Y-55147090D01*
X61182325Y-55147090D01*
G37*
G36*
X76422325Y-55147090D02*
G01*
X76561038Y-55204547D01*
X76685872Y-55287958D01*
X76792042Y-55394128D01*
X76875453Y-55518962D01*
X76932910Y-55657675D01*
X76962200Y-55804929D01*
X76962200Y-55955071D01*
X76932910Y-56102325D01*
X76875453Y-56241038D01*
X76792042Y-56365872D01*
X76685872Y-56472042D01*
X76561038Y-56555453D01*
X76422325Y-56612910D01*
X76275071Y-56642200D01*
X76124929Y-56642200D01*
X75977675Y-56612910D01*
X75838962Y-56555453D01*
X75714128Y-56472042D01*
X75607958Y-56365872D01*
X75524547Y-56241038D01*
X75467090Y-56102325D01*
X75437800Y-55955071D01*
X75437800Y-55804929D01*
X75467090Y-55657675D01*
X75524547Y-55518962D01*
X75607958Y-55394128D01*
X75714128Y-55287958D01*
X75838962Y-55204547D01*
X75977675Y-55147090D01*
X76124929Y-55117800D01*
X76275071Y-55117800D01*
X76422325Y-55147090D01*
X76422325Y-55147090D01*
G37*
G36*
X73882325Y-55147090D02*
G01*
X74021038Y-55204547D01*
X74145872Y-55287958D01*
X74252042Y-55394128D01*
X74335453Y-55518962D01*
X74392910Y-55657675D01*
X74422200Y-55804929D01*
X74422200Y-55955071D01*
X74392910Y-56102325D01*
X74335453Y-56241038D01*
X74252042Y-56365872D01*
X74145872Y-56472042D01*
X74021038Y-56555453D01*
X73882325Y-56612910D01*
X73735071Y-56642200D01*
X73584929Y-56642200D01*
X73437675Y-56612910D01*
X73298962Y-56555453D01*
X73174128Y-56472042D01*
X73067958Y-56365872D01*
X72984547Y-56241038D01*
X72927090Y-56102325D01*
X72897800Y-55955071D01*
X72897800Y-55804929D01*
X72927090Y-55657675D01*
X72984547Y-55518962D01*
X73067958Y-55394128D01*
X73174128Y-55287958D01*
X73298962Y-55204547D01*
X73437675Y-55147090D01*
X73584929Y-55117800D01*
X73735071Y-55117800D01*
X73882325Y-55147090D01*
X73882325Y-55147090D01*
G37*
G36*
X71342325Y-55147090D02*
G01*
X71481038Y-55204547D01*
X71605872Y-55287958D01*
X71712042Y-55394128D01*
X71795453Y-55518962D01*
X71852910Y-55657675D01*
X71882200Y-55804929D01*
X71882200Y-55955071D01*
X71852910Y-56102325D01*
X71795453Y-56241038D01*
X71712042Y-56365872D01*
X71605872Y-56472042D01*
X71481038Y-56555453D01*
X71342325Y-56612910D01*
X71195071Y-56642200D01*
X71044929Y-56642200D01*
X70897675Y-56612910D01*
X70758962Y-56555453D01*
X70634128Y-56472042D01*
X70527958Y-56365872D01*
X70444547Y-56241038D01*
X70387090Y-56102325D01*
X70357800Y-55955071D01*
X70357800Y-55804929D01*
X70387090Y-55657675D01*
X70444547Y-55518962D01*
X70527958Y-55394128D01*
X70634128Y-55287958D01*
X70758962Y-55204547D01*
X70897675Y-55147090D01*
X71044929Y-55117800D01*
X71195071Y-55117800D01*
X71342325Y-55147090D01*
X71342325Y-55147090D01*
G37*
G36*
X66262325Y-55147090D02*
G01*
X66401038Y-55204547D01*
X66525872Y-55287958D01*
X66632042Y-55394128D01*
X66715453Y-55518962D01*
X66772910Y-55657675D01*
X66802200Y-55804929D01*
X66802200Y-55955071D01*
X66772910Y-56102325D01*
X66715453Y-56241038D01*
X66632042Y-56365872D01*
X66525872Y-56472042D01*
X66401038Y-56555453D01*
X66262325Y-56612910D01*
X66115071Y-56642200D01*
X65964929Y-56642200D01*
X65817675Y-56612910D01*
X65678962Y-56555453D01*
X65554128Y-56472042D01*
X65447958Y-56365872D01*
X65364547Y-56241038D01*
X65307090Y-56102325D01*
X65277800Y-55955071D01*
X65277800Y-55804929D01*
X65307090Y-55657675D01*
X65364547Y-55518962D01*
X65447958Y-55394128D01*
X65554128Y-55287958D01*
X65678962Y-55204547D01*
X65817675Y-55147090D01*
X65964929Y-55117800D01*
X66115071Y-55117800D01*
X66262325Y-55147090D01*
X66262325Y-55147090D01*
G37*
G36*
X63722325Y-55147090D02*
G01*
X63861038Y-55204547D01*
X63985872Y-55287958D01*
X64092042Y-55394128D01*
X64175453Y-55518962D01*
X64232910Y-55657675D01*
X64262200Y-55804929D01*
X64262200Y-55955071D01*
X64232910Y-56102325D01*
X64175453Y-56241038D01*
X64092042Y-56365872D01*
X63985872Y-56472042D01*
X63861038Y-56555453D01*
X63722325Y-56612910D01*
X63575071Y-56642200D01*
X63424929Y-56642200D01*
X63277675Y-56612910D01*
X63138962Y-56555453D01*
X63014128Y-56472042D01*
X62907958Y-56365872D01*
X62824547Y-56241038D01*
X62767090Y-56102325D01*
X62737800Y-55955071D01*
X62737800Y-55804929D01*
X62767090Y-55657675D01*
X62824547Y-55518962D01*
X62907958Y-55394128D01*
X63014128Y-55287958D01*
X63138962Y-55204547D01*
X63277675Y-55147090D01*
X63424929Y-55117800D01*
X63575071Y-55117800D01*
X63722325Y-55147090D01*
X63722325Y-55147090D01*
G37*
G36*
X78962325Y-55147090D02*
G01*
X79101038Y-55204547D01*
X79225872Y-55287958D01*
X79332042Y-55394128D01*
X79415453Y-55518962D01*
X79472910Y-55657675D01*
X79502200Y-55804929D01*
X79502200Y-55955071D01*
X79472910Y-56102325D01*
X79415453Y-56241038D01*
X79332042Y-56365872D01*
X79225872Y-56472042D01*
X79101038Y-56555453D01*
X78962325Y-56612910D01*
X78815071Y-56642200D01*
X78664929Y-56642200D01*
X78517675Y-56612910D01*
X78378962Y-56555453D01*
X78254128Y-56472042D01*
X78147958Y-56365872D01*
X78064547Y-56241038D01*
X78007090Y-56102325D01*
X77977800Y-55955071D01*
X77977800Y-55804929D01*
X78007090Y-55657675D01*
X78064547Y-55518962D01*
X78147958Y-55394128D01*
X78254128Y-55287958D01*
X78378962Y-55204547D01*
X78517675Y-55147090D01*
X78664929Y-55117800D01*
X78815071Y-55117800D01*
X78962325Y-55147090D01*
X78962325Y-55147090D01*
G37*
G36*
X68802325Y-55147090D02*
G01*
X68941038Y-55204547D01*
X69065872Y-55287958D01*
X69172042Y-55394128D01*
X69255453Y-55518962D01*
X69312910Y-55657675D01*
X69342200Y-55804929D01*
X69342200Y-55955071D01*
X69312910Y-56102325D01*
X69255453Y-56241038D01*
X69172042Y-56365872D01*
X69065872Y-56472042D01*
X68941038Y-56555453D01*
X68802325Y-56612910D01*
X68655071Y-56642200D01*
X68504929Y-56642200D01*
X68357675Y-56612910D01*
X68218962Y-56555453D01*
X68094128Y-56472042D01*
X67987958Y-56365872D01*
X67904547Y-56241038D01*
X67847090Y-56102325D01*
X67817800Y-55955071D01*
X67817800Y-55804929D01*
X67847090Y-55657675D01*
X67904547Y-55518962D01*
X67987958Y-55394128D01*
X68094128Y-55287958D01*
X68218962Y-55204547D01*
X68357675Y-55147090D01*
X68504929Y-55117800D01*
X68655071Y-55117800D01*
X68802325Y-55147090D01*
X68802325Y-55147090D01*
G37*
G36*
X39936823Y-53771313D02*
G01*
X40097242Y-53819976D01*
X40229906Y-53890886D01*
X40245078Y-53898996D01*
X40374659Y-54005341D01*
X40481004Y-54134922D01*
X40481005Y-54134924D01*
X40560024Y-54282758D01*
X40608687Y-54443177D01*
X40625117Y-54610000D01*
X40608687Y-54776823D01*
X40560024Y-54937242D01*
X40489114Y-55069906D01*
X40481004Y-55085078D01*
X40374659Y-55214659D01*
X40245078Y-55321004D01*
X40245076Y-55321005D01*
X40097242Y-55400024D01*
X39936823Y-55448687D01*
X39811804Y-55461000D01*
X38928196Y-55461000D01*
X38803177Y-55448687D01*
X38642758Y-55400024D01*
X38494924Y-55321005D01*
X38494922Y-55321004D01*
X38365341Y-55214659D01*
X38258996Y-55085078D01*
X38250886Y-55069906D01*
X38179976Y-54937242D01*
X38131313Y-54776823D01*
X38114883Y-54610000D01*
X38131313Y-54443177D01*
X38179976Y-54282758D01*
X38258995Y-54134924D01*
X38258996Y-54134922D01*
X38365341Y-54005341D01*
X38494922Y-53898996D01*
X38510094Y-53890886D01*
X38642758Y-53819976D01*
X38803177Y-53771313D01*
X38928196Y-53759000D01*
X39811804Y-53759000D01*
X39936823Y-53771313D01*
X39936823Y-53771313D01*
G37*
G36*
X55176823Y-53771313D02*
G01*
X55337242Y-53819976D01*
X55469906Y-53890886D01*
X55485078Y-53898996D01*
X55614659Y-54005341D01*
X55721004Y-54134922D01*
X55721005Y-54134924D01*
X55800024Y-54282758D01*
X55848687Y-54443177D01*
X55865117Y-54610000D01*
X55848687Y-54776823D01*
X55800024Y-54937242D01*
X55729114Y-55069906D01*
X55721004Y-55085078D01*
X55614659Y-55214659D01*
X55485078Y-55321004D01*
X55485076Y-55321005D01*
X55337242Y-55400024D01*
X55176823Y-55448687D01*
X55051804Y-55461000D01*
X54168196Y-55461000D01*
X54043177Y-55448687D01*
X53882758Y-55400024D01*
X53734924Y-55321005D01*
X53734922Y-55321004D01*
X53605341Y-55214659D01*
X53498996Y-55085078D01*
X53490886Y-55069906D01*
X53419976Y-54937242D01*
X53371313Y-54776823D01*
X53354883Y-54610000D01*
X53371313Y-54443177D01*
X53419976Y-54282758D01*
X53498995Y-54134924D01*
X53498996Y-54134922D01*
X53605341Y-54005341D01*
X53734922Y-53898996D01*
X53750094Y-53890886D01*
X53882758Y-53819976D01*
X54043177Y-53771313D01*
X54168196Y-53759000D01*
X55051804Y-53759000D01*
X55176823Y-53771313D01*
X55176823Y-53771313D01*
G37*
G36*
X76422325Y-52607090D02*
G01*
X76561038Y-52664547D01*
X76685872Y-52747958D01*
X76792042Y-52854128D01*
X76875453Y-52978962D01*
X76932910Y-53117675D01*
X76962200Y-53264929D01*
X76962200Y-53415071D01*
X76932910Y-53562325D01*
X76875453Y-53701038D01*
X76792042Y-53825872D01*
X76685872Y-53932042D01*
X76561038Y-54015453D01*
X76422325Y-54072910D01*
X76275071Y-54102200D01*
X76124929Y-54102200D01*
X75977675Y-54072910D01*
X75838962Y-54015453D01*
X75714128Y-53932042D01*
X75607958Y-53825872D01*
X75524547Y-53701038D01*
X75467090Y-53562325D01*
X75437800Y-53415071D01*
X75437800Y-53264929D01*
X75467090Y-53117675D01*
X75524547Y-52978962D01*
X75607958Y-52854128D01*
X75714128Y-52747958D01*
X75838962Y-52664547D01*
X75977675Y-52607090D01*
X76124929Y-52577800D01*
X76275071Y-52577800D01*
X76422325Y-52607090D01*
X76422325Y-52607090D01*
G37*
G36*
X63722325Y-52607090D02*
G01*
X63861038Y-52664547D01*
X63985872Y-52747958D01*
X64092042Y-52854128D01*
X64175453Y-52978962D01*
X64232910Y-53117675D01*
X64262200Y-53264929D01*
X64262200Y-53415071D01*
X64232910Y-53562325D01*
X64175453Y-53701038D01*
X64092042Y-53825872D01*
X63985872Y-53932042D01*
X63861038Y-54015453D01*
X63722325Y-54072910D01*
X63575071Y-54102200D01*
X63424929Y-54102200D01*
X63277675Y-54072910D01*
X63138962Y-54015453D01*
X63014128Y-53932042D01*
X62907958Y-53825872D01*
X62824547Y-53701038D01*
X62767090Y-53562325D01*
X62737800Y-53415071D01*
X62737800Y-53264929D01*
X62767090Y-53117675D01*
X62824547Y-52978962D01*
X62907958Y-52854128D01*
X63014128Y-52747958D01*
X63138962Y-52664547D01*
X63277675Y-52607090D01*
X63424929Y-52577800D01*
X63575071Y-52577800D01*
X63722325Y-52607090D01*
X63722325Y-52607090D01*
G37*
G36*
X78962325Y-52607090D02*
G01*
X79101038Y-52664547D01*
X79225872Y-52747958D01*
X79332042Y-52854128D01*
X79415453Y-52978962D01*
X79472910Y-53117675D01*
X79502200Y-53264929D01*
X79502200Y-53415071D01*
X79472910Y-53562325D01*
X79415453Y-53701038D01*
X79332042Y-53825872D01*
X79225872Y-53932042D01*
X79101038Y-54015453D01*
X78962325Y-54072910D01*
X78815071Y-54102200D01*
X78664929Y-54102200D01*
X78517675Y-54072910D01*
X78378962Y-54015453D01*
X78254128Y-53932042D01*
X78147958Y-53825872D01*
X78064547Y-53701038D01*
X78007090Y-53562325D01*
X77977800Y-53415071D01*
X77977800Y-53264929D01*
X78007090Y-53117675D01*
X78064547Y-52978962D01*
X78147958Y-52854128D01*
X78254128Y-52747958D01*
X78378962Y-52664547D01*
X78517675Y-52607090D01*
X78664929Y-52577800D01*
X78815071Y-52577800D01*
X78962325Y-52607090D01*
X78962325Y-52607090D01*
G37*
G36*
X61182325Y-52607090D02*
G01*
X61321038Y-52664547D01*
X61445872Y-52747958D01*
X61552042Y-52854128D01*
X61635453Y-52978962D01*
X61692910Y-53117675D01*
X61722200Y-53264929D01*
X61722200Y-53415071D01*
X61692910Y-53562325D01*
X61635453Y-53701038D01*
X61552042Y-53825872D01*
X61445872Y-53932042D01*
X61321038Y-54015453D01*
X61182325Y-54072910D01*
X61035071Y-54102200D01*
X60884929Y-54102200D01*
X60737675Y-54072910D01*
X60598962Y-54015453D01*
X60474128Y-53932042D01*
X60367958Y-53825872D01*
X60284547Y-53701038D01*
X60227090Y-53562325D01*
X60197800Y-53415071D01*
X60197800Y-53264929D01*
X60227090Y-53117675D01*
X60284547Y-52978962D01*
X60367958Y-52854128D01*
X60474128Y-52747958D01*
X60598962Y-52664547D01*
X60737675Y-52607090D01*
X60884929Y-52577800D01*
X61035071Y-52577800D01*
X61182325Y-52607090D01*
X61182325Y-52607090D01*
G37*
G36*
X55176823Y-51231313D02*
G01*
X55337242Y-51279976D01*
X55469906Y-51350886D01*
X55485078Y-51358996D01*
X55614659Y-51465341D01*
X55721004Y-51594922D01*
X55721005Y-51594924D01*
X55800024Y-51742758D01*
X55848687Y-51903177D01*
X55865117Y-52070000D01*
X55848687Y-52236823D01*
X55800024Y-52397242D01*
X55729114Y-52529906D01*
X55721004Y-52545078D01*
X55614659Y-52674659D01*
X55485078Y-52781004D01*
X55485076Y-52781005D01*
X55337242Y-52860024D01*
X55176823Y-52908687D01*
X55051804Y-52921000D01*
X54168196Y-52921000D01*
X54043177Y-52908687D01*
X53882758Y-52860024D01*
X53734924Y-52781005D01*
X53734922Y-52781004D01*
X53605341Y-52674659D01*
X53498996Y-52545078D01*
X53490886Y-52529906D01*
X53419976Y-52397242D01*
X53371313Y-52236823D01*
X53354883Y-52070000D01*
X53371313Y-51903177D01*
X53419976Y-51742758D01*
X53498995Y-51594924D01*
X53498996Y-51594922D01*
X53605341Y-51465341D01*
X53734922Y-51358996D01*
X53750094Y-51350886D01*
X53882758Y-51279976D01*
X54043177Y-51231313D01*
X54168196Y-51219000D01*
X55051804Y-51219000D01*
X55176823Y-51231313D01*
X55176823Y-51231313D01*
G37*
G36*
X39936823Y-51231313D02*
G01*
X40097242Y-51279976D01*
X40229906Y-51350886D01*
X40245078Y-51358996D01*
X40374659Y-51465341D01*
X40481004Y-51594922D01*
X40481005Y-51594924D01*
X40560024Y-51742758D01*
X40608687Y-51903177D01*
X40625117Y-52070000D01*
X40608687Y-52236823D01*
X40560024Y-52397242D01*
X40489114Y-52529906D01*
X40481004Y-52545078D01*
X40374659Y-52674659D01*
X40245078Y-52781004D01*
X40245076Y-52781005D01*
X40097242Y-52860024D01*
X39936823Y-52908687D01*
X39811804Y-52921000D01*
X38928196Y-52921000D01*
X38803177Y-52908687D01*
X38642758Y-52860024D01*
X38494924Y-52781005D01*
X38494922Y-52781004D01*
X38365341Y-52674659D01*
X38258996Y-52545078D01*
X38250886Y-52529906D01*
X38179976Y-52397242D01*
X38131313Y-52236823D01*
X38114883Y-52070000D01*
X38131313Y-51903177D01*
X38179976Y-51742758D01*
X38258995Y-51594924D01*
X38258996Y-51594922D01*
X38365341Y-51465341D01*
X38494922Y-51358996D01*
X38510094Y-51350886D01*
X38642758Y-51279976D01*
X38803177Y-51231313D01*
X38928196Y-51219000D01*
X39811804Y-51219000D01*
X39936823Y-51231313D01*
X39936823Y-51231313D01*
G37*
G36*
X61182325Y-50067090D02*
G01*
X61321038Y-50124547D01*
X61445872Y-50207958D01*
X61552042Y-50314128D01*
X61635453Y-50438962D01*
X61692910Y-50577675D01*
X61722200Y-50724929D01*
X61722200Y-50875071D01*
X61692910Y-51022325D01*
X61635453Y-51161038D01*
X61552042Y-51285872D01*
X61445872Y-51392042D01*
X61321038Y-51475453D01*
X61182325Y-51532910D01*
X61035071Y-51562200D01*
X60884929Y-51562200D01*
X60737675Y-51532910D01*
X60598962Y-51475453D01*
X60474128Y-51392042D01*
X60367958Y-51285872D01*
X60284547Y-51161038D01*
X60227090Y-51022325D01*
X60197800Y-50875071D01*
X60197800Y-50724929D01*
X60227090Y-50577675D01*
X60284547Y-50438962D01*
X60367958Y-50314128D01*
X60474128Y-50207958D01*
X60598962Y-50124547D01*
X60737675Y-50067090D01*
X60884929Y-50037800D01*
X61035071Y-50037800D01*
X61182325Y-50067090D01*
X61182325Y-50067090D01*
G37*
G36*
X76422325Y-50067090D02*
G01*
X76561038Y-50124547D01*
X76685872Y-50207958D01*
X76792042Y-50314128D01*
X76875453Y-50438962D01*
X76932910Y-50577675D01*
X76962200Y-50724929D01*
X76962200Y-50875071D01*
X76932910Y-51022325D01*
X76875453Y-51161038D01*
X76792042Y-51285872D01*
X76685872Y-51392042D01*
X76561038Y-51475453D01*
X76422325Y-51532910D01*
X76275071Y-51562200D01*
X76124929Y-51562200D01*
X75977675Y-51532910D01*
X75838962Y-51475453D01*
X75714128Y-51392042D01*
X75607958Y-51285872D01*
X75524547Y-51161038D01*
X75467090Y-51022325D01*
X75437800Y-50875071D01*
X75437800Y-50724929D01*
X75467090Y-50577675D01*
X75524547Y-50438962D01*
X75607958Y-50314128D01*
X75714128Y-50207958D01*
X75838962Y-50124547D01*
X75977675Y-50067090D01*
X76124929Y-50037800D01*
X76275071Y-50037800D01*
X76422325Y-50067090D01*
X76422325Y-50067090D01*
G37*
G36*
X63722325Y-50067090D02*
G01*
X63861038Y-50124547D01*
X63985872Y-50207958D01*
X64092042Y-50314128D01*
X64175453Y-50438962D01*
X64232910Y-50577675D01*
X64262200Y-50724929D01*
X64262200Y-50875071D01*
X64232910Y-51022325D01*
X64175453Y-51161038D01*
X64092042Y-51285872D01*
X63985872Y-51392042D01*
X63861038Y-51475453D01*
X63722325Y-51532910D01*
X63575071Y-51562200D01*
X63424929Y-51562200D01*
X63277675Y-51532910D01*
X63138962Y-51475453D01*
X63014128Y-51392042D01*
X62907958Y-51285872D01*
X62824547Y-51161038D01*
X62767090Y-51022325D01*
X62737800Y-50875071D01*
X62737800Y-50724929D01*
X62767090Y-50577675D01*
X62824547Y-50438962D01*
X62907958Y-50314128D01*
X63014128Y-50207958D01*
X63138962Y-50124547D01*
X63277675Y-50067090D01*
X63424929Y-50037800D01*
X63575071Y-50037800D01*
X63722325Y-50067090D01*
X63722325Y-50067090D01*
G37*
G36*
X78962325Y-50067090D02*
G01*
X79101038Y-50124547D01*
X79225872Y-50207958D01*
X79332042Y-50314128D01*
X79415453Y-50438962D01*
X79472910Y-50577675D01*
X79502200Y-50724929D01*
X79502200Y-50875071D01*
X79472910Y-51022325D01*
X79415453Y-51161038D01*
X79332042Y-51285872D01*
X79225872Y-51392042D01*
X79101038Y-51475453D01*
X78962325Y-51532910D01*
X78815071Y-51562200D01*
X78664929Y-51562200D01*
X78517675Y-51532910D01*
X78378962Y-51475453D01*
X78254128Y-51392042D01*
X78147958Y-51285872D01*
X78064547Y-51161038D01*
X78007090Y-51022325D01*
X77977800Y-50875071D01*
X77977800Y-50724929D01*
X78007090Y-50577675D01*
X78064547Y-50438962D01*
X78147958Y-50314128D01*
X78254128Y-50207958D01*
X78378962Y-50124547D01*
X78517675Y-50067090D01*
X78664929Y-50037800D01*
X78815071Y-50037800D01*
X78962325Y-50067090D01*
X78962325Y-50067090D01*
G37*
G36*
X39936823Y-48691313D02*
G01*
X40097242Y-48739976D01*
X40229906Y-48810886D01*
X40245078Y-48818996D01*
X40374659Y-48925341D01*
X40481004Y-49054922D01*
X40481005Y-49054924D01*
X40560024Y-49202758D01*
X40608687Y-49363177D01*
X40625117Y-49530000D01*
X40608687Y-49696823D01*
X40560024Y-49857242D01*
X40489114Y-49989906D01*
X40481004Y-50005078D01*
X40374659Y-50134659D01*
X40245078Y-50241004D01*
X40245076Y-50241005D01*
X40097242Y-50320024D01*
X39936823Y-50368687D01*
X39811804Y-50381000D01*
X38928196Y-50381000D01*
X38803177Y-50368687D01*
X38642758Y-50320024D01*
X38494924Y-50241005D01*
X38494922Y-50241004D01*
X38365341Y-50134659D01*
X38258996Y-50005078D01*
X38250886Y-49989906D01*
X38179976Y-49857242D01*
X38131313Y-49696823D01*
X38114883Y-49530000D01*
X38131313Y-49363177D01*
X38179976Y-49202758D01*
X38258995Y-49054924D01*
X38258996Y-49054922D01*
X38365341Y-48925341D01*
X38494922Y-48818996D01*
X38510094Y-48810886D01*
X38642758Y-48739976D01*
X38803177Y-48691313D01*
X38928196Y-48679000D01*
X39811804Y-48679000D01*
X39936823Y-48691313D01*
X39936823Y-48691313D01*
G37*
G36*
X55176823Y-48691313D02*
G01*
X55337242Y-48739976D01*
X55469906Y-48810886D01*
X55485078Y-48818996D01*
X55614659Y-48925341D01*
X55721004Y-49054922D01*
X55721005Y-49054924D01*
X55800024Y-49202758D01*
X55848687Y-49363177D01*
X55865117Y-49530000D01*
X55848687Y-49696823D01*
X55800024Y-49857242D01*
X55729114Y-49989906D01*
X55721004Y-50005078D01*
X55614659Y-50134659D01*
X55485078Y-50241004D01*
X55485076Y-50241005D01*
X55337242Y-50320024D01*
X55176823Y-50368687D01*
X55051804Y-50381000D01*
X54168196Y-50381000D01*
X54043177Y-50368687D01*
X53882758Y-50320024D01*
X53734924Y-50241005D01*
X53734922Y-50241004D01*
X53605341Y-50134659D01*
X53498996Y-50005078D01*
X53490886Y-49989906D01*
X53419976Y-49857242D01*
X53371313Y-49696823D01*
X53354883Y-49530000D01*
X53371313Y-49363177D01*
X53419976Y-49202758D01*
X53498995Y-49054924D01*
X53498996Y-49054922D01*
X53605341Y-48925341D01*
X53734922Y-48818996D01*
X53750094Y-48810886D01*
X53882758Y-48739976D01*
X54043177Y-48691313D01*
X54168196Y-48679000D01*
X55051804Y-48679000D01*
X55176823Y-48691313D01*
X55176823Y-48691313D01*
G37*
G36*
X76422325Y-47527090D02*
G01*
X76561038Y-47584547D01*
X76685872Y-47667958D01*
X76792042Y-47774128D01*
X76875453Y-47898962D01*
X76932910Y-48037675D01*
X76962200Y-48184929D01*
X76962200Y-48335071D01*
X76932910Y-48482325D01*
X76875453Y-48621038D01*
X76792042Y-48745872D01*
X76685872Y-48852042D01*
X76561038Y-48935453D01*
X76422325Y-48992910D01*
X76275071Y-49022200D01*
X76124929Y-49022200D01*
X75977675Y-48992910D01*
X75838962Y-48935453D01*
X75714128Y-48852042D01*
X75607958Y-48745872D01*
X75524547Y-48621038D01*
X75467090Y-48482325D01*
X75437800Y-48335071D01*
X75437800Y-48184929D01*
X75467090Y-48037675D01*
X75524547Y-47898962D01*
X75607958Y-47774128D01*
X75714128Y-47667958D01*
X75838962Y-47584547D01*
X75977675Y-47527090D01*
X76124929Y-47497800D01*
X76275071Y-47497800D01*
X76422325Y-47527090D01*
X76422325Y-47527090D01*
G37*
G36*
X61182325Y-47527090D02*
G01*
X61321038Y-47584547D01*
X61445872Y-47667958D01*
X61552042Y-47774128D01*
X61635453Y-47898962D01*
X61692910Y-48037675D01*
X61722200Y-48184929D01*
X61722200Y-48335071D01*
X61692910Y-48482325D01*
X61635453Y-48621038D01*
X61552042Y-48745872D01*
X61445872Y-48852042D01*
X61321038Y-48935453D01*
X61182325Y-48992910D01*
X61035071Y-49022200D01*
X60884929Y-49022200D01*
X60737675Y-48992910D01*
X60598962Y-48935453D01*
X60474128Y-48852042D01*
X60367958Y-48745872D01*
X60284547Y-48621038D01*
X60227090Y-48482325D01*
X60197800Y-48335071D01*
X60197800Y-48184929D01*
X60227090Y-48037675D01*
X60284547Y-47898962D01*
X60367958Y-47774128D01*
X60474128Y-47667958D01*
X60598962Y-47584547D01*
X60737675Y-47527090D01*
X60884929Y-47497800D01*
X61035071Y-47497800D01*
X61182325Y-47527090D01*
X61182325Y-47527090D01*
G37*
G36*
X63722325Y-47527090D02*
G01*
X63861038Y-47584547D01*
X63985872Y-47667958D01*
X64092042Y-47774128D01*
X64175453Y-47898962D01*
X64232910Y-48037675D01*
X64262200Y-48184929D01*
X64262200Y-48335071D01*
X64232910Y-48482325D01*
X64175453Y-48621038D01*
X64092042Y-48745872D01*
X63985872Y-48852042D01*
X63861038Y-48935453D01*
X63722325Y-48992910D01*
X63575071Y-49022200D01*
X63424929Y-49022200D01*
X63277675Y-48992910D01*
X63138962Y-48935453D01*
X63014128Y-48852042D01*
X62907958Y-48745872D01*
X62824547Y-48621038D01*
X62767090Y-48482325D01*
X62737800Y-48335071D01*
X62737800Y-48184929D01*
X62767090Y-48037675D01*
X62824547Y-47898962D01*
X62907958Y-47774128D01*
X63014128Y-47667958D01*
X63138962Y-47584547D01*
X63277675Y-47527090D01*
X63424929Y-47497800D01*
X63575071Y-47497800D01*
X63722325Y-47527090D01*
X63722325Y-47527090D01*
G37*
G36*
X78962325Y-47527090D02*
G01*
X79101038Y-47584547D01*
X79225872Y-47667958D01*
X79332042Y-47774128D01*
X79415453Y-47898962D01*
X79472910Y-48037675D01*
X79502200Y-48184929D01*
X79502200Y-48335071D01*
X79472910Y-48482325D01*
X79415453Y-48621038D01*
X79332042Y-48745872D01*
X79225872Y-48852042D01*
X79101038Y-48935453D01*
X78962325Y-48992910D01*
X78815071Y-49022200D01*
X78664929Y-49022200D01*
X78517675Y-48992910D01*
X78378962Y-48935453D01*
X78254128Y-48852042D01*
X78147958Y-48745872D01*
X78064547Y-48621038D01*
X78007090Y-48482325D01*
X77977800Y-48335071D01*
X77977800Y-48184929D01*
X78007090Y-48037675D01*
X78064547Y-47898962D01*
X78147958Y-47774128D01*
X78254128Y-47667958D01*
X78378962Y-47584547D01*
X78517675Y-47527090D01*
X78664929Y-47497800D01*
X78815071Y-47497800D01*
X78962325Y-47527090D01*
X78962325Y-47527090D01*
G37*
G36*
X55176823Y-46151313D02*
G01*
X55337242Y-46199976D01*
X55469906Y-46270886D01*
X55485078Y-46278996D01*
X55614659Y-46385341D01*
X55721004Y-46514922D01*
X55721005Y-46514924D01*
X55800024Y-46662758D01*
X55848687Y-46823177D01*
X55865117Y-46990000D01*
X55848687Y-47156823D01*
X55800024Y-47317242D01*
X55729114Y-47449906D01*
X55721004Y-47465078D01*
X55614659Y-47594659D01*
X55485078Y-47701004D01*
X55485076Y-47701005D01*
X55337242Y-47780024D01*
X55176823Y-47828687D01*
X55051804Y-47841000D01*
X54168196Y-47841000D01*
X54043177Y-47828687D01*
X53882758Y-47780024D01*
X53734924Y-47701005D01*
X53734922Y-47701004D01*
X53605341Y-47594659D01*
X53498996Y-47465078D01*
X53490886Y-47449906D01*
X53419976Y-47317242D01*
X53371313Y-47156823D01*
X53354883Y-46990000D01*
X53371313Y-46823177D01*
X53419976Y-46662758D01*
X53498995Y-46514924D01*
X53498996Y-46514922D01*
X53605341Y-46385341D01*
X53734922Y-46278996D01*
X53750094Y-46270886D01*
X53882758Y-46199976D01*
X54043177Y-46151313D01*
X54168196Y-46139000D01*
X55051804Y-46139000D01*
X55176823Y-46151313D01*
X55176823Y-46151313D01*
G37*
G36*
X39936823Y-46151313D02*
G01*
X40097242Y-46199976D01*
X40229906Y-46270886D01*
X40245078Y-46278996D01*
X40374659Y-46385341D01*
X40481004Y-46514922D01*
X40481005Y-46514924D01*
X40560024Y-46662758D01*
X40608687Y-46823177D01*
X40625117Y-46990000D01*
X40608687Y-47156823D01*
X40560024Y-47317242D01*
X40489114Y-47449906D01*
X40481004Y-47465078D01*
X40374659Y-47594659D01*
X40245078Y-47701004D01*
X40245076Y-47701005D01*
X40097242Y-47780024D01*
X39936823Y-47828687D01*
X39811804Y-47841000D01*
X38928196Y-47841000D01*
X38803177Y-47828687D01*
X38642758Y-47780024D01*
X38494924Y-47701005D01*
X38494922Y-47701004D01*
X38365341Y-47594659D01*
X38258996Y-47465078D01*
X38250886Y-47449906D01*
X38179976Y-47317242D01*
X38131313Y-47156823D01*
X38114883Y-46990000D01*
X38131313Y-46823177D01*
X38179976Y-46662758D01*
X38258995Y-46514924D01*
X38258996Y-46514922D01*
X38365341Y-46385341D01*
X38494922Y-46278996D01*
X38510094Y-46270886D01*
X38642758Y-46199976D01*
X38803177Y-46151313D01*
X38928196Y-46139000D01*
X39811804Y-46139000D01*
X39936823Y-46151313D01*
X39936823Y-46151313D01*
G37*
G36*
X78962325Y-44987090D02*
G01*
X79101038Y-45044547D01*
X79225872Y-45127958D01*
X79332042Y-45234128D01*
X79415453Y-45358962D01*
X79472910Y-45497675D01*
X79502200Y-45644929D01*
X79502200Y-45795071D01*
X79472910Y-45942325D01*
X79415453Y-46081038D01*
X79332042Y-46205872D01*
X79225872Y-46312042D01*
X79101038Y-46395453D01*
X78962325Y-46452910D01*
X78815071Y-46482200D01*
X78664929Y-46482200D01*
X78517675Y-46452910D01*
X78378962Y-46395453D01*
X78254128Y-46312042D01*
X78147958Y-46205872D01*
X78064547Y-46081038D01*
X78007090Y-45942325D01*
X77977800Y-45795071D01*
X77977800Y-45644929D01*
X78007090Y-45497675D01*
X78064547Y-45358962D01*
X78147958Y-45234128D01*
X78254128Y-45127958D01*
X78378962Y-45044547D01*
X78517675Y-44987090D01*
X78664929Y-44957800D01*
X78815071Y-44957800D01*
X78962325Y-44987090D01*
X78962325Y-44987090D01*
G37*
G36*
X63722325Y-44987090D02*
G01*
X63861038Y-45044547D01*
X63985872Y-45127958D01*
X64092042Y-45234128D01*
X64175453Y-45358962D01*
X64232910Y-45497675D01*
X64262200Y-45644929D01*
X64262200Y-45795071D01*
X64232910Y-45942325D01*
X64175453Y-46081038D01*
X64092042Y-46205872D01*
X63985872Y-46312042D01*
X63861038Y-46395453D01*
X63722325Y-46452910D01*
X63575071Y-46482200D01*
X63424929Y-46482200D01*
X63277675Y-46452910D01*
X63138962Y-46395453D01*
X63014128Y-46312042D01*
X62907958Y-46205872D01*
X62824547Y-46081038D01*
X62767090Y-45942325D01*
X62737800Y-45795071D01*
X62737800Y-45644929D01*
X62767090Y-45497675D01*
X62824547Y-45358962D01*
X62907958Y-45234128D01*
X63014128Y-45127958D01*
X63138962Y-45044547D01*
X63277675Y-44987090D01*
X63424929Y-44957800D01*
X63575071Y-44957800D01*
X63722325Y-44987090D01*
X63722325Y-44987090D01*
G37*
G36*
X61182325Y-44987090D02*
G01*
X61321038Y-45044547D01*
X61445872Y-45127958D01*
X61552042Y-45234128D01*
X61635453Y-45358962D01*
X61692910Y-45497675D01*
X61722200Y-45644929D01*
X61722200Y-45795071D01*
X61692910Y-45942325D01*
X61635453Y-46081038D01*
X61552042Y-46205872D01*
X61445872Y-46312042D01*
X61321038Y-46395453D01*
X61182325Y-46452910D01*
X61035071Y-46482200D01*
X60884929Y-46482200D01*
X60737675Y-46452910D01*
X60598962Y-46395453D01*
X60474128Y-46312042D01*
X60367958Y-46205872D01*
X60284547Y-46081038D01*
X60227090Y-45942325D01*
X60197800Y-45795071D01*
X60197800Y-45644929D01*
X60227090Y-45497675D01*
X60284547Y-45358962D01*
X60367958Y-45234128D01*
X60474128Y-45127958D01*
X60598962Y-45044547D01*
X60737675Y-44987090D01*
X60884929Y-44957800D01*
X61035071Y-44957800D01*
X61182325Y-44987090D01*
X61182325Y-44987090D01*
G37*
G36*
X76422325Y-44987090D02*
G01*
X76561038Y-45044547D01*
X76685872Y-45127958D01*
X76792042Y-45234128D01*
X76875453Y-45358962D01*
X76932910Y-45497675D01*
X76962200Y-45644929D01*
X76962200Y-45795071D01*
X76932910Y-45942325D01*
X76875453Y-46081038D01*
X76792042Y-46205872D01*
X76685872Y-46312042D01*
X76561038Y-46395453D01*
X76422325Y-46452910D01*
X76275071Y-46482200D01*
X76124929Y-46482200D01*
X75977675Y-46452910D01*
X75838962Y-46395453D01*
X75714128Y-46312042D01*
X75607958Y-46205872D01*
X75524547Y-46081038D01*
X75467090Y-45942325D01*
X75437800Y-45795071D01*
X75437800Y-45644929D01*
X75467090Y-45497675D01*
X75524547Y-45358962D01*
X75607958Y-45234128D01*
X75714128Y-45127958D01*
X75838962Y-45044547D01*
X75977675Y-44987090D01*
X76124929Y-44957800D01*
X76275071Y-44957800D01*
X76422325Y-44987090D01*
X76422325Y-44987090D01*
G37*
G36*
X55176823Y-43611313D02*
G01*
X55337242Y-43659976D01*
X55469906Y-43730886D01*
X55485078Y-43738996D01*
X55614659Y-43845341D01*
X55721004Y-43974922D01*
X55721005Y-43974924D01*
X55800024Y-44122758D01*
X55848687Y-44283177D01*
X55865117Y-44450000D01*
X55848687Y-44616823D01*
X55800024Y-44777242D01*
X55729114Y-44909906D01*
X55721004Y-44925078D01*
X55614659Y-45054659D01*
X55485078Y-45161004D01*
X55485076Y-45161005D01*
X55337242Y-45240024D01*
X55176823Y-45288687D01*
X55051804Y-45301000D01*
X54168196Y-45301000D01*
X54043177Y-45288687D01*
X53882758Y-45240024D01*
X53734924Y-45161005D01*
X53734922Y-45161004D01*
X53605341Y-45054659D01*
X53498996Y-44925078D01*
X53490886Y-44909906D01*
X53419976Y-44777242D01*
X53371313Y-44616823D01*
X53354883Y-44450000D01*
X53371313Y-44283177D01*
X53419976Y-44122758D01*
X53498995Y-43974924D01*
X53498996Y-43974922D01*
X53605341Y-43845341D01*
X53734922Y-43738996D01*
X53750094Y-43730886D01*
X53882758Y-43659976D01*
X54043177Y-43611313D01*
X54168196Y-43599000D01*
X55051804Y-43599000D01*
X55176823Y-43611313D01*
X55176823Y-43611313D01*
G37*
G36*
X39936823Y-43611313D02*
G01*
X40097242Y-43659976D01*
X40229906Y-43730886D01*
X40245078Y-43738996D01*
X40374659Y-43845341D01*
X40481004Y-43974922D01*
X40481005Y-43974924D01*
X40560024Y-44122758D01*
X40608687Y-44283177D01*
X40625117Y-44450000D01*
X40608687Y-44616823D01*
X40560024Y-44777242D01*
X40489114Y-44909906D01*
X40481004Y-44925078D01*
X40374659Y-45054659D01*
X40245078Y-45161004D01*
X40245076Y-45161005D01*
X40097242Y-45240024D01*
X39936823Y-45288687D01*
X39811804Y-45301000D01*
X38928196Y-45301000D01*
X38803177Y-45288687D01*
X38642758Y-45240024D01*
X38494924Y-45161005D01*
X38494922Y-45161004D01*
X38365341Y-45054659D01*
X38258996Y-44925078D01*
X38250886Y-44909906D01*
X38179976Y-44777242D01*
X38131313Y-44616823D01*
X38114883Y-44450000D01*
X38131313Y-44283177D01*
X38179976Y-44122758D01*
X38258995Y-43974924D01*
X38258996Y-43974922D01*
X38365341Y-43845341D01*
X38494922Y-43738996D01*
X38510094Y-43730886D01*
X38642758Y-43659976D01*
X38803177Y-43611313D01*
X38928196Y-43599000D01*
X39811804Y-43599000D01*
X39936823Y-43611313D01*
X39936823Y-43611313D01*
G37*
G36*
X78962325Y-42447090D02*
G01*
X79101038Y-42504547D01*
X79225872Y-42587958D01*
X79332042Y-42694128D01*
X79415453Y-42818962D01*
X79472910Y-42957675D01*
X79502200Y-43104929D01*
X79502200Y-43255071D01*
X79472910Y-43402325D01*
X79415453Y-43541038D01*
X79332042Y-43665872D01*
X79225872Y-43772042D01*
X79101038Y-43855453D01*
X78962325Y-43912910D01*
X78815071Y-43942200D01*
X78664929Y-43942200D01*
X78517675Y-43912910D01*
X78378962Y-43855453D01*
X78254128Y-43772042D01*
X78147958Y-43665872D01*
X78064547Y-43541038D01*
X78007090Y-43402325D01*
X77977800Y-43255071D01*
X77977800Y-43104929D01*
X78007090Y-42957675D01*
X78064547Y-42818962D01*
X78147958Y-42694128D01*
X78254128Y-42587958D01*
X78378962Y-42504547D01*
X78517675Y-42447090D01*
X78664929Y-42417800D01*
X78815071Y-42417800D01*
X78962325Y-42447090D01*
X78962325Y-42447090D01*
G37*
G36*
X61182325Y-42447090D02*
G01*
X61321038Y-42504547D01*
X61445872Y-42587958D01*
X61552042Y-42694128D01*
X61635453Y-42818962D01*
X61692910Y-42957675D01*
X61722200Y-43104929D01*
X61722200Y-43255071D01*
X61692910Y-43402325D01*
X61635453Y-43541038D01*
X61552042Y-43665872D01*
X61445872Y-43772042D01*
X61321038Y-43855453D01*
X61182325Y-43912910D01*
X61035071Y-43942200D01*
X60884929Y-43942200D01*
X60737675Y-43912910D01*
X60598962Y-43855453D01*
X60474128Y-43772042D01*
X60367958Y-43665872D01*
X60284547Y-43541038D01*
X60227090Y-43402325D01*
X60197800Y-43255071D01*
X60197800Y-43104929D01*
X60227090Y-42957675D01*
X60284547Y-42818962D01*
X60367958Y-42694128D01*
X60474128Y-42587958D01*
X60598962Y-42504547D01*
X60737675Y-42447090D01*
X60884929Y-42417800D01*
X61035071Y-42417800D01*
X61182325Y-42447090D01*
X61182325Y-42447090D01*
G37*
G36*
X73882325Y-42447090D02*
G01*
X74021038Y-42504547D01*
X74145872Y-42587958D01*
X74252042Y-42694128D01*
X74335453Y-42818962D01*
X74392910Y-42957675D01*
X74422200Y-43104929D01*
X74422200Y-43255071D01*
X74392910Y-43402325D01*
X74335453Y-43541038D01*
X74252042Y-43665872D01*
X74145872Y-43772042D01*
X74021038Y-43855453D01*
X73882325Y-43912910D01*
X73735071Y-43942200D01*
X73584929Y-43942200D01*
X73437675Y-43912910D01*
X73298962Y-43855453D01*
X73174128Y-43772042D01*
X73067958Y-43665872D01*
X72984547Y-43541038D01*
X72927090Y-43402325D01*
X72897800Y-43255071D01*
X72897800Y-43104929D01*
X72927090Y-42957675D01*
X72984547Y-42818962D01*
X73067958Y-42694128D01*
X73174128Y-42587958D01*
X73298962Y-42504547D01*
X73437675Y-42447090D01*
X73584929Y-42417800D01*
X73735071Y-42417800D01*
X73882325Y-42447090D01*
X73882325Y-42447090D01*
G37*
G36*
X71882200Y-43942200D02*
G01*
X70357800Y-43942200D01*
X70357800Y-42417800D01*
X71882200Y-42417800D01*
X71882200Y-43942200D01*
X71882200Y-43942200D01*
G37*
G36*
X66262325Y-42447090D02*
G01*
X66401038Y-42504547D01*
X66525872Y-42587958D01*
X66632042Y-42694128D01*
X66715453Y-42818962D01*
X66772910Y-42957675D01*
X66802200Y-43104929D01*
X66802200Y-43255071D01*
X66772910Y-43402325D01*
X66715453Y-43541038D01*
X66632042Y-43665872D01*
X66525872Y-43772042D01*
X66401038Y-43855453D01*
X66262325Y-43912910D01*
X66115071Y-43942200D01*
X65964929Y-43942200D01*
X65817675Y-43912910D01*
X65678962Y-43855453D01*
X65554128Y-43772042D01*
X65447958Y-43665872D01*
X65364547Y-43541038D01*
X65307090Y-43402325D01*
X65277800Y-43255071D01*
X65277800Y-43104929D01*
X65307090Y-42957675D01*
X65364547Y-42818962D01*
X65447958Y-42694128D01*
X65554128Y-42587958D01*
X65678962Y-42504547D01*
X65817675Y-42447090D01*
X65964929Y-42417800D01*
X66115071Y-42417800D01*
X66262325Y-42447090D01*
X66262325Y-42447090D01*
G37*
G36*
X76422325Y-42447090D02*
G01*
X76561038Y-42504547D01*
X76685872Y-42587958D01*
X76792042Y-42694128D01*
X76875453Y-42818962D01*
X76932910Y-42957675D01*
X76962200Y-43104929D01*
X76962200Y-43255071D01*
X76932910Y-43402325D01*
X76875453Y-43541038D01*
X76792042Y-43665872D01*
X76685872Y-43772042D01*
X76561038Y-43855453D01*
X76422325Y-43912910D01*
X76275071Y-43942200D01*
X76124929Y-43942200D01*
X75977675Y-43912910D01*
X75838962Y-43855453D01*
X75714128Y-43772042D01*
X75607958Y-43665872D01*
X75524547Y-43541038D01*
X75467090Y-43402325D01*
X75437800Y-43255071D01*
X75437800Y-43104929D01*
X75467090Y-42957675D01*
X75524547Y-42818962D01*
X75607958Y-42694128D01*
X75714128Y-42587958D01*
X75838962Y-42504547D01*
X75977675Y-42447090D01*
X76124929Y-42417800D01*
X76275071Y-42417800D01*
X76422325Y-42447090D01*
X76422325Y-42447090D01*
G37*
G36*
X63722325Y-42447090D02*
G01*
X63861038Y-42504547D01*
X63985872Y-42587958D01*
X64092042Y-42694128D01*
X64175453Y-42818962D01*
X64232910Y-42957675D01*
X64262200Y-43104929D01*
X64262200Y-43255071D01*
X64232910Y-43402325D01*
X64175453Y-43541038D01*
X64092042Y-43665872D01*
X63985872Y-43772042D01*
X63861038Y-43855453D01*
X63722325Y-43912910D01*
X63575071Y-43942200D01*
X63424929Y-43942200D01*
X63277675Y-43912910D01*
X63138962Y-43855453D01*
X63014128Y-43772042D01*
X62907958Y-43665872D01*
X62824547Y-43541038D01*
X62767090Y-43402325D01*
X62737800Y-43255071D01*
X62737800Y-43104929D01*
X62767090Y-42957675D01*
X62824547Y-42818962D01*
X62907958Y-42694128D01*
X63014128Y-42587958D01*
X63138962Y-42504547D01*
X63277675Y-42447090D01*
X63424929Y-42417800D01*
X63575071Y-42417800D01*
X63722325Y-42447090D01*
X63722325Y-42447090D01*
G37*
G36*
X68802325Y-42447090D02*
G01*
X68941038Y-42504547D01*
X69065872Y-42587958D01*
X69172042Y-42694128D01*
X69255453Y-42818962D01*
X69312910Y-42957675D01*
X69342200Y-43104929D01*
X69342200Y-43255071D01*
X69312910Y-43402325D01*
X69255453Y-43541038D01*
X69172042Y-43665872D01*
X69065872Y-43772042D01*
X68941038Y-43855453D01*
X68802325Y-43912910D01*
X68655071Y-43942200D01*
X68504929Y-43942200D01*
X68357675Y-43912910D01*
X68218962Y-43855453D01*
X68094128Y-43772042D01*
X67987958Y-43665872D01*
X67904547Y-43541038D01*
X67847090Y-43402325D01*
X67817800Y-43255071D01*
X67817800Y-43104929D01*
X67847090Y-42957675D01*
X67904547Y-42818962D01*
X67987958Y-42694128D01*
X68094128Y-42587958D01*
X68218962Y-42504547D01*
X68357675Y-42447090D01*
X68504929Y-42417800D01*
X68655071Y-42417800D01*
X68802325Y-42447090D01*
X68802325Y-42447090D01*
G37*
G36*
X39936823Y-41071313D02*
G01*
X40097242Y-41119976D01*
X40229906Y-41190886D01*
X40245078Y-41198996D01*
X40374659Y-41305341D01*
X40481004Y-41434922D01*
X40481005Y-41434924D01*
X40560024Y-41582758D01*
X40608687Y-41743177D01*
X40625117Y-41910000D01*
X40608687Y-42076823D01*
X40560024Y-42237242D01*
X40489114Y-42369906D01*
X40481004Y-42385078D01*
X40374659Y-42514659D01*
X40245078Y-42621004D01*
X40245076Y-42621005D01*
X40097242Y-42700024D01*
X39936823Y-42748687D01*
X39811804Y-42761000D01*
X38928196Y-42761000D01*
X38803177Y-42748687D01*
X38642758Y-42700024D01*
X38494924Y-42621005D01*
X38494922Y-42621004D01*
X38365341Y-42514659D01*
X38258996Y-42385078D01*
X38250886Y-42369906D01*
X38179976Y-42237242D01*
X38131313Y-42076823D01*
X38114883Y-41910000D01*
X38131313Y-41743177D01*
X38179976Y-41582758D01*
X38258995Y-41434924D01*
X38258996Y-41434922D01*
X38365341Y-41305341D01*
X38494922Y-41198996D01*
X38510094Y-41190886D01*
X38642758Y-41119976D01*
X38803177Y-41071313D01*
X38928196Y-41059000D01*
X39811804Y-41059000D01*
X39936823Y-41071313D01*
X39936823Y-41071313D01*
G37*
G36*
X55176823Y-41071313D02*
G01*
X55337242Y-41119976D01*
X55469906Y-41190886D01*
X55485078Y-41198996D01*
X55614659Y-41305341D01*
X55721004Y-41434922D01*
X55721005Y-41434924D01*
X55800024Y-41582758D01*
X55848687Y-41743177D01*
X55865117Y-41910000D01*
X55848687Y-42076823D01*
X55800024Y-42237242D01*
X55729114Y-42369906D01*
X55721004Y-42385078D01*
X55614659Y-42514659D01*
X55485078Y-42621004D01*
X55485076Y-42621005D01*
X55337242Y-42700024D01*
X55176823Y-42748687D01*
X55051804Y-42761000D01*
X54168196Y-42761000D01*
X54043177Y-42748687D01*
X53882758Y-42700024D01*
X53734924Y-42621005D01*
X53734922Y-42621004D01*
X53605341Y-42514659D01*
X53498996Y-42385078D01*
X53490886Y-42369906D01*
X53419976Y-42237242D01*
X53371313Y-42076823D01*
X53354883Y-41910000D01*
X53371313Y-41743177D01*
X53419976Y-41582758D01*
X53498995Y-41434924D01*
X53498996Y-41434922D01*
X53605341Y-41305341D01*
X53734922Y-41198996D01*
X53750094Y-41190886D01*
X53882758Y-41119976D01*
X54043177Y-41071313D01*
X54168196Y-41059000D01*
X55051804Y-41059000D01*
X55176823Y-41071313D01*
X55176823Y-41071313D01*
G37*
G36*
X71342325Y-39907090D02*
G01*
X71481038Y-39964547D01*
X71605872Y-40047958D01*
X71712042Y-40154128D01*
X71795453Y-40278962D01*
X71852910Y-40417675D01*
X71882200Y-40564929D01*
X71882200Y-40715071D01*
X71852910Y-40862325D01*
X71795453Y-41001038D01*
X71712042Y-41125872D01*
X71605872Y-41232042D01*
X71481038Y-41315453D01*
X71342325Y-41372910D01*
X71195071Y-41402200D01*
X71044929Y-41402200D01*
X70897675Y-41372910D01*
X70758962Y-41315453D01*
X70634128Y-41232042D01*
X70527958Y-41125872D01*
X70444547Y-41001038D01*
X70387090Y-40862325D01*
X70357800Y-40715071D01*
X70357800Y-40564929D01*
X70387090Y-40417675D01*
X70444547Y-40278962D01*
X70527958Y-40154128D01*
X70634128Y-40047958D01*
X70758962Y-39964547D01*
X70897675Y-39907090D01*
X71044929Y-39877800D01*
X71195071Y-39877800D01*
X71342325Y-39907090D01*
X71342325Y-39907090D01*
G37*
G36*
X63722325Y-39907090D02*
G01*
X63861038Y-39964547D01*
X63985872Y-40047958D01*
X64092042Y-40154128D01*
X64175453Y-40278962D01*
X64232910Y-40417675D01*
X64262200Y-40564929D01*
X64262200Y-40715071D01*
X64232910Y-40862325D01*
X64175453Y-41001038D01*
X64092042Y-41125872D01*
X63985872Y-41232042D01*
X63861038Y-41315453D01*
X63722325Y-41372910D01*
X63575071Y-41402200D01*
X63424929Y-41402200D01*
X63277675Y-41372910D01*
X63138962Y-41315453D01*
X63014128Y-41232042D01*
X62907958Y-41125872D01*
X62824547Y-41001038D01*
X62767090Y-40862325D01*
X62737800Y-40715071D01*
X62737800Y-40564929D01*
X62767090Y-40417675D01*
X62824547Y-40278962D01*
X62907958Y-40154128D01*
X63014128Y-40047958D01*
X63138962Y-39964547D01*
X63277675Y-39907090D01*
X63424929Y-39877800D01*
X63575071Y-39877800D01*
X63722325Y-39907090D01*
X63722325Y-39907090D01*
G37*
G36*
X66262325Y-39907090D02*
G01*
X66401038Y-39964547D01*
X66525872Y-40047958D01*
X66632042Y-40154128D01*
X66715453Y-40278962D01*
X66772910Y-40417675D01*
X66802200Y-40564929D01*
X66802200Y-40715071D01*
X66772910Y-40862325D01*
X66715453Y-41001038D01*
X66632042Y-41125872D01*
X66525872Y-41232042D01*
X66401038Y-41315453D01*
X66262325Y-41372910D01*
X66115071Y-41402200D01*
X65964929Y-41402200D01*
X65817675Y-41372910D01*
X65678962Y-41315453D01*
X65554128Y-41232042D01*
X65447958Y-41125872D01*
X65364547Y-41001038D01*
X65307090Y-40862325D01*
X65277800Y-40715071D01*
X65277800Y-40564929D01*
X65307090Y-40417675D01*
X65364547Y-40278962D01*
X65447958Y-40154128D01*
X65554128Y-40047958D01*
X65678962Y-39964547D01*
X65817675Y-39907090D01*
X65964929Y-39877800D01*
X66115071Y-39877800D01*
X66262325Y-39907090D01*
X66262325Y-39907090D01*
G37*
G36*
X76422325Y-39907090D02*
G01*
X76561038Y-39964547D01*
X76685872Y-40047958D01*
X76792042Y-40154128D01*
X76875453Y-40278962D01*
X76932910Y-40417675D01*
X76962200Y-40564929D01*
X76962200Y-40715071D01*
X76932910Y-40862325D01*
X76875453Y-41001038D01*
X76792042Y-41125872D01*
X76685872Y-41232042D01*
X76561038Y-41315453D01*
X76422325Y-41372910D01*
X76275071Y-41402200D01*
X76124929Y-41402200D01*
X75977675Y-41372910D01*
X75838962Y-41315453D01*
X75714128Y-41232042D01*
X75607958Y-41125872D01*
X75524547Y-41001038D01*
X75467090Y-40862325D01*
X75437800Y-40715071D01*
X75437800Y-40564929D01*
X75467090Y-40417675D01*
X75524547Y-40278962D01*
X75607958Y-40154128D01*
X75714128Y-40047958D01*
X75838962Y-39964547D01*
X75977675Y-39907090D01*
X76124929Y-39877800D01*
X76275071Y-39877800D01*
X76422325Y-39907090D01*
X76422325Y-39907090D01*
G37*
G36*
X68802325Y-39907090D02*
G01*
X68941038Y-39964547D01*
X69065872Y-40047958D01*
X69172042Y-40154128D01*
X69255453Y-40278962D01*
X69312910Y-40417675D01*
X69342200Y-40564929D01*
X69342200Y-40715071D01*
X69312910Y-40862325D01*
X69255453Y-41001038D01*
X69172042Y-41125872D01*
X69065872Y-41232042D01*
X68941038Y-41315453D01*
X68802325Y-41372910D01*
X68655071Y-41402200D01*
X68504929Y-41402200D01*
X68357675Y-41372910D01*
X68218962Y-41315453D01*
X68094128Y-41232042D01*
X67987958Y-41125872D01*
X67904547Y-41001038D01*
X67847090Y-40862325D01*
X67817800Y-40715071D01*
X67817800Y-40564929D01*
X67847090Y-40417675D01*
X67904547Y-40278962D01*
X67987958Y-40154128D01*
X68094128Y-40047958D01*
X68218962Y-39964547D01*
X68357675Y-39907090D01*
X68504929Y-39877800D01*
X68655071Y-39877800D01*
X68802325Y-39907090D01*
X68802325Y-39907090D01*
G37*
G36*
X73882325Y-39907090D02*
G01*
X74021038Y-39964547D01*
X74145872Y-40047958D01*
X74252042Y-40154128D01*
X74335453Y-40278962D01*
X74392910Y-40417675D01*
X74422200Y-40564929D01*
X74422200Y-40715071D01*
X74392910Y-40862325D01*
X74335453Y-41001038D01*
X74252042Y-41125872D01*
X74145872Y-41232042D01*
X74021038Y-41315453D01*
X73882325Y-41372910D01*
X73735071Y-41402200D01*
X73584929Y-41402200D01*
X73437675Y-41372910D01*
X73298962Y-41315453D01*
X73174128Y-41232042D01*
X73067958Y-41125872D01*
X72984547Y-41001038D01*
X72927090Y-40862325D01*
X72897800Y-40715071D01*
X72897800Y-40564929D01*
X72927090Y-40417675D01*
X72984547Y-40278962D01*
X73067958Y-40154128D01*
X73174128Y-40047958D01*
X73298962Y-39964547D01*
X73437675Y-39907090D01*
X73584929Y-39877800D01*
X73735071Y-39877800D01*
X73882325Y-39907090D01*
X73882325Y-39907090D01*
G37*
G36*
X39936823Y-38531313D02*
G01*
X40097242Y-38579976D01*
X40229906Y-38650886D01*
X40245078Y-38658996D01*
X40374659Y-38765341D01*
X40481004Y-38894922D01*
X40481005Y-38894924D01*
X40560024Y-39042758D01*
X40608687Y-39203177D01*
X40625117Y-39370000D01*
X40608687Y-39536823D01*
X40560024Y-39697242D01*
X40489114Y-39829906D01*
X40481004Y-39845078D01*
X40374659Y-39974659D01*
X40245078Y-40081004D01*
X40245076Y-40081005D01*
X40097242Y-40160024D01*
X39936823Y-40208687D01*
X39811804Y-40221000D01*
X38928196Y-40221000D01*
X38803177Y-40208687D01*
X38642758Y-40160024D01*
X38494924Y-40081005D01*
X38494922Y-40081004D01*
X38365341Y-39974659D01*
X38258996Y-39845078D01*
X38250886Y-39829906D01*
X38179976Y-39697242D01*
X38131313Y-39536823D01*
X38114883Y-39370000D01*
X38131313Y-39203177D01*
X38179976Y-39042758D01*
X38258995Y-38894924D01*
X38258996Y-38894922D01*
X38365341Y-38765341D01*
X38494922Y-38658996D01*
X38510094Y-38650886D01*
X38642758Y-38579976D01*
X38803177Y-38531313D01*
X38928196Y-38519000D01*
X39811804Y-38519000D01*
X39936823Y-38531313D01*
X39936823Y-38531313D01*
G37*
G36*
X55176823Y-38531313D02*
G01*
X55337242Y-38579976D01*
X55469906Y-38650886D01*
X55485078Y-38658996D01*
X55614659Y-38765341D01*
X55721004Y-38894922D01*
X55721005Y-38894924D01*
X55800024Y-39042758D01*
X55848687Y-39203177D01*
X55865117Y-39370000D01*
X55848687Y-39536823D01*
X55800024Y-39697242D01*
X55729114Y-39829906D01*
X55721004Y-39845078D01*
X55614659Y-39974659D01*
X55485078Y-40081004D01*
X55485076Y-40081005D01*
X55337242Y-40160024D01*
X55176823Y-40208687D01*
X55051804Y-40221000D01*
X54168196Y-40221000D01*
X54043177Y-40208687D01*
X53882758Y-40160024D01*
X53734924Y-40081005D01*
X53734922Y-40081004D01*
X53605341Y-39974659D01*
X53498996Y-39845078D01*
X53490886Y-39829906D01*
X53419976Y-39697242D01*
X53371313Y-39536823D01*
X53354883Y-39370000D01*
X53371313Y-39203177D01*
X53419976Y-39042758D01*
X53498995Y-38894924D01*
X53498996Y-38894922D01*
X53605341Y-38765341D01*
X53734922Y-38658996D01*
X53750094Y-38650886D01*
X53882758Y-38579976D01*
X54043177Y-38531313D01*
X54168196Y-38519000D01*
X55051804Y-38519000D01*
X55176823Y-38531313D01*
X55176823Y-38531313D01*
G37*
G36*
X39936823Y-35991313D02*
G01*
X40097242Y-36039976D01*
X40229906Y-36110886D01*
X40245078Y-36118996D01*
X40374659Y-36225341D01*
X40481004Y-36354922D01*
X40481005Y-36354924D01*
X40560024Y-36502758D01*
X40608687Y-36663177D01*
X40625117Y-36830000D01*
X40608687Y-36996823D01*
X40560024Y-37157242D01*
X40489114Y-37289906D01*
X40481004Y-37305078D01*
X40374659Y-37434659D01*
X40245078Y-37541004D01*
X40245076Y-37541005D01*
X40097242Y-37620024D01*
X39936823Y-37668687D01*
X39811804Y-37681000D01*
X38928196Y-37681000D01*
X38803177Y-37668687D01*
X38642758Y-37620024D01*
X38494924Y-37541005D01*
X38494922Y-37541004D01*
X38365341Y-37434659D01*
X38258996Y-37305078D01*
X38250886Y-37289906D01*
X38179976Y-37157242D01*
X38131313Y-36996823D01*
X38114883Y-36830000D01*
X38131313Y-36663177D01*
X38179976Y-36502758D01*
X38258995Y-36354924D01*
X38258996Y-36354922D01*
X38365341Y-36225341D01*
X38494922Y-36118996D01*
X38510094Y-36110886D01*
X38642758Y-36039976D01*
X38803177Y-35991313D01*
X38928196Y-35979000D01*
X39811804Y-35979000D01*
X39936823Y-35991313D01*
X39936823Y-35991313D01*
G37*
G36*
X55176823Y-35991313D02*
G01*
X55337242Y-36039976D01*
X55469906Y-36110886D01*
X55485078Y-36118996D01*
X55614659Y-36225341D01*
X55721004Y-36354922D01*
X55721005Y-36354924D01*
X55800024Y-36502758D01*
X55848687Y-36663177D01*
X55865117Y-36830000D01*
X55848687Y-36996823D01*
X55800024Y-37157242D01*
X55729114Y-37289906D01*
X55721004Y-37305078D01*
X55614659Y-37434659D01*
X55485078Y-37541004D01*
X55485076Y-37541005D01*
X55337242Y-37620024D01*
X55176823Y-37668687D01*
X55051804Y-37681000D01*
X54168196Y-37681000D01*
X54043177Y-37668687D01*
X53882758Y-37620024D01*
X53734924Y-37541005D01*
X53734922Y-37541004D01*
X53605341Y-37434659D01*
X53498996Y-37305078D01*
X53490886Y-37289906D01*
X53419976Y-37157242D01*
X53371313Y-36996823D01*
X53354883Y-36830000D01*
X53371313Y-36663177D01*
X53419976Y-36502758D01*
X53498995Y-36354924D01*
X53498996Y-36354922D01*
X53605341Y-36225341D01*
X53734922Y-36118996D01*
X53750094Y-36110886D01*
X53882758Y-36039976D01*
X54043177Y-35991313D01*
X54168196Y-35979000D01*
X55051804Y-35979000D01*
X55176823Y-35991313D01*
X55176823Y-35991313D01*
G37*
G36*
X55176823Y-33451313D02*
G01*
X55337242Y-33499976D01*
X55469906Y-33570886D01*
X55485078Y-33578996D01*
X55614659Y-33685341D01*
X55721004Y-33814922D01*
X55721005Y-33814924D01*
X55800024Y-33962758D01*
X55848687Y-34123177D01*
X55865117Y-34290000D01*
X55848687Y-34456823D01*
X55800024Y-34617242D01*
X55729114Y-34749906D01*
X55721004Y-34765078D01*
X55614659Y-34894659D01*
X55485078Y-35001004D01*
X55485076Y-35001005D01*
X55337242Y-35080024D01*
X55176823Y-35128687D01*
X55051804Y-35141000D01*
X54168196Y-35141000D01*
X54043177Y-35128687D01*
X53882758Y-35080024D01*
X53734924Y-35001005D01*
X53734922Y-35001004D01*
X53605341Y-34894659D01*
X53498996Y-34765078D01*
X53490886Y-34749906D01*
X53419976Y-34617242D01*
X53371313Y-34456823D01*
X53354883Y-34290000D01*
X53371313Y-34123177D01*
X53419976Y-33962758D01*
X53498995Y-33814924D01*
X53498996Y-33814922D01*
X53605341Y-33685341D01*
X53734922Y-33578996D01*
X53750094Y-33570886D01*
X53882758Y-33499976D01*
X54043177Y-33451313D01*
X54168196Y-33439000D01*
X55051804Y-33439000D01*
X55176823Y-33451313D01*
X55176823Y-33451313D01*
G37*
G36*
X39936823Y-33451313D02*
G01*
X40097242Y-33499976D01*
X40229906Y-33570886D01*
X40245078Y-33578996D01*
X40374659Y-33685341D01*
X40481004Y-33814922D01*
X40481005Y-33814924D01*
X40560024Y-33962758D01*
X40608687Y-34123177D01*
X40625117Y-34290000D01*
X40608687Y-34456823D01*
X40560024Y-34617242D01*
X40489114Y-34749906D01*
X40481004Y-34765078D01*
X40374659Y-34894659D01*
X40245078Y-35001004D01*
X40245076Y-35001005D01*
X40097242Y-35080024D01*
X39936823Y-35128687D01*
X39811804Y-35141000D01*
X38928196Y-35141000D01*
X38803177Y-35128687D01*
X38642758Y-35080024D01*
X38494924Y-35001005D01*
X38494922Y-35001004D01*
X38365341Y-34894659D01*
X38258996Y-34765078D01*
X38250886Y-34749906D01*
X38179976Y-34617242D01*
X38131313Y-34456823D01*
X38114883Y-34290000D01*
X38131313Y-34123177D01*
X38179976Y-33962758D01*
X38258995Y-33814924D01*
X38258996Y-33814922D01*
X38365341Y-33685341D01*
X38494922Y-33578996D01*
X38510094Y-33570886D01*
X38642758Y-33499976D01*
X38803177Y-33451313D01*
X38928196Y-33439000D01*
X39811804Y-33439000D01*
X39936823Y-33451313D01*
X39936823Y-33451313D01*
G37*
G36*
X55176823Y-30911313D02*
G01*
X55337242Y-30959976D01*
X55469906Y-31030886D01*
X55485078Y-31038996D01*
X55614659Y-31145341D01*
X55721004Y-31274922D01*
X55721005Y-31274924D01*
X55800024Y-31422758D01*
X55848687Y-31583177D01*
X55865117Y-31750000D01*
X55848687Y-31916823D01*
X55800024Y-32077242D01*
X55729114Y-32209906D01*
X55721004Y-32225078D01*
X55614659Y-32354659D01*
X55485078Y-32461004D01*
X55485076Y-32461005D01*
X55337242Y-32540024D01*
X55176823Y-32588687D01*
X55051804Y-32601000D01*
X54168196Y-32601000D01*
X54043177Y-32588687D01*
X53882758Y-32540024D01*
X53734924Y-32461005D01*
X53734922Y-32461004D01*
X53605341Y-32354659D01*
X53498996Y-32225078D01*
X53490886Y-32209906D01*
X53419976Y-32077242D01*
X53371313Y-31916823D01*
X53354883Y-31750000D01*
X53371313Y-31583177D01*
X53419976Y-31422758D01*
X53498995Y-31274924D01*
X53498996Y-31274922D01*
X53605341Y-31145341D01*
X53734922Y-31038996D01*
X53750094Y-31030886D01*
X53882758Y-30959976D01*
X54043177Y-30911313D01*
X54168196Y-30899000D01*
X55051804Y-30899000D01*
X55176823Y-30911313D01*
X55176823Y-30911313D01*
G37*
G36*
X39936823Y-30911313D02*
G01*
X40097242Y-30959976D01*
X40229906Y-31030886D01*
X40245078Y-31038996D01*
X40374659Y-31145341D01*
X40481004Y-31274922D01*
X40481005Y-31274924D01*
X40560024Y-31422758D01*
X40608687Y-31583177D01*
X40625117Y-31750000D01*
X40608687Y-31916823D01*
X40560024Y-32077242D01*
X40489114Y-32209906D01*
X40481004Y-32225078D01*
X40374659Y-32354659D01*
X40245078Y-32461004D01*
X40245076Y-32461005D01*
X40097242Y-32540024D01*
X39936823Y-32588687D01*
X39811804Y-32601000D01*
X38928196Y-32601000D01*
X38803177Y-32588687D01*
X38642758Y-32540024D01*
X38494924Y-32461005D01*
X38494922Y-32461004D01*
X38365341Y-32354659D01*
X38258996Y-32225078D01*
X38250886Y-32209906D01*
X38179976Y-32077242D01*
X38131313Y-31916823D01*
X38114883Y-31750000D01*
X38131313Y-31583177D01*
X38179976Y-31422758D01*
X38258995Y-31274924D01*
X38258996Y-31274922D01*
X38365341Y-31145341D01*
X38494922Y-31038996D01*
X38510094Y-31030886D01*
X38642758Y-30959976D01*
X38803177Y-30911313D01*
X38928196Y-30899000D01*
X39811804Y-30899000D01*
X39936823Y-30911313D01*
X39936823Y-30911313D01*
G37*
G36*
X55176823Y-28371313D02*
G01*
X55337242Y-28419976D01*
X55469906Y-28490886D01*
X55485078Y-28498996D01*
X55614659Y-28605341D01*
X55721004Y-28734922D01*
X55721005Y-28734924D01*
X55800024Y-28882758D01*
X55848687Y-29043177D01*
X55865117Y-29210000D01*
X55848687Y-29376823D01*
X55800024Y-29537242D01*
X55729114Y-29669906D01*
X55721004Y-29685078D01*
X55614659Y-29814659D01*
X55485078Y-29921004D01*
X55485076Y-29921005D01*
X55337242Y-30000024D01*
X55176823Y-30048687D01*
X55051804Y-30061000D01*
X54168196Y-30061000D01*
X54043177Y-30048687D01*
X53882758Y-30000024D01*
X53734924Y-29921005D01*
X53734922Y-29921004D01*
X53605341Y-29814659D01*
X53498996Y-29685078D01*
X53490886Y-29669906D01*
X53419976Y-29537242D01*
X53371313Y-29376823D01*
X53354883Y-29210000D01*
X53371313Y-29043177D01*
X53419976Y-28882758D01*
X53498995Y-28734924D01*
X53498996Y-28734922D01*
X53605341Y-28605341D01*
X53734922Y-28498996D01*
X53750094Y-28490886D01*
X53882758Y-28419976D01*
X54043177Y-28371313D01*
X54168196Y-28359000D01*
X55051804Y-28359000D01*
X55176823Y-28371313D01*
X55176823Y-28371313D01*
G37*
G36*
X39936823Y-28371313D02*
G01*
X40097242Y-28419976D01*
X40229906Y-28490886D01*
X40245078Y-28498996D01*
X40374659Y-28605341D01*
X40481004Y-28734922D01*
X40481005Y-28734924D01*
X40560024Y-28882758D01*
X40608687Y-29043177D01*
X40625117Y-29210000D01*
X40608687Y-29376823D01*
X40560024Y-29537242D01*
X40489114Y-29669906D01*
X40481004Y-29685078D01*
X40374659Y-29814659D01*
X40245078Y-29921004D01*
X40245076Y-29921005D01*
X40097242Y-30000024D01*
X39936823Y-30048687D01*
X39811804Y-30061000D01*
X38928196Y-30061000D01*
X38803177Y-30048687D01*
X38642758Y-30000024D01*
X38494924Y-29921005D01*
X38494922Y-29921004D01*
X38365341Y-29814659D01*
X38258996Y-29685078D01*
X38250886Y-29669906D01*
X38179976Y-29537242D01*
X38131313Y-29376823D01*
X38114883Y-29210000D01*
X38131313Y-29043177D01*
X38179976Y-28882758D01*
X38258995Y-28734924D01*
X38258996Y-28734922D01*
X38365341Y-28605341D01*
X38494922Y-28498996D01*
X38510094Y-28490886D01*
X38642758Y-28419976D01*
X38803177Y-28371313D01*
X38928196Y-28359000D01*
X39811804Y-28359000D01*
X39936823Y-28371313D01*
X39936823Y-28371313D01*
G37*
G36*
X55176823Y-25831313D02*
G01*
X55337242Y-25879976D01*
X55469906Y-25950886D01*
X55485078Y-25958996D01*
X55614659Y-26065341D01*
X55721004Y-26194922D01*
X55721005Y-26194924D01*
X55800024Y-26342758D01*
X55848687Y-26503177D01*
X55865117Y-26670000D01*
X55848687Y-26836823D01*
X55800024Y-26997242D01*
X55729114Y-27129906D01*
X55721004Y-27145078D01*
X55614659Y-27274659D01*
X55485078Y-27381004D01*
X55485076Y-27381005D01*
X55337242Y-27460024D01*
X55176823Y-27508687D01*
X55051804Y-27521000D01*
X54168196Y-27521000D01*
X54043177Y-27508687D01*
X53882758Y-27460024D01*
X53734924Y-27381005D01*
X53734922Y-27381004D01*
X53605341Y-27274659D01*
X53498996Y-27145078D01*
X53490886Y-27129906D01*
X53419976Y-26997242D01*
X53371313Y-26836823D01*
X53354883Y-26670000D01*
X53371313Y-26503177D01*
X53419976Y-26342758D01*
X53498995Y-26194924D01*
X53498996Y-26194922D01*
X53605341Y-26065341D01*
X53734922Y-25958996D01*
X53750094Y-25950886D01*
X53882758Y-25879976D01*
X54043177Y-25831313D01*
X54168196Y-25819000D01*
X55051804Y-25819000D01*
X55176823Y-25831313D01*
X55176823Y-25831313D01*
G37*
G36*
X40621000Y-27521000D02*
G01*
X38119000Y-27521000D01*
X38119000Y-25819000D01*
X40621000Y-25819000D01*
X40621000Y-27521000D01*
X40621000Y-27521000D01*
G37*
M02*
